<svg width="252" height="43" viewBox="0 0 252 43" fill="none" xmlns="http://www.w3.org/2000/svg">
<path d="M173.316 39.1513C164.445 39.1213 157.378 32.2813 157.409 23.7613C157.441 15.4113 164.612 8.62134 173.368 8.65134C182.238 8.68134 189.326 15.5013 189.285 23.9713C189.253 32.3413 182.051 39.1813 173.316 39.1513ZM187.054 23.9113C187.054 16.6713 180.946 10.8113 173.357 10.7813C165.811 10.7613 159.63 16.6413 159.619 23.8713C159.619 31.1013 165.748 36.9913 173.316 37.0013C180.873 37.0113 187.044 31.1313 187.044 23.9113H187.054Z" fill="#1E1E1E"/>
<path d="M223.662 23.8814C223.672 32.2714 216.501 39.1414 207.724 39.1414C198.937 39.1414 191.818 32.3414 191.797 23.9414C191.776 15.4814 198.854 8.65137 207.651 8.64137C216.522 8.63137 223.641 15.4114 223.651 23.8714L223.662 23.8814ZM221.421 23.9114C221.421 16.6514 215.344 10.8014 207.745 10.7814C200.188 10.7514 194.017 16.6314 194.007 23.8614C194.007 31.1014 200.136 36.9914 207.693 36.9914C215.271 36.9914 221.41 31.1514 221.421 23.9014V23.9114Z" fill="#1E1E1E"/>
<path d="M145.974 32.2013C148.705 34.3613 151.426 36.5113 154.261 38.7513C153 38.7513 151.864 38.7513 150.728 38.7513C150.509 38.7513 150.373 38.5413 150.217 38.4213C147.819 36.5113 145.422 34.5913 143.025 32.6713C142.91 32.5813 142.785 32.4913 142.66 32.4013C142.514 32.5613 142.587 32.7313 142.587 32.8813C142.587 34.6813 142.576 36.4713 142.587 38.2713C142.587 38.6313 142.535 38.8113 142.107 38.7613C141.524 38.7013 140.742 38.9913 140.408 38.6413C140.116 38.3313 140.314 37.6013 140.314 37.0513C140.314 27.9213 140.314 18.7913 140.304 9.65135C140.304 9.12135 140.44 9.01135 140.992 8.99135C143.775 8.91135 146.402 9.39135 148.789 10.8113C155.7 14.9113 156.607 24.0413 150.644 29.5013C149.446 30.6013 148.07 31.3913 146.516 31.9313C146.339 31.9913 146.141 32.0113 145.974 32.2013ZM142.587 20.8313V29.8513C142.587 30.5813 142.587 30.5613 143.316 30.5013C148.851 30.0613 153.156 24.8613 152.249 19.4713C151.614 15.7013 148.424 11.5613 143.181 11.1213C142.733 11.0813 142.566 11.1413 142.566 11.6413C142.597 14.7013 142.576 17.7713 142.576 20.8313H142.587Z" fill="#1E1E1E"/>
<path d="M109.45 32.2013C112.181 34.3613 114.902 36.5113 117.747 38.7513C116.486 38.7513 115.35 38.7513 114.214 38.7513C114.026 38.7513 113.922 38.5813 113.797 38.4813C111.452 36.6113 109.117 34.7413 106.782 32.8713C106.584 32.7113 106.375 32.5513 106.167 32.3813C106.042 32.5913 106.094 32.7713 106.094 32.9413C106.094 34.7213 106.083 36.5013 106.094 38.2813C106.094 38.6113 106.052 38.7813 105.635 38.7513C105.052 38.7113 104.27 38.9313 103.915 38.6513C103.551 38.3613 103.801 37.5913 103.801 37.0313C103.801 27.8813 103.801 18.7213 103.78 9.57126C103.78 9.07126 103.936 9.00126 104.416 8.98126C106.99 8.90126 109.471 9.25126 111.723 10.5113C116.174 13.0013 118.425 16.7513 118.008 21.6513C117.591 26.5413 114.881 30.0413 110.044 31.9113C109.888 31.9713 109.721 32.0213 109.565 32.0813C109.534 32.0913 109.513 32.1313 109.461 32.1913L109.45 32.2013ZM106.073 20.8013C106.073 23.8213 106.073 26.8513 106.073 29.8713C106.073 30.5713 106.073 30.5513 106.771 30.5013C112.411 30.0513 116.445 24.8313 115.777 19.8213C115.256 15.8913 111.994 11.5513 106.626 11.1213C106.188 11.0913 106.052 11.1613 106.052 11.6113C106.073 14.6713 106.063 17.7313 106.063 20.7913L106.073 20.8013Z" fill="#1E1E1E"/>
<path d="M128.265 17.0013C130.193 17.5713 131.882 18.5313 133.268 19.9513C137.646 24.4013 137.709 32.4913 131.11 36.8513C129.224 38.1013 127.15 38.7313 124.867 38.7413C124.158 38.7413 123.449 38.7413 122.74 38.7413C122.459 38.7413 122.355 38.6613 122.386 38.4013C122.396 38.3113 122.386 38.2213 122.386 38.1313C122.386 28.6313 122.386 19.1313 122.375 9.63132C122.375 9.08132 122.532 8.95132 123.074 8.99132C123.991 9.06132 124.908 8.93132 125.826 9.10132C127.702 9.45132 128.869 10.5713 129.484 12.2413C130.068 13.8413 129.787 15.3113 128.557 16.5813C128.463 16.6713 128.379 16.7713 128.296 16.8713C128.275 16.8913 128.286 16.9413 128.275 17.0013H128.265ZM124.637 27.5213C124.637 28.1613 124.637 28.8013 124.637 29.4513C124.637 31.6513 124.637 33.8513 124.637 36.0513C124.637 36.4413 124.731 36.5713 125.148 36.5113C125.794 36.4213 126.441 36.4013 127.077 36.2613C131.934 35.1413 135.071 30.0013 133.758 25.3013C132.705 21.5313 129.464 18.9313 125.388 18.6113C124.888 18.5713 124.637 18.7946 124.637 19.2813C124.637 22.0313 124.637 24.7813 124.637 27.5313V27.5213ZM124.637 13.7013C124.637 14.4913 124.637 15.2813 124.637 16.0713C124.637 16.3513 124.742 16.4113 125.013 16.3713C126.566 16.1713 127.598 15.1413 127.608 13.7513C127.619 12.3213 126.607 11.2413 125.065 11.0313C124.731 10.9813 124.627 11.0613 124.637 11.3913C124.658 12.1613 124.637 12.9313 124.637 13.7013Z" fill="#1E1E1E"/>
<path d="M73.4784 16.4013C74.0308 16.4013 74.5311 16.3713 75.0106 16.4013C75.4067 16.4313 75.4797 16.2913 75.4797 15.9413C75.4589 13.7913 75.4797 11.6513 75.4589 9.5013C75.4589 9.1013 75.5422 8.9413 75.9905 8.9913C76.4074 9.0313 76.8348 9.0313 77.2517 8.9913C77.6791 8.9513 77.752 9.1213 77.752 9.4913C77.7312 11.6413 77.752 13.7813 77.7416 15.9313C77.7416 16.2513 77.7729 16.4113 78.1898 16.4113C79.8159 16.3813 81.4524 16.3913 83.0785 16.4113C83.4538 16.4113 83.5059 16.2913 83.5059 15.9713C83.4955 13.8113 83.5059 11.6413 83.485 9.4813C83.485 9.0913 83.5997 8.9713 83.9958 9.0013C84.4753 9.0313 84.9548 9.0213 85.4342 9.0013C85.6948 9.0013 85.7782 9.0813 85.7574 9.3213C85.747 9.4113 85.7574 9.5013 85.7574 9.5913C85.7574 19.1113 85.7574 28.6313 85.7678 38.1513C85.7678 38.6713 85.601 38.8013 85.1007 38.7513C84.5899 38.7113 83.8811 38.9113 83.5997 38.6613C83.2661 38.3713 83.4955 37.6913 83.4955 37.1813C83.4955 31.1613 83.485 25.1513 83.4955 19.1313C83.4955 18.6613 83.3704 18.5613 82.8909 18.5713C81.4003 18.6013 79.8993 18.6213 78.4087 18.5713C77.7937 18.5513 77.7104 18.7513 77.7208 19.2713C77.7416 25.5413 77.7208 31.8213 77.7416 38.0913C77.7416 38.5913 77.6582 38.8313 77.0745 38.7513C76.5533 38.6813 75.8445 38.9613 75.5422 38.6413C75.2817 38.3613 75.4589 37.7013 75.4589 37.2113C75.4589 31.2113 75.4589 25.2113 75.4589 19.2213C75.4589 18.7413 75.3546 18.5013 74.8126 18.6013C74.3956 18.6813 74.1976 18.5013 74.0829 18.1213C73.9162 17.5613 73.6868 17.0213 73.4575 16.4113L73.4784 16.4013Z" fill="#1E1E1E"/>
<path d="M229.926 15.7513C230.176 15.6913 230.239 15.5213 230.343 15.4013C232.115 13.3813 233.898 11.3513 235.659 9.32128C235.857 9.09128 236.055 8.98128 236.378 8.99128C237.181 9.01128 237.984 8.99128 238.797 8.99128C238.828 9.21128 238.64 9.29128 238.547 9.41128C236.608 11.5913 234.669 13.7713 232.72 15.9313C232.449 16.2313 232.407 16.4813 232.543 16.8613C235.034 23.9113 237.515 30.9713 239.995 38.0213C240.068 38.2413 240.214 38.4513 240.162 38.7313C239.474 38.7313 238.786 38.7013 238.098 38.7313C237.723 38.7513 237.713 38.5013 237.64 38.2913C236.514 35.0813 235.399 31.8713 234.273 28.6613C232.897 24.7413 231.521 20.8213 230.156 16.9013C230.124 16.8013 230.072 16.7013 229.937 16.5913C229.937 16.7713 229.937 16.9513 229.937 17.1313C229.937 24.1213 229.937 31.1113 229.947 38.1013C229.947 38.6013 229.822 38.7813 229.29 38.7113C228.759 38.6513 228.05 38.9213 227.748 38.6013C227.487 38.3213 227.675 37.6613 227.675 37.1613C227.675 28.0213 227.675 18.8913 227.675 9.75128C227.675 9.22462 227.96 8.96128 228.529 8.96128C228.821 8.96128 229.113 8.99128 229.395 8.96128C229.874 8.89128 229.947 9.10128 229.947 9.51128C229.926 11.5613 229.947 13.6213 229.947 15.7213L229.926 15.7513Z" fill="#1E1E1E"/>
<path d="M243.164 28.6014C243.164 25.4114 243.164 22.2214 243.175 19.0214C243.175 18.5814 243.05 18.4214 242.602 18.5014C242.153 18.5814 241.914 18.4114 241.788 17.9814C241.663 17.5414 241.465 17.1214 241.288 16.6914C241.205 16.4714 241.236 16.3414 241.517 16.3714C241.57 16.3714 241.632 16.3714 241.695 16.3714C242.164 16.3314 242.81 16.5814 243.06 16.2714C243.3 15.9814 243.144 15.3914 243.144 14.9414C243.144 13.1414 243.154 11.3414 243.144 9.55135C243.144 9.17135 243.196 9.01135 243.665 9.01135C245.989 9.04135 248.303 9.03135 250.628 9.01135C251.024 9.01135 251.18 9.10135 251.138 9.49135C251.107 9.85135 251.107 10.2314 251.138 10.5914C251.18 11.0014 251.066 11.1614 250.586 11.1514C249.033 11.1214 247.48 11.1514 245.927 11.1314C245.583 11.1314 245.416 11.1714 245.426 11.5614C245.458 13.0314 245.447 14.5014 245.426 15.9614C245.426 16.3214 245.562 16.3814 245.895 16.3814C247.386 16.3714 248.887 16.3814 250.378 16.3614C250.742 16.3614 250.93 16.4614 251.045 16.8014C251.18 17.2214 251.347 17.6314 251.545 18.0314C251.722 18.4014 251.691 18.5214 251.222 18.5214C249.46 18.5014 247.699 18.5214 245.927 18.5014C245.51 18.5014 245.426 18.6114 245.426 18.9914C245.437 24.7014 245.437 30.4014 245.426 36.1114C245.426 36.5214 245.562 36.5814 245.947 36.5814C247.542 36.5614 249.127 36.5814 250.722 36.5614C251.107 36.5614 251.222 36.6614 251.191 37.0214C251.159 37.4814 251.17 37.9414 251.191 38.4014C251.201 38.6814 251.128 38.7814 250.815 38.7814C248.397 38.7714 245.979 38.7614 243.571 38.7814C243.081 38.7814 243.164 38.5214 243.164 38.2614C243.164 35.0514 243.164 31.8414 243.164 28.6314V28.6014Z" fill="#1E1E1E"/>
<path d="M100.059 18.5013C98.0989 18.5013 96.2226 18.5113 94.3464 18.5013C93.9294 18.5013 93.7627 18.5513 93.7627 19.0213C93.7835 24.7113 93.7835 30.3913 93.7627 36.0813C93.7627 36.5113 93.8982 36.5813 94.3047 36.5813C95.8786 36.5613 97.4526 36.5813 99.0161 36.5613C99.4227 36.5613 99.5477 36.6713 99.5165 37.0513C99.4748 37.5913 99.6937 38.3113 99.4122 38.6413C99.11 38.9913 98.3386 38.7513 97.7653 38.7513C95.8682 38.7613 93.9711 38.7313 92.074 38.7713C91.532 38.7813 91.4695 38.6113 91.4695 38.1613C91.4799 31.8113 91.4695 25.4713 91.4903 19.1213C91.4903 18.6313 91.3756 18.4113 90.844 18.5113C90.4167 18.5913 90.2395 18.3913 90.1144 18.0213C89.9476 17.4813 89.7183 16.9613 89.4994 16.3813C90.0206 16.3813 90.4792 16.3513 90.9274 16.3813C91.4069 16.4313 91.4903 16.2413 91.4799 15.8313C91.459 13.7413 91.4799 11.6513 91.459 9.56134C91.459 9.16134 91.5111 9.00134 92.0011 9.00134C94.3151 9.03134 96.6396 9.02134 98.964 9.00134C99.3289 9.00134 99.4748 9.08134 99.4435 9.45134C99.4122 9.87134 99.4122 10.3013 99.4435 10.7113C99.4748 11.0713 99.3289 11.1313 98.9953 11.1313C97.4422 11.1113 95.8891 11.1513 94.3359 11.1113C93.8356 11.1013 93.7418 11.2513 93.7522 11.6913C93.7835 13.0613 93.7835 14.4413 93.7522 15.8213C93.7418 16.3013 93.8982 16.3913 94.3672 16.3813C95.7848 16.3513 97.2024 16.3813 98.62 16.3613C99.0683 16.3613 99.2663 16.5013 99.4018 16.8813C99.579 17.4013 99.8083 17.9013 100.048 18.5013H100.059Z" fill="#1E1E1E"/>
<path d="M72.1025 10.1213C72.1025 10.8146 71.7447 11.1846 71.0289 11.2313C65.0979 11.6413 59.9382 16.2913 59.0001 22.0713C57.989 28.2913 62.2626 34.5713 68.5794 36.1513C69.58 36.4013 70.612 36.5313 71.6439 36.5513C71.9879 36.5513 72.113 36.6613 72.0921 37.0013C72.0608 37.4613 72.0713 37.9213 72.0921 38.3713C72.1025 38.6613 72.0191 38.7413 71.7064 38.7313C62.7213 38.4013 57.6763 31.9113 56.8111 26.1413C55.5603 17.8013 61.1786 10.5413 69.9136 9.22127C70.466 9.14127 71.0185 9.10127 71.5605 9.01127C72.0087 8.94127 72.1547 9.10127 72.0921 9.51127C72.0608 9.71127 72.0921 9.91127 72.0921 10.1113L72.1025 10.1213Z" fill="#1E1E1E"/>
<path d="M45.7724 20.5714C45.147 20.7114 35.6303 21.1914 23.4242 21.1914C11.2182 21.1914 1.20107 20.6414 1.05514 20.5714C0.909212 20.5714 11.0931 20.0214 23.4346 20.0214C35.0778 20.0214 45.0532 20.4514 45.7828 20.5614C45.1366 9.62136 35.3488 0.891357 23.4138 0.891357C11.4788 0.891357 0.982178 10.2314 0.982178 21.6814C0.982178 33.1314 11.0618 42.4714 23.4138 42.4714C35.7658 42.4714 45.8454 33.1314 45.8454 21.6814C45.8454 21.3014 45.8037 20.9414 45.7828 20.5714H45.7724ZM33.9937 37.9614C33.3162 38.1114 29.1989 39.3614 23.3512 39.3614C17.5036 39.3614 13.4592 38.1114 12.7921 37.9614C12.0416 37.8114 17.514 36.7914 23.3512 36.7914C29.1885 36.7914 34.6609 37.8214 33.9937 37.9614ZM39.831 33.7714C38.945 34.0114 32.4823 34.9314 23.4346 34.9314C14.3869 34.9314 7.9243 33.9514 7.03829 33.7714C6.07932 33.5314 14.3869 32.6114 23.4346 32.6114C32.4823 32.6114 40.717 33.4614 39.831 33.7714ZM43.2395 29.3314C42.2701 29.3914 34.296 30.3614 23.4242 30.3614C12.5524 30.3614 4.57832 29.5114 3.60893 29.3314C2.7125 29.0914 12.5524 28.3014 23.4242 28.3014C34.296 28.3014 44.1359 29.2114 43.2395 29.3314ZM45.0115 25.0214C43.8962 25.2314 35.3384 25.9214 23.4346 25.9214C11.5309 25.9214 2.59784 25.2314 1.85776 25.0214C1.11768 24.8814 11.5309 24.1914 23.4346 24.1914C35.3384 24.1914 46.1268 24.8114 45.0115 25.0214Z" fill="#F22C2C"/>
</svg>
