<svg id="Layer_1" data-name="Layer 1" xmlns="http://www.w3.org/2000/svg" viewBox="0 0 91.49 47.75"><defs><style>.cls-1{fill:#fff;}</style></defs><path class="cls-1" d="M29.57,0h-2a5.25,5.25,0,0,0-4,1.89L23.43,2l-.16-.22A5.31,5.31,0,0,0,19.32,0H15.66a5.28,5.28,0,0,0-4,1.83l-.08.1-.09-.1A5.24,5.24,0,0,0,7.56,0H5.32A5.38,5.38,0,0,0,0,5.42V9.8a5.35,5.35,0,0,0,.33,1.82l0,0,0,0A5.07,5.07,0,0,0,0,13.44V32.66a6.47,6.47,0,0,0,2.43,5L14,46.6a5.67,5.67,0,0,0,6.86,0l11.57-9a6.47,6.47,0,0,0,2.43-5V13.44a5.14,5.14,0,0,0-.32-1.75v-.08a5.25,5.25,0,0,0,.33-1.81V5.42A5.38,5.38,0,0,0,29.57,0Zm3,9.8a2.68,2.68,0,0,1-.28,1.37l-.23.48.23.49a2.51,2.51,0,0,1,.28,1.3V32.66a4.13,4.13,0,0,1-1.52,3.16l-11.57,9a3.36,3.36,0,0,1-4.06,0l-11.57-9A4.26,4.26,0,0,1,2.3,32.66V13.44a3,3,0,0,1,.3-1.29l.24-.49-.24-.48A3.31,3.31,0,0,1,2.28,9.8V5.42a3.1,3.1,0,0,1,3-3.15H7.56a3,3,0,0,1,2.81,2l.28.72h1.92c0-.12.28-.72.28-.72a3,3,0,0,1,2.81-2h3.66a3,3,0,0,1,2.24,1,3.2,3.2,0,0,1,.58,1l.28.72h2l.29-.72a3,3,0,0,1,2.81-2h2a3,3,0,0,1,2.14.91,3,3,0,0,1,.86,2.24Z"/><path class="cls-1" d="M29.5,12.49H5.3a1,1,0,0,0-.93.95V32.66a2.21,2.21,0,0,0,.74,1.52l11.54,9a1.25,1.25,0,0,0,1.47,0l11.54-9a2.2,2.2,0,0,0,.73-1.52V13.44A.93.93,0,0,0,29.5,12.49ZM18.72,29.84,16.5,37.33a.6.6,0,0,1-1,.34l-6.8-5.3A2.17,2.17,0,0,1,8,30.85V17.1a1,1,0,0,1,.93-1H14a.69.69,0,0,1,.69.91l-1.92,7.28c-.14.5-.35,1.31-.48,1.79A.94.94,0,0,0,13,27.26l5.11,1.43A.93.93,0,0,1,18.72,29.84Zm8.09,1a2.17,2.17,0,0,1-.74,1.52l-4.92,3.84c-.41.31-.62.16-.47-.34l2.53-8.57a.91.91,0,0,0-.63-1.15L17.37,24.7a1,1,0,0,1-.66-1.17l1.71-6.47a1.28,1.28,0,0,1,1.17-.91h6.29a1,1,0,0,1,.93,1Z"/><path class="cls-1" d="M29.46,4.35H27.22a1,1,0,0,0-.94,1.07V6a1,1,0,0,1-.94,1.07h-4.2A1,1,0,0,1,20.2,6V5.42a1,1,0,0,0-.95-1.07H15.6a1,1,0,0,0-.94,1.07V6a1,1,0,0,1-.94,1.07H9.41A1,1,0,0,1,8.47,6V5.42a1,1,0,0,0-.94-1.07H5.3a1,1,0,0,0-1,1.07V9.8a1,1,0,0,0,1,1.06H29.46a1,1,0,0,0,.95-1.06V5.42A1,1,0,0,0,29.46,4.35Z"/><path class="cls-1" d="M50.21,23.22a1.47,1.47,0,0,1,0-1.62l5.87-8.35c.32-.45.13-.82-.41-.82H51.18a2.08,2.08,0,0,0-1.54.83l-4,6a1.9,1.9,0,0,1-1.35.82.92.92,0,0,1-.8-1V13.43a1,1,0,0,0-1-1H39.12a1,1,0,0,0-1,1V31.77a1,1,0,0,0,1,1h3.36a1,1,0,0,0,1-1V25.82a.93.93,0,0,1,.8-1,2,2,0,0,1,1.37.82L50.05,32a2.11,2.11,0,0,0,1.55.81h4.64c.54,0,.72-.36.39-.8Z"/><path class="cls-1" d="M73.83,23.21a3,3,0,0,0-1.2-.5c-.54-.09-1-.26-1-.38a4.08,4.08,0,0,0,2-.81A3,3,0,0,0,74.56,20a9.16,9.16,0,0,0,.25-2.36,6.15,6.15,0,0,0-.72-3.27A3.51,3.51,0,0,0,72,12.83a14,14,0,0,0-2.53-.35c-.54,0-1.42-.05-2-.05H59a1,1,0,0,0-1,1V31.77a1,1,0,0,0,1,1h9.61a13.58,13.58,0,0,0,3.71-.4,3.43,3.43,0,0,0,2.08-1.63,7.33,7.33,0,0,0,.72-3.64,9.25,9.25,0,0,0-.26-2.37A2.85,2.85,0,0,0,73.83,23.21ZM63.36,17.9a1,1,0,0,1,1-1H67.8a1.7,1.7,0,0,1,1.33.38,2.06,2.06,0,0,1,.33,1.34,3.06,3.06,0,0,1-.19,1.24,1.06,1.06,0,0,1-.66.56,1.73,1.73,0,0,1-.47.1c-.54,0-1.42.05-2,.05H64.34a1,1,0,0,1-1-1Zm6.18,9.62a1.36,1.36,0,0,1-.78.62,3.48,3.48,0,0,1-.43.12c-.54,0-1.42,0-2,0h-2a1,1,0,0,1-1-1v-2a1,1,0,0,1,1-1h3.12a3.43,3.43,0,0,1,1.84.35c.32.24.48.76.48,1.57A2.73,2.73,0,0,1,69.54,27.52Z"/><path class="cls-1" d="M90.51,12.43H77.05a1,1,0,0,0-1,1v2.73a1,1,0,0,0,1,1h3.12a1,1,0,0,1,1,1v13.6a1,1,0,0,0,1,1h3.36a1,1,0,0,0,1-1V18.17a1,1,0,0,1,1-1h3.05a1,1,0,0,0,1-1V13.43A1,1,0,0,0,90.51,12.43Z"/></svg>