<svg width="250" height="43" viewBox="0 0 250 43" fill="none" xmlns="http://www.w3.org/2000/svg">
<g clip-path="url(#clip0_6058_2)">
<path d="M40.3262 39.9786H0V22.2268L20.1631 36.3899L40.3262 22.2268V39.9786Z" fill="#E3A715"/>
<path d="M13.0426 28.39C30.6312 25.2056 40.3333 16.5389 40.3333 16.5389C40.3333 16.5389 28.6667 22.0921 5.10638 22.8155L13.0426 28.39ZM20.1702 33.397L27.6809 28.1205C24.2553 28.8297 20.1348 29.5034 15.3121 29.9857L20.1702 33.397ZM0 0.638184V5.00698C11.3333 5.00698 20.4894 3.42542 27.1986 0.638184H0ZM0 7.23392V12.6878C25.7801 12.6878 40.3262 0.872217 40.3262 0.872217C40.3262 0.872217 26.9858 7.23392 0 7.23392ZM0 19.2268L2.56738 20.8935C26.4539 19.9644 40.3262 8.70201 40.3262 8.70201C40.3262 8.70201 26.9858 15.0566 0 15.0566V19.2268Z" fill="#1F1E21"/>
<path d="M69.8369 0.624023C68.7163 1.49636 68.5248 2.74458 68.5248 4.02117V19.0495C68.5248 20.3261 68.7163 21.5744 69.8369 22.4467H61.2908C62.4114 21.5744 62.6029 20.3261 62.6029 19.0495V3.73749H56.8653V19.0495C56.8653 20.3261 57.0568 21.5744 58.1773 22.4467H49.6312C50.7518 21.5744 50.9433 20.3261 50.9433 19.0495V4.02117C50.9433 2.73748 50.7589 1.48927 49.6312 0.624023H69.844H69.8369Z" fill="#1F1E21"/>
<path d="M82.5106 0.624023C86.4681 0.624023 89.1844 3.11337 89.1844 6.54599C89.1844 11.3474 84.695 13.5956 79.922 13.0921C82.0709 12.1276 83.1063 10.4113 83.1063 8.04246C83.1063 4.95735 81.4539 3.89352 79.922 3.89352H79.6099V19.0495C79.6099 20.3261 79.7943 21.5744 80.922 22.4467H72.3759C73.4964 21.5744 73.6879 20.3261 73.6879 19.0495V4.02117C73.6879 2.73748 73.5035 1.48927 72.3759 0.624023H82.5177H82.5106Z" fill="#1F1E21"/>
<path d="M103.369 0C110.731 0 115.22 4.86525 115.22 11.4113C115.22 17.9574 110.631 23.078 102.958 23.078C94.7235 23.078 91.1064 17.2482 91.1064 11.7589C91.1064 5.83687 95.3476 0 103.362 0H103.369ZM103.525 19.6525C105.773 19.6525 108.979 18.156 108.979 12.539C108.979 7.98581 107.078 3.43262 103.114 3.43262C100.305 3.43262 97.3405 5.43263 97.3405 10.8865C97.3405 17 100.525 19.6525 103.518 19.6525H103.525Z" fill="#1F1E21"/>
<path d="M155.085 0.624023L159.886 13.5673L163.879 0.624023H171.865C170.681 1.24814 170.461 2.30487 170.617 3.74459L172.085 17.8722C172.298 19.9928 172.581 21.0496 173.738 22.4538H165.163C165.943 21.6453 166.191 20.773 166.191 20.0566C166.191 19.3403 166.128 18.9361 166.064 18.2765L165.064 8.10628L160.511 22.858C158.808 22.7162 156.73 21.929 155.489 18.6808L151.589 8.19849L150.433 18.6808C150.241 20.4893 150.369 21.5815 151.738 22.4538H145.468C146.12 21.8297 146.716 20.8935 147 18.7446L148.808 4.61691C148.901 3.80131 149.184 2.02828 147.596 0.624023H155.085Z" fill="#1F1E21"/>
<path d="M125.425 0.624023L130.227 13.5673L134.22 0.624023H142.206C141.021 1.24814 140.801 2.30487 140.957 3.74459L142.425 17.8722C142.638 19.9928 142.922 21.0496 144.078 22.4538H135.503C136.284 21.6453 136.532 20.773 136.532 20.0566C136.532 19.3403 136.475 18.9361 136.411 18.2765L135.411 8.10628L130.858 22.858C129.156 22.7162 127.078 21.929 125.837 18.6808L121.936 8.19849L120.787 18.6808C120.596 20.4893 120.723 21.5815 122.092 22.4538H115.823C116.475 21.8297 117.071 20.8935 117.355 18.7446L119.163 4.61691C119.255 3.80131 119.539 2.02828 117.943 0.624023H125.425Z" fill="#1F1E21"/>
<path d="M187.794 0.624258C188.106 0.624258 188.326 0.588781 188.574 0.496582V5.14199C187.759 3.89376 186.582 3.73772 185.83 3.73772H182.957V9.19162H187.482V13.4328C186.766 12.4682 185.922 12.3122 185.27 12.3122H182.957V18.3973C182.957 19.0498 183.241 19.3335 185.326 19.3335H187.823C189.255 19.3335 190.504 18.5817 191.348 17.7094L190.099 22.4469H175.716C176.837 21.5746 177.028 20.3264 177.028 19.0498V4.02141C177.028 2.73772 176.844 1.48951 175.716 0.624258H187.787H187.794Z" fill="#1F1E21"/>
<path d="M208.837 5.39729C208.397 4.24836 205.936 4.17743 205.028 4.17743H203.135V19.0569C203.135 20.3335 203.319 21.5817 204.447 22.454H195.901C197.021 21.5817 197.213 20.3335 197.213 19.0569V4.17743H195.121C193.596 4.17743 192.44 4.70935 191.504 5.61715L192.723 0.496582C192.972 0.588781 193.191 0.624258 193.504 0.624258H206.851C207.163 0.624258 207.376 0.588781 207.631 0.496582L208.844 5.39729H208.837Z" fill="#1F1E21"/>
<path d="M218.78 0.624287C217.66 1.49663 217.468 2.74484 217.468 4.02143V14.7803L224.766 0.617188H231.255C230.135 1.48953 229.943 2.73776 229.943 4.01436V19.0427C229.943 20.3193 230.128 21.5675 231.255 22.4399H222.709C223.83 21.5675 224.021 20.3193 224.021 19.0427V8.28385L216.66 22.4399H210.234C211.355 21.5675 211.539 20.3193 211.539 19.0427V4.01436C211.539 2.73067 211.355 1.48244 210.234 0.617188H218.78V0.624287Z" fill="#1F1E21"/>
<path d="M235.028 0.496441C237.773 0.340413 238.113 0 241.142 0C247.631 0 248.815 3.02836 248.815 5.1773C248.815 6.73758 248.376 9.38297 244.886 10.3191C247.447 10.5035 250 12.156 250 15.4681C250 19.5532 247.099 23.078 239.801 23.078C237.525 23.078 235.872 22.766 233.936 21.766L233.064 16.8369C235.276 19.2411 237.241 19.6454 238.957 19.6454C243.667 19.6454 244.071 17.0567 244.071 15.9007C244.071 14.312 243.418 12.3404 240.39 12.3404C239.482 12.3404 238.461 12.4326 237.369 13.0284V8.59574C237.808 8.75177 238.432 8.9078 239.362 8.9078C242.667 8.9078 242.979 7.10637 242.979 5.95034C242.979 3.54609 241.078 3.42552 240.262 3.42552C239.17 3.42552 237.05 3.63829 234.553 5.33333L235.021 0.496441H235.028Z" fill="#1F1E21"/>
<path d="M56.2908 33.0356V39.8654H55.4539V33.7449H51.8866V39.8654H51.0497V33.0356H56.2908Z" fill="#1F1E21"/>
<path d="M59.8015 42.7729V34.3474L59.7448 33.0283H60.5462V34.4396H60.5887C60.7731 33.9503 61.071 33.5814 61.4894 33.319C61.9008 33.0637 62.3334 32.929 62.7873 32.9219H62.8511C63.6171 32.9219 64.2696 33.2127 64.8228 33.7871C65.3689 34.3616 65.6455 35.2481 65.6455 36.4396C65.6455 37.6311 65.3972 38.4325 64.9008 38.9573C64.4043 39.4893 63.8582 39.7942 63.2625 39.8935C63.1774 39.9148 63.0781 39.9219 62.9788 39.9361C62.8795 39.9432 62.7873 39.9502 62.7022 39.9502C62.2128 39.9502 61.8015 39.8226 61.454 39.5602C61.1065 39.2978 60.844 38.9857 60.6526 38.6311H60.61L60.6384 39.8297V42.7729H59.8015ZM61.2696 38.5531C61.688 39.0212 62.1703 39.2552 62.7022 39.2552C62.7447 39.2552 62.7944 39.2552 62.844 39.2552C62.8937 39.2552 62.9433 39.2481 62.993 39.2339C63.4398 39.163 63.844 38.9077 64.2128 38.4538C64.5816 38.007 64.766 37.3332 64.766 36.4396C64.766 35.546 64.5887 34.9148 64.227 34.468C63.8653 34.0283 63.4752 33.7588 63.0497 33.6736C62.9859 33.6524 62.9291 33.6453 62.8724 33.6382C62.8157 33.6382 62.7589 33.6382 62.7022 33.6382C62.6596 33.6382 62.61 33.6382 62.5604 33.6382C62.5107 33.6382 62.4611 33.6524 62.4114 33.6595C61.9646 33.7304 61.5604 33.9928 61.1916 34.4396C60.8228 34.8864 60.6384 35.5531 60.6384 36.4467C60.6384 37.3829 60.8511 38.0921 61.2696 38.5602V38.5531Z" fill="#1F1E21"/>
<path d="M68.9716 33.9644C69.5035 33.2694 70.2907 32.929 71.3262 32.929C72.3617 32.929 73.1489 33.2765 73.6808 33.9644C74.2127 34.6524 74.4751 35.4821 74.4751 36.4538C74.4751 37.4254 74.2056 38.2339 73.6737 38.9219C73.1347 39.6098 72.3546 39.9573 71.3262 39.9573C70.2978 39.9573 69.5106 39.6098 68.9787 38.9219C68.4397 38.2339 68.1702 37.4112 68.1702 36.4538C68.1702 35.4963 68.4326 34.6594 68.9645 33.9644H68.9716ZM69.078 36.8793C69.0992 37.0283 69.1276 37.1772 69.156 37.3332C69.2695 37.8155 69.5035 38.2552 69.8439 38.6594C70.1844 39.0637 70.6808 39.2623 71.3262 39.2623C71.9716 39.2623 72.468 39.0637 72.8085 38.6594C73.1489 38.2552 73.3758 37.8155 73.4893 37.3332C73.5248 37.1843 73.5531 37.0353 73.5673 36.8793C73.5886 36.7304 73.5957 36.5885 73.5957 36.4538C73.5957 36.319 73.5886 36.1843 73.5673 36.0353C73.5461 35.8864 73.5248 35.7375 73.4893 35.5885C73.3829 35.1063 73.156 34.6523 72.8156 34.2481C72.4751 33.8367 71.9787 33.6311 71.3191 33.6311C70.6595 33.6311 70.1631 33.8367 69.8226 34.2481C69.4822 34.6523 69.2553 35.1063 69.1489 35.5885C69.1134 35.7375 69.0851 35.8864 69.0709 36.0353C69.0567 36.1772 69.0425 36.319 69.0425 36.4538C69.0425 36.5885 69.0496 36.7304 69.0709 36.8793H69.078Z" fill="#1F1E21"/>
<path d="M81.9078 33.4681C82.1844 33.2625 82.4539 33.1135 82.7092 33.0142C82.9716 32.9149 83.2269 32.8653 83.4752 32.8653C84.1773 32.8653 84.7659 33.2057 85.2482 33.8936C85.7234 34.5745 85.9645 35.4256 85.9645 36.4468C85.9645 37.4681 85.7234 38.3405 85.2411 39.0071C84.7589 39.6738 84.1631 40 83.4539 40C83.2057 40 82.9503 39.9575 82.695 39.8724C82.4397 39.7873 82.1773 39.6454 81.9078 39.4468V42.7731H81.0709V39.4468C80.9716 39.5178 80.8723 39.5887 80.7659 39.6454C80.6596 39.7093 80.5603 39.7589 80.461 39.8086C80.2979 39.8653 80.1418 39.9078 79.9929 39.9362C79.844 39.9646 79.6879 39.9859 79.539 39.9859C78.8652 39.9859 78.2766 39.6738 77.7659 39.0497C77.2624 38.4327 77.0071 37.5674 77.0071 36.4539C77.0071 35.4256 77.2482 34.5674 77.7305 33.8866C78.2128 33.2057 78.8085 32.8653 79.5106 32.8724C79.7589 32.8724 80.0142 32.922 80.2766 33.0213C80.539 33.1206 80.8014 33.2695 81.0709 33.4752V30.5532H81.9078V33.4752V33.4681ZM81.0709 34.1631C80.8369 33.9575 80.6099 33.8085 80.3759 33.7163C80.1489 33.6241 79.9291 33.5816 79.7234 33.5887C79.1986 33.5887 78.7659 33.8511 78.4113 34.383C78.0567 34.9149 77.8865 35.6029 77.8865 36.4539C77.8865 37.305 78.0638 37.9929 78.4184 38.5178C78.773 39.0426 79.2128 39.305 79.7518 39.305C79.9574 39.305 80.1702 39.2624 80.3901 39.1702C80.6099 39.0851 80.8369 38.9433 81.0709 38.7447V34.1702V34.1631ZM81.9078 38.7376C82.1418 38.9291 82.3688 39.071 82.5957 39.1632C82.8227 39.2554 83.0354 39.2979 83.2411 39.2979C83.7659 39.2979 84.2057 39.0355 84.5603 38.5107C84.9149 37.9858 85.0922 37.2979 85.0922 36.4468C85.0922 35.5958 84.9149 34.9078 84.5674 34.3759C84.2198 33.844 83.773 33.5816 83.2411 33.5887C83.0354 33.5887 82.8227 33.6312 82.5957 33.7234C82.3688 33.8085 82.1418 33.9575 81.9078 34.1631V38.7376Z" fill="#1F1E21"/>
<path d="M89.3049 36.6878C89.2907 37.3616 89.5105 37.9715 89.9361 38.5105C90.3687 39.0495 90.9786 39.319 91.7659 39.319C92.0354 39.319 92.319 39.2765 92.624 39.1914C92.929 39.1063 93.2552 38.9786 93.6027 38.8155V39.5885C93.3758 39.6878 93.1346 39.7658 92.8935 39.8226C92.6524 39.8793 92.4112 39.9219 92.1772 39.9502C92.0992 39.9573 92.0141 39.9644 91.9361 39.9715C91.858 39.9715 91.78 39.9786 91.6949 39.9786C90.8439 39.9786 90.085 39.6949 89.4183 39.1417C88.7517 38.5814 88.4183 37.6453 88.4183 36.3332C88.4183 35.3616 88.6807 34.546 89.1985 33.9006C89.7162 33.2552 90.4467 32.929 91.39 32.929C92.2056 32.929 92.8013 33.1346 93.1772 33.5318C93.5531 33.9361 93.8084 34.3758 93.9432 34.858C94.0212 35.163 94.0708 35.4538 94.0921 35.7304C94.1134 36.007 94.1205 36.241 94.1205 36.4254V36.6949H89.3049V36.6878ZM93.241 35.9857C93.2481 35.8509 93.241 35.702 93.241 35.5389C93.2268 35.3758 93.1914 35.2055 93.1417 35.0282C93.0566 34.6807 92.8793 34.3616 92.6169 34.0708C92.3545 33.78 91.9502 33.6311 91.3971 33.6311C90.8013 33.6311 90.3403 33.8155 90.0212 34.1701C89.6949 34.5318 89.4893 34.9219 89.39 35.3616C89.3616 35.468 89.3403 35.5743 89.3332 35.6807C89.319 35.7871 89.3119 35.8864 89.3119 35.9857H93.2481H93.241Z" fill="#1F1E21"/>
<path d="M101.574 33.9644C101.433 33.9076 101.284 33.8651 101.121 33.8225C100.957 33.78 100.794 33.7445 100.631 33.7232C100.518 33.6949 100.397 33.6807 100.284 33.6665C100.17 33.6594 100.057 33.6523 99.9503 33.6523C99.1631 33.6523 98.5461 33.9218 98.1135 34.4608C97.6808 34.9998 97.461 35.6594 97.461 36.4466C97.461 37.2339 97.695 37.8935 98.156 38.4396C98.617 38.9856 99.2695 39.2552 100.113 39.2552C100.191 39.2552 100.277 39.2552 100.355 39.2552C100.44 39.2552 100.525 39.241 100.603 39.2268C100.773 39.2055 100.936 39.1771 101.106 39.1275C101.277 39.0849 101.433 39.0353 101.589 38.9857L101.667 39.702C101.482 39.7658 101.284 39.8155 101.085 39.8509C100.887 39.8935 100.681 39.9218 100.482 39.936C100.418 39.936 100.355 39.936 100.291 39.936C100.227 39.936 100.156 39.9431 100.085 39.9431C98.9574 39.9431 98.0922 39.5885 97.4893 38.8722C96.8865 38.163 96.5815 37.3474 96.5815 36.4466C96.5815 36.3757 96.5815 36.3048 96.5815 36.2339C96.5815 36.163 96.5957 36.092 96.6028 36.0211C96.6808 35.2481 96.9858 34.5459 97.5177 33.9076C98.0496 33.2693 98.8723 32.9502 99.9787 32.9502C100.227 32.9502 100.489 32.9715 100.766 33.014C101.043 33.0566 101.319 33.1204 101.603 33.2197L101.56 33.9644H101.574Z" fill="#1F1E21"/>
<path d="M108.986 33.9644C108.844 33.9076 108.695 33.8651 108.532 33.8225C108.369 33.78 108.206 33.7445 108.043 33.7232C107.929 33.6949 107.809 33.6807 107.695 33.6665C107.582 33.6594 107.468 33.6523 107.362 33.6523C106.574 33.6523 105.957 33.9218 105.525 34.4608C105.085 34.9998 104.872 35.6594 104.872 36.4466C104.872 37.2339 105.106 37.8935 105.567 38.4396C106.028 38.9856 106.681 39.2552 107.525 39.2552C107.603 39.2552 107.688 39.2552 107.773 39.2552C107.858 39.2552 107.943 39.241 108.021 39.2268C108.191 39.2055 108.362 39.1771 108.525 39.1275C108.695 39.0849 108.851 39.0353 109.007 38.9857L109.085 39.702C108.901 39.7658 108.702 39.8155 108.504 39.8509C108.305 39.8935 108.099 39.9218 107.901 39.936C107.837 39.936 107.773 39.936 107.709 39.936C107.645 39.936 107.574 39.9431 107.504 39.9431C106.376 39.9431 105.511 39.5885 104.908 38.8722C104.305 38.163 104 37.3474 104 36.4466C104 36.3757 104 36.3048 104 36.2339C104 36.163 104.014 36.092 104.021 36.0211C104.099 35.2481 104.404 34.5459 104.936 33.9076C105.468 33.2693 106.291 32.9502 107.397 32.9502C107.645 32.9502 107.908 32.9715 108.177 33.014C108.454 33.0566 108.73 33.1204 109.014 33.2197L108.972 33.9644H108.986Z" fill="#1F1E21"/>
<path d="M112.709 33.0356V38.0427L112.695 38.7591H112.738L113.191 38.0215L116.716 33.0356H117.645V39.8654H116.808V34.8583L116.823 34.142H116.78L116.326 34.8583L112.801 39.8654H111.872V33.0356H112.709Z" fill="#1F1E21"/>
<path d="M121.44 33.9644C121.972 33.2694 122.759 32.929 123.794 32.929C124.83 32.929 125.617 33.2765 126.149 33.9644C126.681 34.6524 126.95 35.4821 126.95 36.4538C126.95 37.4254 126.681 38.2339 126.149 38.9219C125.61 39.6098 124.83 39.9573 123.801 39.9573C122.773 39.9573 121.986 39.6098 121.454 38.9219C120.922 38.2339 120.652 37.4112 120.652 36.4538C120.652 35.4963 120.915 34.6594 121.454 33.9644H121.44ZM121.546 36.8793C121.567 37.0283 121.589 37.1772 121.624 37.3332C121.738 37.8155 121.965 38.2552 122.312 38.6594C122.652 39.0637 123.149 39.2623 123.794 39.2623C124.44 39.2623 124.936 39.0637 125.277 38.6594C125.617 38.2552 125.844 37.8155 125.957 37.3332C125.993 37.1843 126.021 37.0353 126.035 36.8793C126.057 36.7304 126.064 36.5885 126.064 36.4538C126.064 36.319 126.064 36.1843 126.035 36.0353C126.014 35.8864 125.993 35.7375 125.957 35.5885C125.851 35.1063 125.631 34.6523 125.284 34.2481C124.943 33.8367 124.447 33.6311 123.787 33.6311C123.128 33.6311 122.631 33.8367 122.291 34.2481C121.95 34.6523 121.723 35.1063 121.617 35.5885C121.582 35.7375 121.553 35.8864 121.539 36.0353C121.518 36.1772 121.511 36.319 121.511 36.4538C121.511 36.5885 121.518 36.7304 121.539 36.8793H121.546Z" fill="#1F1E21"/>
<path d="M130.78 33.0356V35.9647H134.482V33.0356H135.319V39.8654H134.482V36.6739H130.78V39.8654H129.943V33.0356H130.78Z" fill="#1F1E21"/>
<path d="M139.064 33.3758C139.269 33.2906 139.482 33.2126 139.716 33.1488C139.943 33.085 140.177 33.0353 140.411 32.9999C140.525 32.9786 140.645 32.9644 140.759 32.9573C140.872 32.9502 140.986 32.9431 141.106 32.9431C141.901 32.9431 142.454 33.1062 142.78 33.4183C143.106 33.7375 143.319 34.0921 143.418 34.468C143.461 34.6453 143.489 34.8226 143.496 34.9857C143.503 35.1559 143.511 35.3048 143.511 35.4538V38.3545L143.546 39.8438H142.801V38.6878H142.773C142.596 39.014 142.383 39.2694 142.121 39.4608C141.865 39.6452 141.596 39.7729 141.326 39.8509C141.191 39.8793 141.064 39.9006 140.936 39.9148C140.808 39.9289 140.681 39.9431 140.56 39.9431C139.844 39.9431 139.291 39.7587 138.901 39.3828C138.518 39.007 138.319 38.546 138.319 37.9857C138.319 37.858 138.333 37.7304 138.355 37.5885C138.376 37.4467 138.411 37.2977 138.468 37.1488C138.617 36.78 138.929 36.4467 139.39 36.1417C139.858 35.8367 140.617 35.6807 141.674 35.6807H142.674V35.2552C142.674 35.1913 142.674 35.1275 142.66 35.0708C142.631 34.7162 142.518 34.3899 142.319 34.092C142.121 33.7942 141.716 33.6453 141.099 33.6453C140.922 33.6453 140.745 33.6523 140.582 33.6807C140.411 33.702 140.248 33.7375 140.092 33.78C139.922 33.8226 139.752 33.8793 139.589 33.9431C139.418 34.0069 139.248 34.0779 139.071 34.1701V33.3687L139.064 33.3758ZM142.227 36.397H141.738C141.099 36.4183 140.518 36.5176 139.986 36.7091C139.454 36.9006 139.191 37.3261 139.191 37.9786C139.191 38.3332 139.312 38.6382 139.567 38.8864C139.816 39.1346 140.177 39.2552 140.66 39.2552C141.206 39.2552 141.61 39.1346 141.886 38.8864C142.163 38.6382 142.355 38.3616 142.475 38.0566C142.567 37.8013 142.631 37.5601 142.645 37.3332C142.667 37.1062 142.674 36.9573 142.674 36.8864V36.3899H142.234L142.227 36.397Z" fill="#1F1E21"/>
<path d="M152.078 33.0356V39.8654H151.241V33.7449H148.369V35.7307C148.383 36.7945 148.326 37.7661 148.199 38.6456C148.071 39.525 147.589 39.9647 146.752 39.9647C146.61 39.9647 146.482 39.9647 146.362 39.9505C146.241 39.9364 146.135 39.9222 146.035 39.8867L146.05 39.1775C146.135 39.2059 146.22 39.22 146.291 39.2342C146.362 39.2413 146.425 39.2484 146.489 39.2484C146.702 39.2484 146.865 39.1988 146.986 39.0995C147.106 39.0002 147.199 38.8938 147.269 38.7803C147.305 38.7094 147.333 38.6385 147.355 38.5746C147.376 38.5108 147.39 38.4541 147.404 38.4044C147.454 38.1775 147.496 37.8229 147.532 37.3548C147.567 36.8867 147.582 36.0711 147.582 34.9222V33.0427H152.078V33.0356Z" fill="#1F1E21"/>
<path d="M156.106 33.0357V35.7236H157.73C158.681 35.7236 159.355 35.9364 159.745 36.3619C160.142 36.7874 160.34 37.2626 160.34 37.7874C160.34 37.9009 160.326 38.0286 160.305 38.1704C160.284 38.3123 160.234 38.4612 160.163 38.6101C160.028 38.9222 159.78 39.2059 159.425 39.4683C159.064 39.7307 158.518 39.8584 157.78 39.8584H155.269V33.0286H156.106V33.0357ZM156.106 39.1562H157.879C157.964 39.1562 158.071 39.1491 158.184 39.135C158.298 39.1208 158.418 39.0995 158.546 39.064C158.78 38.9931 158.986 38.8584 159.177 38.674C159.369 38.4825 159.461 38.1846 159.461 37.7874C159.461 37.2981 159.312 36.9506 159.007 36.7449C158.702 36.5392 158.326 36.4328 157.872 36.4328H156.099V39.1633L156.106 39.1562Z" fill="#1F1E21"/>
<path d="M164.17 33.0356V35.9647H167.872V33.0356H168.709V39.8654H167.872V36.6739H164.17V39.8654H163.333V33.0356H164.17Z" fill="#1F1E21"/>
<path d="M173.014 33.0357V35.7236H174.638C175.589 35.7236 176.262 35.9364 176.652 36.3619C177.05 36.7874 177.241 37.2626 177.241 37.7874C177.241 37.9009 177.227 38.0286 177.206 38.1704C177.184 38.3123 177.135 38.4612 177.064 38.6101C176.936 38.9222 176.688 39.2059 176.326 39.4683C175.965 39.7307 175.418 39.8584 174.681 39.8584H172.163V33.0286H173L173.014 33.0357ZM173.014 39.1562H174.78C174.865 39.1562 174.972 39.1491 175.092 39.135C175.213 39.1208 175.333 39.0924 175.461 39.0499C175.688 38.9789 175.901 38.8513 176.085 38.6598C176.269 38.4683 176.369 38.1775 176.369 37.7874C176.369 37.3052 176.213 36.9647 175.894 36.752C175.582 36.5392 175.206 36.4328 174.78 36.4328H173.014V39.1633V39.1562ZM179.135 33.0357V39.8655H178.298V33.0357H179.135Z" fill="#1F1E21"/>
<path d="M183.433 33.0355V38.0426L183.418 38.7589H183.461L183.915 38.0213L187.44 33.0355H188.369V39.8653H187.532V34.8582L187.546 34.1419H187.503L187.05 34.8582L183.525 39.8653H182.596V33.0355H183.433ZM183.936 29.9646C184 30.0355 184.057 30.0994 184.121 30.1632C184.184 30.227 184.241 30.2766 184.305 30.3263C184.511 30.4965 184.716 30.6029 184.915 30.6525C185.121 30.7022 185.305 30.7234 185.475 30.7234C185.645 30.7234 185.83 30.7022 186.035 30.6525C186.241 30.6029 186.44 30.4965 186.645 30.3263C186.709 30.2837 186.766 30.227 186.83 30.1632C186.894 30.0994 186.957 30.0355 187.014 29.9646L187.411 30.4327C187.199 30.7235 186.922 30.9717 186.596 31.1703C186.262 31.3688 185.886 31.4681 185.468 31.4681C185.05 31.4681 184.688 31.3688 184.347 31.1703C184.007 30.9717 183.738 30.7235 183.525 30.4327L183.922 29.9646H183.936Z" fill="#1F1E21"/>
<path d="M198.667 33.0357V36.0427H198.709L201.837 33.0357H202.915L199.56 36.213L203.27 39.8584H202.085L198.709 36.4754H198.667V39.8584H197.83V33.0286H198.667V33.0357Z" fill="#1F1E21"/>
<path d="M205.787 42.7729V34.3474L205.73 33.0283H206.525V34.4396H206.567C206.752 33.9503 207.057 33.5814 207.468 33.319C207.879 33.0637 208.312 32.929 208.766 32.9219H208.83C209.596 32.9219 210.248 33.2127 210.801 33.7871C211.355 34.3616 211.624 35.2481 211.624 36.4396C211.624 37.6311 211.376 38.4325 210.879 38.9573C210.383 39.4893 209.837 39.7942 209.241 39.8935C209.149 39.9148 209.057 39.9219 208.957 39.9361C208.858 39.9432 208.766 39.9502 208.681 39.9502C208.191 39.9502 207.773 39.8226 207.433 39.5602C207.085 39.2978 206.823 38.9857 206.631 38.6311H206.589L206.617 39.8297V42.7729H205.78H205.787ZM207.255 38.5531C207.674 39.0212 208.156 39.2552 208.688 39.2552C208.73 39.2552 208.78 39.2552 208.83 39.2552C208.879 39.2552 208.929 39.2481 208.979 39.2339C209.425 39.163 209.83 38.9077 210.199 38.4538C210.567 38.007 210.752 37.3332 210.752 36.4396C210.752 35.546 210.574 34.9148 210.213 34.468C209.858 34.0283 209.461 33.7588 209.035 33.6736C208.972 33.6524 208.915 33.6453 208.858 33.6382C208.801 33.6382 208.745 33.6382 208.688 33.6382C208.645 33.6382 208.596 33.6382 208.546 33.6382C208.496 33.6382 208.447 33.6524 208.397 33.6595C207.957 33.7304 207.546 33.9928 207.177 34.4396C206.808 34.8864 206.624 35.5531 206.624 36.4467C206.624 37.3829 206.837 38.0921 207.255 38.5602V38.5531Z" fill="#1F1E21"/>
<path d="M214.972 36.6878C214.965 37.3616 215.177 37.9715 215.603 38.5105C216.035 39.0495 216.645 39.319 217.433 39.319C217.695 39.319 217.986 39.2765 218.291 39.1914C218.596 39.1063 218.922 38.9786 219.269 38.8155V39.5885C219.043 39.6878 218.801 39.7658 218.56 39.8226C218.319 39.8793 218.085 39.9219 217.844 39.9502C217.766 39.9573 217.688 39.9644 217.603 39.9715C217.525 39.9715 217.44 39.9786 217.362 39.9786C216.511 39.9786 215.752 39.6949 215.085 39.1417C214.418 38.5814 214.085 37.6453 214.085 36.3332C214.085 35.3616 214.347 34.546 214.865 33.9006C215.383 33.2552 216.113 32.929 217.057 32.929C217.872 32.929 218.468 33.1346 218.844 33.5318C219.22 33.9361 219.475 34.3758 219.61 34.858C219.688 35.163 219.738 35.4538 219.759 35.7304C219.78 36.007 219.787 36.241 219.787 36.4254V36.6949H214.972V36.6878ZM218.908 35.9857C218.915 35.8509 218.908 35.702 218.901 35.5389C218.887 35.3758 218.851 35.2055 218.801 35.0282C218.709 34.6807 218.539 34.3616 218.277 34.0708C218.014 33.78 217.61 33.6311 217.057 33.6311C216.461 33.6311 216 33.8155 215.681 34.1701C215.355 34.5318 215.149 34.9219 215.05 35.3616C215.021 35.468 215 35.5743 214.993 35.6807C214.979 35.7871 214.972 35.8864 214.972 35.9857H218.908Z" fill="#1F1E21"/>
<path d="M227.957 33.0356V39.8654H227.121V33.7449H223.553V39.8654H222.716V33.0356H227.957Z" fill="#1F1E21"/>
<path d="M231.766 36.6878C231.759 37.3616 231.972 37.9715 232.397 38.5105C232.83 39.0495 233.44 39.319 234.227 39.319C234.489 39.319 234.78 39.2765 235.085 39.1914C235.39 39.1063 235.716 38.9786 236.064 38.8155V39.5885C235.83 39.6878 235.596 39.7658 235.355 39.8226C235.113 39.8793 234.872 39.9219 234.638 39.9502C234.56 39.9573 234.482 39.9644 234.397 39.9715C234.319 39.9715 234.241 39.9786 234.156 39.9786C233.305 39.9786 232.546 39.6949 231.879 39.1417C231.213 38.5814 230.879 37.6453 230.879 36.3332C230.879 35.3616 231.135 34.546 231.66 33.9006C232.177 33.2552 232.908 32.929 233.851 32.929C234.667 32.929 235.262 33.1346 235.638 33.5318C236.014 33.9361 236.269 34.3758 236.404 34.858C236.482 35.163 236.532 35.4538 236.553 35.7304C236.574 36.007 236.582 36.241 236.582 36.4254V36.6949H231.766V36.6878ZM235.709 35.9857C235.716 35.8509 235.709 35.702 235.709 35.5389C235.695 35.3758 235.66 35.2055 235.61 35.0282C235.525 34.6807 235.347 34.3616 235.085 34.0708C234.823 33.78 234.418 33.6311 233.872 33.6311C233.277 33.6311 232.816 33.8155 232.489 34.1701C232.163 34.5318 231.957 34.9219 231.858 35.3616C231.83 35.468 231.808 35.5743 231.794 35.6807C231.78 35.7871 231.773 35.8864 231.773 35.9857H235.716H235.709Z" fill="#1F1E21"/>
<path d="M243.794 33.0356V36.1208H243.858L246.83 33.0356H247.851L244.723 36.213L248.234 39.8583H247.035L243.851 36.4257H243.787V39.8583H242.95V36.4257H242.886L239.709 39.8583H238.511L242.021 36.213L238.894 33.0356H239.922L242.886 36.1208H242.95V33.0356H243.787H243.794Z" fill="#1F1E21"/>
</g>
<defs>
<clipPath id="clip0_6058_2">
<rect width="250" height="43" fill="white"/>
</clipPath>
</defs>
</svg>
