<svg width="96" height="33" viewBox="0 0 96 33" fill="none" xmlns="http://www.w3.org/2000/svg">
<path d="M13.2781 18.2699L13.6251 16.6069C13.9952 16.63 14.2728 16.6531 14.481 16.6762C14.666 16.6993 14.828 16.6993 14.9667 16.6993C16.4704 16.6993 17.6501 16.1449 18.4829 15.0363C19.3388 13.9276 19.7552 12.4032 19.7552 10.463C19.7552 7.99162 19.2694 6.14384 18.2978 4.94278C17.3263 3.74173 15.8458 3.1412 13.8333 3.1412C13.7407 3.1412 13.5557 3.1412 13.2781 3.1643C13.0005 3.1874 12.6304 3.21049 12.1908 3.27979C12.1446 4.20367 12.1214 5.12756 12.0983 6.07455C12.0752 7.02153 12.0752 8.22259 12.0752 9.70081V21.388C12.0752 25.3145 12.4222 27.7859 13.093 28.8253C13.7639 29.8416 15.0361 30.3959 16.8867 30.4883V31.8972C15.4988 31.8972 14.0877 31.8048 12.6304 31.6201C11.173 31.4353 9.6694 31.135 8.11952 30.7424C6.45398 31.0888 4.97349 31.366 3.65494 31.5508C2.33638 31.7356 1.13349 31.851 0.0231322 31.8972L0 30.4883C1.61928 30.3035 2.70651 29.7261 3.30795 28.7329C3.88626 27.7397 4.18699 25.4531 4.18699 21.873V19.4247V11.5948C4.18699 7.94542 3.88626 5.58951 3.30795 4.55013C2.72964 3.51076 1.61928 2.86404 0.0231322 2.63306L0.0462644 1.22413C1.34169 1.29343 2.59084 1.40891 3.7706 1.59369C4.95036 1.77847 6.08386 2.00944 7.17108 2.2866C8.65157 1.89395 10.1089 1.59369 11.5663 1.40891C13.0005 1.22413 14.481 1.13174 15.9383 1.13174C20.0559 1.13174 23.1325 1.82466 25.1913 3.1874C27.2501 4.57323 28.268 6.62888 28.268 9.40055C28.268 12.2184 27.2039 14.4819 25.0525 16.168C22.9012 17.8541 20.0559 18.7087 16.4704 18.7087C15.7995 18.7087 15.2212 18.6625 14.6892 18.6163C14.1571 18.547 13.6945 18.4316 13.2781 18.2699Z" fill="white"/>
<path d="M53.714 10.5786L55.0556 11.3408C54.9168 12.4032 54.8012 13.4657 54.7318 14.5282C54.6393 15.5906 54.6161 16.6762 54.6161 17.7387V22.5429C54.6161 24.8064 54.8243 26.4001 55.2638 27.324C55.7034 28.2479 56.4436 28.7099 57.4614 28.7099C57.5771 28.7099 57.7621 28.6868 58.0629 28.6637C58.2017 28.6406 58.3173 28.6406 58.4099 28.6175L58.6643 30.2112C57.8084 30.4422 56.86 30.6269 55.8421 30.7193C54.8243 30.8348 53.6677 30.881 52.3954 30.881H51.632C51.1462 31.1351 50.753 31.366 50.406 31.5739C50.059 31.7818 49.7583 32.0128 49.4807 32.2206L48.0928 31.4353C47.954 30.9965 47.8614 30.5114 47.792 30.0033C47.7226 29.4952 47.6995 28.8715 47.6995 28.1786C47.098 29.4721 46.1034 30.4883 44.7154 31.2275C43.3043 31.9435 41.6388 32.313 39.6956 32.313C37.0817 32.313 35.2079 31.5739 34.0976 30.1188C32.9872 28.6637 32.432 26.0537 32.432 22.335V19.6558C32.432 17.2536 32.247 15.7985 31.9 15.2442C31.553 14.6899 30.8359 14.3896 29.7949 14.3665V12.9576C30.8359 12.7728 31.9 12.6342 32.9409 12.5649C34.005 12.4725 35.0923 12.4263 36.2026 12.4263C36.5959 12.1261 36.9891 11.8258 37.4055 11.5486C37.8219 11.2715 38.2846 10.9943 38.7935 10.7402L40.1583 11.5255C40.0426 12.3801 39.9501 13.3964 39.8807 14.5513C39.8344 15.7292 39.7882 17.3691 39.7882 19.4941V21.7345C39.7882 24.5755 40.0426 26.5387 40.5747 27.6012C41.1067 28.6637 41.9858 29.218 43.258 29.218C44.5766 29.218 45.5713 28.6868 46.2653 27.6012C46.9593 26.5156 47.3294 24.9681 47.3294 22.9587V19.7943C47.3294 17.2536 47.1443 15.683 46.7973 15.0825C46.4272 14.482 45.7332 14.1817 44.7154 14.1586V12.7035C45.5944 12.5649 46.4966 12.4494 47.445 12.3801C48.3935 12.3108 49.365 12.2646 50.3597 12.2646H51.0768C51.4701 11.9413 51.8633 11.641 52.2797 11.3639C52.7424 11.1329 53.205 10.8557 53.714 10.5786Z" fill="white"/>
<path d="M60.0519 31.8973L60.0288 30.4421C61.2548 30.3497 62.0876 29.9571 62.504 29.2642C62.9204 28.5713 63.1286 26.7004 63.1286 23.6516V23.2589V14.8746H60.3527V13.0961H60.5146C62.0876 13.0961 62.9666 12.1722 63.1286 10.3014C63.1517 9.90871 63.1748 9.60844 63.2211 9.37747C63.545 6.42103 64.6322 4.1344 66.5059 2.4714C68.3565 0.831501 70.7623 0 73.7233 0C75.1806 0 76.3835 0.323362 77.3319 0.970084C78.2804 1.61681 78.743 2.4483 78.743 3.44149C78.743 4.22679 78.4423 4.82732 77.8177 5.26617C77.1931 5.70501 76.3141 5.95908 75.1575 6.00528C74.9724 4.85041 74.6023 3.94962 74.0934 3.27981C73.5845 2.63308 72.9368 2.30972 72.2196 2.30972C71.5025 2.30972 70.9474 2.58689 70.531 3.14122C70.1146 3.69556 69.9064 4.45776 69.9064 5.42785C69.9064 5.63572 69.9989 6.51342 70.1609 8.03783C70.3228 9.56225 70.4153 11.0174 70.4616 12.357L76.129 12.2877V14.9439L70.4616 14.8284V23.8594C70.4616 26.7928 70.716 28.5944 71.225 29.2642C71.7339 29.934 72.7748 30.3266 74.3016 30.3959L74.2784 31.8511C73.1912 31.8049 72.0346 31.7125 70.8086 31.5277C69.5825 31.3429 68.2409 31.1119 66.8298 30.7886C65.5806 31.1119 64.4009 31.3429 63.2905 31.5277C62.1339 31.7356 61.0466 31.8511 60.0519 31.8973Z" fill="white"/>
<path d="M77.3088 31.8973L77.2856 30.4421C78.5117 30.3497 79.3444 29.9571 79.7608 29.2642C80.1772 28.5713 80.3854 26.7004 80.3854 23.6516V23.2589V14.8746H77.6095V13.0961H77.7714C79.3444 13.0961 80.2235 12.1722 80.3854 10.3014C80.4085 9.90871 80.4317 9.60844 80.4779 9.37747C80.8018 6.42103 81.889 4.1344 83.7628 2.4714C85.6134 0.831501 88.0191 0 90.9801 0C92.4375 0 93.6404 0.323362 94.5888 0.970084C95.5372 1.61681 95.9999 2.4483 95.9999 3.44149C95.9999 4.22679 95.6991 4.82732 95.0746 5.26617C94.45 5.70501 93.571 5.95908 92.4143 6.00528C92.2293 4.85041 91.8591 3.94962 91.3502 3.27981C90.8413 2.63308 90.1936 2.30972 89.4765 2.30972C88.7594 2.30972 88.2042 2.58689 87.7878 3.14122C87.3714 3.69556 87.1632 4.45776 87.1632 5.42785C87.1632 5.63572 87.2558 6.51342 87.4177 8.03783C87.5796 9.56225 87.6722 11.0174 87.7184 12.357L93.3859 12.2877V14.9439L87.7184 14.8284V23.8594C87.7184 26.7928 87.9729 28.5944 88.4818 29.2642C88.9907 29.934 90.0317 30.3266 91.5584 30.3959L91.5353 31.8511C90.4481 31.8049 89.2914 31.7125 88.0654 31.5277C86.8394 31.3429 85.4977 31.1119 84.0866 30.7886C82.8375 31.1119 81.6577 31.3429 80.5473 31.5277C79.3907 31.7356 78.3266 31.8511 77.3088 31.8973Z" fill="white"/>
</svg>
