<svg id="Ebene_1" data-name="Ebene 1" xmlns="http://www.w3.org/2000/svg" width="283.53243" height="90.0627" viewBox="0 0 283.53243 90.0627"><g id="REHAU"><path d="M20.3324,4.06269c-5.6,2.9-11.3,5.9-16,10.8-4.4,4.5-5.6,12.2-2.9,18a62.21447,62.21447,0,0,0,11,15.4A62.2002,62.2002,0,0,1,20.3324,4.06269Z" fill="#37a58c"/><path d="M15.7324,51.1627c5.5,3.5,10.9,6.8,17.2,8.3,6.9,1.6,13.4-1.3,17.5-6.8a70.19643,70.19643,0,0,0,7.5-16.8A63.00631,63.00631,0,0,1,15.7324,51.1627Z" fill="#dd0661"/><path d="M56.83241,8.7627a16.88269,16.88269,0,0,0-13.3-8.7,66.09733,66.09733,0,0,0-18.5,1.9c13.7,4.4,27.3,15.8,34.3,28.9C59.6324,23.2627,60.0324,15.1627,56.83241,8.7627Z" fill="#4f4f4f"/><path d="M176.53242,30.8627v24.4h-7v-24.4h-16.1v59.1h16.1v-24.5h6.9v24.5h16.1v-59.1Z" fill="#010101"/><path d="M208.13243,30.8627c-5.1,0-8.6,4.4-8.6,9.7v49.4h16v-24.5h6.5v24.5h15.9v-59.1Zm13.9,24.4h-6.5v-12c0-2.2.8-3,2.8-3h3.7Z" fill="#010101"/><path d="M104.4324,60.0627c3.7-.4,8-4.3,8-9.5v-10c-.1-5.4-4.1-9.7-8.3-9.7h-30.5v59.1h15.9v-24.5h4c1.9,0,2.8.9,2.8,3.1v21.5h16.1v-20.3C112.4324,64.4627,108.23241,60.4627,104.4324,60.0627Zm-8.1-7.8c.1,1.8-.7,2.8-2,3h-4.7v-15h4c2,0,2.8,1,2.8,3Z" fill="#010101"/><path d="M135.53241,42.2627h11v-11.4h-27.1v59.1h27.1v-11.4h-11v-13.1h9.3v-10.2h-9.3Z" fill="#010101"/><path d="M282.43242,84.06271a17.97037,17.97037,0,0,0,1.1-7.1v-46h-15.7v45.6a3.22931,3.22931,0,0,1-3.5,3.3h-.1a3.27965,3.27965,0,0,1-3.5-3.3v-45.6h-15.7v46a17.11747,17.11747,0,0,0,1.1,7.1,10.40577,10.40577,0,0,0,6.7,5.6,18.04241,18.04241,0,0,0,4.3.3h14.4a26.28767,26.28767,0,0,0,4.3-.3A10.8235,10.8235,0,0,0,282.43242,84.06271Z" fill="#010101"/></g></svg>