<svg width="163" height="52" viewBox="0 0 163 52" fill="none" xmlns="http://www.w3.org/2000/svg">
<g clip-path="url(#clip0_5928_28874)">
<path d="M0 51.5002C0 44.3543 8.83133 36.0003 8.83133 36.0003C7.61994 35.928 4.81989 35.9303 3.31079 36.5169C4.67463 32.9003 14.8107 20.3658 14.8107 20.3658C13.4323 20.3658 8.60804 22.4427 8.60804 22.4427C9.50709 21.088 13.8468 15.6534 17.9743 11.5005C19.9544 9.50824 21.8856 7.81096 23.3647 7.00049C27.0638 9.00047 34.1952 19.0867 36.8646 22.4427C33.4187 20.3658 30.6619 20.3658 30.6619 20.3658C33.4187 23.4811 39.6213 30.2311 42.3781 37.5003C40.0436 36.7003 37.1821 35.4781 36.0431 34.9669C36.0431 34.9669 45.59 43.7502 48.9996 51.5002C45.1252 51.7001 40.7637 50.7989 39.0673 50.3233C20.5617 54.4067 13.0224 49.8129 8.91008 49.3025C4.79774 48.7921 0 51.5002 0 51.5002Z" fill="url(#paint0_radial_5928_28874)"/>
<path d="M8.83133 36.0003C8.83133 36.0003 0 44.3543 0 51.5002C0 51.5002 4.79774 48.7921 8.91008 49.3025C13.0224 49.8129 20.5617 54.4067 39.0673 50.3233M8.83133 36.0003C7.61994 35.928 4.81989 35.9303 3.31079 36.5169C4.67463 32.9003 14.8107 20.3658 14.8107 20.3658M8.83133 36.0003C18.9999 38.5002 19.4999 47.5002 39.0673 50.3233M39.0673 50.3233C40.7637 50.7989 45.1252 51.7001 48.9996 51.5002C45.59 43.7502 36.0431 34.9669 36.0431 34.9669M14.8107 20.3658C13.4323 20.3658 8.60804 22.4427 8.60804 22.4427C9.50709 21.088 13.8468 15.6534 17.9743 11.5005M14.8107 20.3658C15.7388 26.4122 20.9204 30.3483 36.0431 34.9669M36.0431 34.9669C37.1821 35.4781 40.0436 36.7003 42.3781 37.5003C39.6213 30.2311 33.4187 23.4811 30.6619 20.3658M30.6619 20.3658C30.6619 20.3658 33.4187 20.3658 36.8646 22.4427C34.1952 19.0867 27.0638 9.00047 23.3647 7.00049C21.8856 7.81096 19.9544 9.50824 17.9743 11.5005M30.6619 20.3658C27.7576 20.5773 21.1539 19.1004 17.9743 11.5005" stroke="#224386" stroke-width="1.00192" stroke-linecap="round" stroke-linejoin="round"/>
<circle cx="13.0038" cy="38.0029" r="2.50481" fill="#FF475C" stroke="#224386" stroke-width="1.00192" stroke-linecap="round" stroke-linejoin="round"/>
<circle cx="24.0043" cy="19.0034" r="2.50481" fill="#8EFFF6" stroke="#224386" stroke-width="1.00192" stroke-linecap="round" stroke-linejoin="round"/>
<circle cx="19.0038" cy="27.0038" r="2.50481" fill="#FECC00" stroke="#224386" stroke-width="1.00192" stroke-linecap="round" stroke-linejoin="round"/>
<circle cx="29.0038" cy="33.0043" r="2.50481" fill="#FF475C" stroke="#224386" stroke-width="1.00192" stroke-linecap="round" stroke-linejoin="round"/>
<circle cx="21.0038" cy="43.0034" r="2.50481" fill="#8EFFF6" stroke="#224386" stroke-width="1.00192" stroke-linecap="round" stroke-linejoin="round"/>
<circle cx="30.0034" cy="48.0043" r="2.50481" fill="#FECC00" stroke="#224386" stroke-width="1.00192" stroke-linecap="round" stroke-linejoin="round"/>
<path fill-rule="evenodd" clip-rule="evenodd" d="M23.3095 7.49994L20.3706 9.04502L20.9319 5.7725L18.5543 3.45489L21.8401 2.97744L23.3095 0L24.779 2.97744L28.0648 3.45489L25.6872 5.7725L26.2484 9.04502L23.3095 7.49994Z" fill="#FECC00" stroke="#224386" stroke-width="0.999992" stroke-linecap="round" stroke-linejoin="round"/>
<path d="M65.9823 50.9642C65.799 50.6401 65.6337 50.3029 65.4303 49.992C63.2153 46.6154 60.9915 43.2455 58.7766 39.8689C56.8969 37.0048 55.0306 34.1341 53.1532 31.27C51.8457 29.2751 50.5315 27.2869 49.2218 25.2964C49.195 25.257 49.1838 25.2088 49.1301 25.084C49.3514 25.0731 49.5392 25.0556 49.7269 25.0556C52.5922 25.0534 55.4598 25.0928 58.3251 25.0424C60.2226 25.0096 62.0688 24.6592 63.678 23.5797C65.2984 22.4958 66.1835 20.9477 66.4673 19.0755C66.7445 17.2602 66.6998 15.4624 65.8728 13.7567C65.2068 12.3815 64.0669 11.5275 62.6454 11.0064C61.4206 10.5575 60.1444 10.402 58.8369 10.4042C52.6324 10.413 39.5441 10.4158 39.5441 10.4158L39.1753 9.86555C39.1753 9.86555 35.5367 4.41317 33.7106 1.69136C33.619 1.5556 33.2861 1 33.2861 1C33.2861 1 33.5385 1.0016 33.7576 1.0016C37.8879 1.00379 42.0183 1.00379 46.1508 1.00379C52.6593 1.00379 59.1677 1.00379 65.6761 1.00379C66.3355 1.14831 67.0037 1.26437 67.6541 1.44393C70.9933 2.37017 73.5032 4.34529 75.2801 7.25103C76.4378 9.14513 77.048 11.2144 77.419 13.3713C77.7185 15.1165 77.8146 16.8704 77.7364 18.631C77.5754 22.1958 76.3797 25.3577 73.9301 28.0598C72.3186 29.8379 70.287 31.0488 68.3157 32.3539C67.8866 32.6385 67.4574 32.921 66.9814 33.2363C67.3569 33.7969 67.7189 34.3443 68.0855 34.8852C71.5118 39.939 74.9381 44.9929 78.3599 50.0511C78.5499 50.3314 78.6751 50.6555 78.8293 50.9598C74.547 50.9642 70.2646 50.9642 65.9823 50.9642Z" fill="#FEFEFE"/>
<path d="M153.181 20.0394C152.844 21.4736 152.6 22.9386 152.151 24.34C150.908 28.2004 148.503 31.1346 144.668 32.801C142.889 33.574 141.005 33.9878 139.051 34.0272C137.894 34.0513 136.734 34.0316 135.516 34.0316C135.516 39.4446 135.516 44.9342 135.516 50.4479C131.64 50.4479 127.823 50.4479 123.976 50.4479C123.976 42.1335 123.976 33.8345 123.976 25.4742C124.182 25.4742 124.378 25.4742 124.573 25.4742C127.809 25.4742 131.046 25.5158 134.282 25.4567C135.992 25.4261 137.632 25.0078 139.092 24.0619C140.41 23.2079 141.262 22.0167 141.698 20.554C142.207 18.8416 142.254 17.1008 141.76 15.3753C141.128 13.1746 139.639 11.7601 137.458 11.02C136.405 10.663 135.321 10.4901 134.201 10.4922C129.061 10.5032 123.918 10.4966 118.777 10.4966C118.596 10.4966 118.415 10.4966 118.181 10.4966C118.181 7.30403 118.181 4.15522 118.181 1.00642C125.802 1.00642 132.115 1.00772 141.043 1.00642C141.075 1.00642 141.093 1.00627 141.126 1.00641C144.03 1.01924 145.978 2.41221 147.869 4.07858C150.542 6.43471 152.039 9.44118 152.701 12.8703C152.9 13.8972 153.023 14.9395 153.181 15.9731C153.181 17.3285 153.181 18.6839 153.181 20.0394Z" fill="#FEFEFE"/>
<path d="M115.452 1.00635C115.452 4.1442 115.452 7.27986 115.452 10.49C111.341 10.49 107.26 10.49 103.128 10.49C103.128 10.7725 103.128 10.9827 103.128 11.1929C103.128 19.6977 103.125 28.2025 103.134 36.7074C103.134 37.0687 103.043 37.2811 102.716 37.4913C99.2499 39.7248 95.799 41.9802 92.3414 44.2268C92.1939 44.3232 92.033 44.3976 91.8027 44.5268C91.8027 33.1469 91.8027 21.8589 91.8027 10.5163C87.7193 10.5163 83.6851 10.5163 79.6129 10.5163C79.4788 8.97689 78.8485 7.64774 78.131 6.36676C77.0135 4.37631 75.6189 2.60702 73.4263 1.65888C72.7491 1.36546 71.2829 1.10985 71.2829 1.10985C71.2829 1.10985 71.1108 1.03919 71.0415 1.00635C85.8441 1.00635 100.647 1.00635 115.452 1.00635Z" fill="#FEFEFE"/>
<path d="M91.7769 50.9641C91.7813 49.8758 91.8014 48.7875 91.7813 47.6992C91.7724 47.281 91.8886 47.0357 92.273 46.7905C95.8111 44.5241 99.3268 42.2271 102.851 39.9411C102.905 39.906 102.965 39.8841 103.057 39.8403C103.084 39.9192 103.12 39.9739 103.12 40.0286C103.117 43.6745 103.113 47.3204 103.108 50.9641C99.3313 50.9641 95.5541 50.9641 91.7769 50.9641Z" fill="#FECC00"/>
<path d="M51.9219 44.8034C52.6395 44.8034 53.2212 44.2348 53.2212 43.5335C53.2212 42.8322 52.6395 42.2637 51.9219 42.2637C51.2043 42.2637 50.6226 42.8322 50.6226 43.5335C50.6226 44.2348 51.2043 44.8034 51.9219 44.8034Z" fill="#DBE7FF"/>
<path d="M30.8494 19.3536C30.8494 18.7771 30.371 18.3096 29.7811 18.3096C29.1913 18.3096 28.7129 18.7771 28.7129 19.3536C28.7129 19.9301 29.1913 20.3976 29.7811 20.3976C30.371 20.3976 30.8494 19.9301 30.8494 19.3536Z" fill="#DBE7FF"/>
<path d="M51.0754 19.4764C51.0754 18.8326 50.5402 18.3096 49.8814 18.3096C49.2226 18.3096 48.6875 18.8326 48.6875 19.4764C48.6875 20.1203 49.2226 20.6433 49.8814 20.6433C50.5402 20.6433 51.0754 20.1203 51.0754 19.4764Z" fill="#DBE7FF"/>
<path d="M10.8845 33.502C10.8845 32.9255 10.4062 32.458 9.81629 32.458C9.22642 32.458 8.74805 32.9255 8.74805 33.502C8.74805 34.0785 9.22642 34.546 9.81629 34.546C10.4062 34.546 10.8845 34.0785 10.8845 33.502Z" fill="#DBE7FF"/>
<path d="M109.501 15.8219C109.501 15.3564 109.116 14.98 108.64 14.98C108.163 14.98 107.778 15.3564 107.778 15.8219C107.778 16.2875 108.163 16.6639 108.64 16.6639C109.116 16.6639 109.501 16.2875 109.501 15.8219Z" fill="#DBE7FF"/>
<path d="M14.5646 11.6506C14.7944 11.6506 14.9807 11.4643 14.9807 11.2345C14.9807 11.0047 14.7944 10.8184 14.5646 10.8184C14.3347 10.8184 14.1484 11.0047 14.1484 11.2345C14.1484 11.4643 14.3347 11.6506 14.5646 11.6506Z" fill="#DBE7FF"/>
<path d="M16.0457 34.9162C16.0457 34.7002 15.8673 34.5239 15.6464 34.5239C15.4254 34.5239 15.2471 34.6983 15.2471 34.9162C15.2471 35.1341 15.4254 35.3084 15.6464 35.3084C15.8673 35.3084 16.0457 35.1341 16.0457 34.9162Z" fill="#DBE7FF"/>
<path d="M16.6449 4.78484C16.6449 4.43941 16.3646 4.16064 16.0207 4.16064C15.6768 4.16064 15.3965 4.44093 15.3965 4.78484C15.3965 5.12876 15.6768 5.40905 16.0207 5.40905C16.3646 5.40905 16.6449 5.12876 16.6449 4.78484Z" fill="#DBE7FF"/>
<path d="M150.356 50.8915C151.117 50.8915 151.734 50.2884 151.734 49.5444C151.734 48.8004 151.117 48.1973 150.356 48.1973C149.595 48.1973 148.978 48.8004 148.978 49.5444C148.978 50.2884 149.595 50.8915 150.356 50.8915Z" fill="#DBE7FF"/>
<path d="M58.867 49.9272C59.4335 49.9272 59.8927 49.4784 59.8927 48.9248C59.8927 48.3712 59.4335 47.9224 58.867 47.9224C58.3005 47.9224 57.8413 48.3712 57.8413 48.9248C57.8413 49.4784 58.3005 49.9272 58.867 49.9272Z" fill="#DBE7FF"/>
<path d="M42.9967 45.7382C42.9967 45.1874 42.5406 44.7417 41.9771 44.7417C41.4136 44.7417 40.9575 45.1874 40.9575 45.7382C40.9575 46.2889 41.4136 46.7346 41.9771 46.7346C42.5406 46.7346 42.9967 46.2889 42.9967 45.7382Z" fill="#DBE7FF"/>
<path d="M8.39441 48.9064C8.39441 48.326 7.91197 47.8545 7.31805 47.8545C6.72413 47.8545 6.2417 48.326 6.2417 48.9064C6.2417 49.4869 6.72413 49.9584 7.31805 49.9584C7.91197 49.9584 8.39441 49.4869 8.39441 48.9064Z" fill="#DBE7FF"/>
<path d="M44.8074 30.2485C44.8074 30.0187 44.6169 29.8325 44.3817 29.8325C44.1466 29.8325 43.9561 30.0187 43.9561 30.2485C43.9561 30.4783 44.1466 30.6646 44.3817 30.6646C44.6169 30.6646 44.8074 30.4783 44.8074 30.2485Z" fill="#DBE7FF"/>
<path d="M141.19 48.4686C141.716 48.4686 142.142 48.0518 142.142 47.5375C142.142 47.0233 141.716 46.6064 141.19 46.6064C140.663 46.6064 140.237 47.0233 140.237 47.5375C140.237 48.0518 140.663 48.4686 141.19 48.4686Z" fill="#DBE7FF"/>
<path d="M26.8891 42.3603C27.1611 42.3603 27.3816 42.1447 27.3816 41.8789C27.3816 41.613 27.1611 41.3975 26.8891 41.3975C26.617 41.3975 26.3965 41.613 26.3965 41.8789C26.3965 42.1447 26.617 42.3603 26.8891 42.3603Z" fill="#DBE7FF"/>
<path d="M20.7764 50.8428C20.7764 50.5932 20.5696 50.3911 20.3142 50.3911C20.0588 50.3911 19.8521 50.5932 19.8521 50.8428C19.8521 51.0924 20.0588 51.2945 20.3142 51.2945C20.5696 51.2945 20.7764 51.0924 20.7764 50.8428Z" fill="#DBE7FF"/>
<path d="M31.6257 4.57714C32.0854 4.57714 32.458 4.20452 32.458 3.74487C32.458 3.28522 32.0854 2.9126 31.6257 2.9126C31.1661 2.9126 30.7935 3.28522 30.7935 3.74487C30.7935 4.20452 31.1661 4.57714 31.6257 4.57714Z" fill="#DBE7FF"/>
<path d="M6.2367 25.7874C6.2367 25.5656 6.05224 25.3833 5.82318 25.3833C5.59413 25.3833 5.40967 25.5636 5.40967 25.7874C5.40967 26.0113 5.59413 26.1916 5.82318 26.1916C6.05224 26.1916 6.2367 26.0113 6.2367 25.7874Z" fill="#DBE7FF"/>
<path d="M87.3832 37.4398C87.3832 37.2179 87.1987 37.0356 86.9697 37.0356C86.7406 37.0356 86.5562 37.2159 86.5562 37.4398C86.5562 37.6636 86.7406 37.8439 86.9697 37.8439C87.1987 37.8439 87.3832 37.6636 87.3832 37.4398Z" fill="#DBE7FF"/>
<path d="M153.132 42.849C153.132 42.6271 152.947 42.4448 152.718 42.4448C152.489 42.4448 152.305 42.6251 152.305 42.849C152.305 43.0728 152.489 43.2531 152.718 43.2531C152.947 43.2531 153.132 43.0728 153.132 42.849Z" fill="#DBE7FF"/>
<path d="M158.202 17.8678C159.026 17.8678 159.694 17.215 159.694 16.4097C159.694 15.6045 159.026 14.9517 158.202 14.9517C157.378 14.9517 156.71 15.6045 156.71 16.4097C156.71 17.215 157.378 17.8678 158.202 17.8678Z" fill="#DBE7FF"/>
<path d="M144.54 36.6349C144.54 36.3615 144.313 36.1396 144.034 36.1396C143.754 36.1396 143.527 36.3615 143.527 36.6349C143.527 36.9083 143.754 37.1302 144.034 37.1302C144.313 37.1302 144.54 36.9083 144.54 36.6349Z" fill="#DBE7FF"/>
<path d="M43.0068 17.5385C43.0068 17.275 42.7879 17.061 42.5183 17.061C42.2487 17.061 42.0298 17.275 42.0298 17.5385C42.0298 17.802 42.2487 18.0159 42.5183 18.0159C42.7879 18.0159 43.0068 17.802 43.0068 17.5385Z" fill="#DBE7FF"/>
<path d="M130.681 16.6426C130.681 16.4147 130.491 16.2285 130.258 16.2285C130.025 16.2285 129.834 16.4147 129.834 16.6426C129.834 16.8704 130.025 17.0566 130.258 17.0566C130.491 17.0566 130.681 16.8704 130.681 16.6426Z" fill="#DBE7FF"/>
<path d="M109.458 46.604C109.458 46.3762 109.267 46.1899 109.034 46.1899C108.801 46.1899 108.61 46.3762 108.61 46.604C108.61 46.8318 108.801 47.018 109.034 47.018C109.267 47.018 109.458 46.8318 109.458 46.604Z" fill="#DBE7FF"/>
<path d="M56.3926 15.3797C56.7408 15.3797 57.023 15.1038 57.023 14.7636C57.023 14.4233 56.7408 14.1475 56.3926 14.1475C56.0444 14.1475 55.7622 14.4233 55.7622 14.7636C55.7622 15.1038 56.0444 15.3797 56.3926 15.3797Z" fill="#DBE7FF"/>
<path d="M84.952 22.1171C85.6752 22.1171 86.2615 21.5442 86.2615 20.8374C86.2615 20.1306 85.6752 19.5576 84.952 19.5576C84.2288 19.5576 83.6426 20.1306 83.6426 20.8374C83.6426 21.5442 84.2288 22.1171 84.952 22.1171Z" fill="#DBE7FF"/>
<path d="M77.4192 14.98C77.4192 14.7502 77.2287 14.564 76.9936 14.564C76.7584 14.564 76.5679 14.7502 76.5679 14.98C76.5679 15.2098 76.7584 15.396 76.9936 15.396C77.2287 15.396 77.4192 15.2098 77.4192 14.98Z" fill="#DBE7FF"/>
<path d="M79.1884 33.2789C79.1884 32.8926 78.8681 32.5796 78.4729 32.5796C78.0776 32.5796 77.7573 32.8926 77.7573 33.2789C77.7573 33.6652 78.0776 33.9782 78.4729 33.9782C78.8681 33.9782 79.1884 33.6652 79.1884 33.2789Z" fill="#DBE7FF"/>
<path d="M11.5668 41.9168C11.5668 41.695 11.3823 41.5127 11.1533 41.5127C10.9242 41.5127 10.7397 41.693 10.7397 41.9168C10.7397 42.1407 10.9242 42.321 11.1533 42.321C11.3823 42.321 11.5668 42.1407 11.5668 41.9168Z" fill="#DBE7FF"/>
<path d="M34.224 33.6853C34.224 33.3307 33.9301 33.0454 33.5693 33.0454C33.2085 33.0454 32.9146 33.3327 32.9146 33.6853C32.9146 34.0379 33.2085 34.3252 33.5693 34.3252C33.9301 34.3252 34.224 34.0379 34.224 33.6853Z" fill="#DBE7FF"/>
<path d="M10.3695 16.649C10.3695 16.1478 9.95391 15.7417 9.44107 15.7417C8.92823 15.7417 8.5127 16.1478 8.5127 16.649C8.5127 17.1502 8.92823 17.5563 9.44107 17.5563C9.95391 17.5563 10.3695 17.1502 10.3695 16.649Z" fill="#DBE7FF"/>
<path d="M40.5029 36.9537C40.5029 36.6644 40.2637 36.4307 39.9678 36.4307C39.6718 36.4307 39.4326 36.6644 39.4326 36.9537C39.4326 37.2429 39.6718 37.4767 39.9678 37.4767C40.2637 37.4767 40.5029 37.2429 40.5029 36.9537Z" fill="#DBE7FF"/>
<path d="M37.6148 25.6507C37.6148 25.3714 37.3838 25.1455 37.0979 25.1455C36.8121 25.1455 36.5811 25.3714 36.5811 25.6507C36.5811 25.93 36.8121 26.1558 37.0979 26.1558C37.3838 26.1558 37.6148 25.93 37.6148 25.6507Z" fill="#DBE7FF"/>
<path d="M33.1314 20.7829C33.1314 20.5471 32.9368 20.3569 32.6956 20.3569C32.4544 20.3569 32.2598 20.5471 32.2598 20.7829C32.2598 21.0186 32.4544 21.2088 32.6956 21.2088C32.9368 21.2088 33.1314 21.0186 33.1314 20.7829Z" fill="#DBE7FF"/>
<path d="M19.7472 16.3112C19.7472 16.0359 19.5182 15.812 19.2364 15.812C18.9546 15.812 18.7256 16.0359 18.7256 16.3112C18.7256 16.5866 18.9546 16.8105 19.2364 16.8105C19.5182 16.8105 19.7472 16.5866 19.7472 16.3112Z" fill="#DBE7FF"/>
<path d="M26.0496 33.4962C26.3351 33.4962 26.5665 33.27 26.5665 32.991C26.5665 32.712 26.3351 32.4858 26.0496 32.4858C25.7641 32.4858 25.5327 32.712 25.5327 32.991C25.5327 33.27 25.7641 33.4962 26.0496 33.4962Z" fill="#DBE7FF"/>
<path d="M27.395 27.0022C27.395 26.2474 26.7686 25.6353 25.9963 25.6353C25.224 25.6353 24.5977 26.2474 24.5977 27.0022C24.5977 27.757 25.224 28.3691 25.9963 28.3691C26.7686 28.3691 27.395 27.757 27.395 27.0022Z" fill="#DBE7FF"/>
<path d="M14.3319 24.9513C14.3319 24.7175 14.1373 24.5273 13.8981 24.5273C13.6589 24.5273 13.4644 24.7175 13.4644 24.9513C13.4644 25.1851 13.6589 25.3752 13.8981 25.3752C14.1373 25.3752 14.3319 25.1851 14.3319 24.9513Z" fill="#DBE7FF"/>
<path d="M158.385 35.0993C158.385 34.614 157.982 34.2197 157.485 34.2197C156.988 34.2197 156.585 34.614 156.585 35.0993C156.585 35.5847 156.988 35.9789 157.485 35.9789C157.982 35.9789 158.385 35.5847 158.385 35.0993Z" fill="#DBE7FF"/>
<path d="M152.857 2.12764C152.857 1.64228 152.454 1.24805 151.957 1.24805C151.46 1.24805 151.057 1.64228 151.057 2.12764C151.057 2.613 151.46 3.00723 151.957 3.00723C152.454 3.00723 152.857 2.613 152.857 2.12764Z" fill="#DBE7FF"/>
<path d="M82.9273 45.1908C82.9273 44.9471 82.7246 44.751 82.4773 44.751C82.23 44.751 82.0273 44.9491 82.0273 45.1908C82.0273 45.4325 82.23 45.6306 82.4773 45.6306C82.7246 45.6306 82.9273 45.4325 82.9273 45.1908Z" fill="#DBE7FF"/>
<path d="M117.137 24.0793C117.709 24.0793 118.173 23.6261 118.173 23.067C118.173 22.5079 117.709 22.0547 117.137 22.0547C116.565 22.0547 116.102 22.5079 116.102 23.067C116.102 23.6261 116.565 24.0793 117.137 24.0793Z" fill="#DBE7FF"/>
<path d="M113.786 35.2914C114.117 35.2914 114.384 35.0297 114.384 34.707C114.384 34.3842 114.117 34.1226 113.786 34.1226C113.456 34.1226 113.188 34.3842 113.188 34.707C113.188 35.0297 113.456 35.2914 113.786 35.2914Z" fill="#DBE7FF"/>
<path d="M33.461 11.2899C33.461 10.5707 32.8651 9.98633 32.1272 9.98633C31.3894 9.98633 30.7935 10.5688 30.7935 11.2899C30.7935 12.011 31.3894 12.5934 32.1272 12.5934C32.8651 12.5934 33.461 12.011 33.461 11.2899Z" fill="#DBE7FF"/>
</g>
<defs>
<radialGradient id="paint0_radial_5928_28874" cx="0" cy="0" r="1" gradientUnits="userSpaceOnUse" gradientTransform="translate(28.4333 17.4675) rotate(133.076) scale(53.2888 51.803)">
<stop stop-color="#85F4A3"/>
<stop offset="1" stop-color="#0BCE3F"/>
</radialGradient>
<clipPath id="clip0_5928_28874">
<rect width="163" height="52" fill="white"/>
</clipPath>
</defs>
</svg>
