<svg width="70" height="15" viewBox="0 0 70 15" fill="none" xmlns="http://www.w3.org/2000/svg">
<g clip-path="url(#clip0_602_2)">
<path d="M19.3971 1.21324C18.4813 1.92421 18.0234 2.91396 18.0234 4.18199V10.7464C18.0234 12.0145 18.4813 13.0042 19.3971 13.7146C20.3122 14.4254 21.5732 14.781 23.1795 14.781H33.0851V12.6906H23.1345C22.2187 12.6906 21.5619 12.5094 21.1643 12.1471C20.7667 11.7846 20.5676 11.283 20.5676 10.6418V8.50912H33.0851V6.41867H20.5676V4.34893C20.5676 3.68033 20.7667 3.16114 21.1643 2.79193C21.5619 2.42274 22.2187 2.23784 23.1345 2.23784H33.0851V0.146973H23.1795C21.5732 0.146973 20.3122 0.502394 19.3971 1.21324Z" fill="#2B8A3E"/>
<path d="M50.2825 6.01127C50.6203 5.48833 50.7892 4.85085 50.7892 4.09825C50.7892 2.84383 50.3389 1.87203 49.4385 1.18187C48.5376 0.492006 47.2691 0.147217 45.6333 0.147217H35.75V2.23764H45.3859C46.301 2.23764 47.0104 2.41924 47.5131 2.78154C48.0162 3.14385 48.2675 3.6593 48.2675 4.32851C48.2675 4.99712 48.0162 5.51317 47.5131 5.87548C47.0104 6.23777 46.301 6.41893 45.3859 6.41893H35.75V8.50935H45.3859C46.3166 8.50935 47.0291 8.69051 47.5247 9.0528C48.0198 9.4157 48.2675 9.93117 48.2675 10.5998C48.2675 11.269 48.0162 11.7849 47.5131 12.1467C47.0104 12.5095 46.301 12.6906 45.3859 12.6906L35.75 12.6695V14.7811H45.6333C47.2691 14.7811 48.5376 14.4225 49.4385 13.7042C50.3389 12.9869 50.7892 11.9867 50.7892 10.7043C50.7892 9.98027 50.6203 9.36646 50.2825 8.86477C49.9447 8.36309 49.3782 7.89614 48.5824 7.46406C49.3782 7.01838 49.9447 6.53406 50.2825 6.01127Z" fill="#2B8A3E"/>
<path d="M56.0633 7.79667L57.1416 3.59472C57.2615 3.1628 57.4902 2.82101 57.828 2.5701C58.1658 2.31934 58.5742 2.19418 59.0548 2.19418H59.7529H62.0045H62.7025C63.1826 2.19418 63.5915 2.31934 63.9293 2.5701C64.2672 2.82101 64.4959 3.1628 64.6157 3.59472L65.6944 7.79667H56.0633ZM66.383 1.82813C66.1356 1.47274 65.8352 1.16642 65.4827 0.908604C65.1301 0.650814 64.7399 0.452285 64.3122 0.312312C63.8843 0.173391 63.4297 0.10376 62.9499 0.10376H62.0045H59.7529H58.8074C58.3421 0.10376 57.8918 0.173391 57.4567 0.312312C57.0209 0.452285 56.6272 0.650814 56.2747 0.908604C55.9216 1.16642 55.6217 1.47274 55.3743 1.82813C55.1263 2.18355 54.9501 2.5701 54.8449 2.98838L51.8281 14.7371H54.2824L55.5268 9.88709H66.2306L67.475 14.7371H69.9292L66.9124 2.98838C66.8073 2.5701 66.631 2.18355 66.383 1.82813Z" fill="#2B8A3E"/>
<path d="M12.6626 5.87541C12.1597 6.2377 11.4505 6.41883 10.5347 6.41883H2.72256V2.238H10.5347C11.4505 2.238 12.1597 2.41916 12.6626 2.78146C13.1653 3.14378 13.4168 3.65922 13.4168 4.32843C13.4168 4.99704 13.1653 5.51296 12.6626 5.87541ZM12.6626 12.1471C12.1597 12.5094 11.4505 12.6906 10.5347 12.6906H2.72256V8.50925H10.5347C11.4653 8.50925 12.1785 8.69085 12.6738 9.0527C13.1693 9.41546 13.4168 9.93093 13.4168 10.6001C13.4168 11.2687 13.1653 11.7848 12.6626 12.1471ZM15.4318 6.01104C15.7691 5.4887 15.9381 4.85077 15.9381 4.09817C15.9381 2.84375 15.4882 1.87195 14.5873 1.18224C13.6868 0.49192 12.4185 0.146973 10.7827 0.146973H0.246094V14.781H10.7827C12.4185 14.781 13.6868 14.4224 14.5873 13.7045C15.4882 12.9868 15.9381 11.987 15.9381 10.7048C15.9381 9.98001 15.7691 9.36635 15.4318 8.86467C15.094 8.36283 14.5275 7.89649 13.7318 7.46396C14.5275 7.01827 15.094 6.53399 15.4318 6.01104Z" fill="#2B8A3E"/>
</g>
<defs>
<clipPath id="clip0_602_2">
<rect width="70" height="15" fill="white"/>
</clipPath>
</defs>
</svg>
