<?xml version="1.0" encoding="UTF-8"?> <svg xmlns="http://www.w3.org/2000/svg" width="240" height="58" viewBox="0 0 240 58" fill="none"><path d="M106.02 8.73511V6.53418H109.665C110.078 6.53418 110.421 6.5342 110.765 6.46542C111.04 6.39664 111.316 6.32785 111.453 6.19029C111.659 6.05273 111.728 5.8464 111.866 5.57128C111.935 5.29617 112.003 4.95227 112.003 4.47082C112.003 4.05815 111.935 3.71426 111.866 3.50792C111.797 3.2328 111.659 3.09525 111.453 2.9577C111.247 2.82014 110.972 2.75136 110.697 2.68259C110.353 2.61381 109.94 2.6138 109.527 2.6138C109.046 2.6138 108.564 2.61381 108.083 2.68259C107.601 2.75136 107.051 2.82013 106.639 2.88891C106.157 2.95769 105.744 3.02647 105.332 3.16402C104.919 3.2328 104.644 3.37036 104.438 3.43914L103.681 1.10066C104.025 0.963102 104.369 0.82554 104.85 0.687982C105.263 0.550425 105.744 0.48165 106.295 0.412871C106.776 0.344092 107.326 0.275326 107.877 0.275326C108.427 0.206547 108.977 0.206543 109.459 0.206543C110.559 0.206543 111.453 0.275309 112.141 0.344088C112.897 0.481646 113.448 0.61922 113.86 0.963114C114.273 1.23823 114.617 1.65089 114.754 2.13234C114.961 2.61379 115.03 3.23282 115.03 4.05816C115.03 4.60839 114.961 5.08983 114.892 5.5025C114.823 5.91517 114.686 6.25908 114.479 6.46542C114.273 6.74054 114.067 6.94687 113.792 7.15321C113.516 7.35955 113.241 7.4971 112.897 7.70343C113.241 7.84099 113.516 8.04733 113.792 8.18489C114.067 8.39123 114.273 8.59757 114.479 8.87268C114.686 9.1478 114.823 9.49169 114.892 9.90436C115.03 10.317 115.03 10.7985 115.03 11.3487C115.03 12.1053 114.961 12.7243 114.754 13.2745C114.548 13.756 114.273 14.1686 113.792 14.4437C113.379 14.7189 112.76 14.9252 112.072 15.0628C111.316 15.2003 110.421 15.2003 109.39 15.2003C108.839 15.2003 108.358 15.2003 107.808 15.1315C107.258 15.0628 106.707 15.0628 106.226 14.994C105.744 14.9252 105.263 14.8564 104.782 14.7189C104.369 14.5813 103.956 14.5125 103.612 14.3062L104.369 11.9677C104.575 12.0365 104.85 12.1053 105.263 12.2428C105.676 12.3116 106.088 12.4492 106.57 12.518C107.051 12.5867 107.533 12.6555 108.014 12.7243C108.496 12.7931 108.977 12.7931 109.459 12.7931C109.94 12.7931 110.353 12.7931 110.628 12.7931C110.972 12.7931 111.247 12.7243 111.453 12.5867C111.659 12.4492 111.797 12.2428 111.935 12.0365C112.003 11.7614 112.072 11.4175 112.072 10.936C112.072 10.4546 112.003 10.0419 111.935 9.7668C111.866 9.49168 111.728 9.28535 111.522 9.14779C111.316 9.01023 111.109 8.94146 110.834 8.87268C110.559 8.87268 110.215 8.8039 109.734 8.8039H106.02V8.73511Z" fill="#19315B"></path><path d="M125.484 0.481445L130.573 14.9938H127.341L126.103 10.9358H121.563L120.325 14.9938H117.093L122.182 0.481445H125.484ZM122.182 8.73491H125.415L124.246 4.95207L123.833 2.68238H123.696L123.283 4.95207L122.182 8.73491Z" fill="#19315B"></path><path d="M133.049 14.9254V0.413086H139.239C140.339 0.413086 141.234 0.481873 141.921 0.550652C142.609 0.619431 143.228 0.825759 143.641 1.10087C144.053 1.37599 144.397 1.71989 144.535 2.20134C144.741 2.68279 144.81 3.30181 144.81 4.05838C144.81 4.60861 144.741 5.09004 144.673 5.50272C144.604 5.84661 144.466 6.19052 144.329 6.46564C144.191 6.74075 143.985 6.94709 143.71 7.15342C143.503 7.35976 143.228 7.49731 142.884 7.63486C143.159 7.77242 143.434 7.97877 143.71 8.11632C143.985 8.32266 144.191 8.529 144.329 8.80411C144.535 9.07923 144.604 9.42312 144.741 9.76701C144.81 10.1797 144.879 10.5924 144.879 11.2114C144.879 11.9679 144.81 12.5869 144.604 13.0684C144.397 13.5498 144.122 13.9625 143.641 14.2376C143.159 14.5128 142.609 14.7191 141.921 14.7879C141.234 14.9254 140.271 14.9254 139.239 14.9254H133.049ZM139.652 6.46564C140.064 6.46564 140.408 6.46563 140.683 6.39685C140.958 6.32807 141.165 6.2593 141.371 6.12174C141.509 5.98418 141.646 5.77785 141.715 5.43395C141.784 5.15884 141.853 4.67737 141.853 4.19592C141.853 3.85203 141.784 3.64569 141.715 3.43935C141.646 3.23301 141.509 3.16425 141.302 3.02669C141.096 2.88914 140.821 2.88913 140.546 2.88913C140.202 2.88913 139.789 2.88913 139.377 2.88913H135.662V6.46564H139.652ZM139.377 12.5182C139.858 12.5182 140.271 12.5182 140.546 12.5182C140.89 12.5182 141.165 12.4494 141.371 12.3806C141.577 12.3118 141.715 12.1743 141.853 11.9679C141.921 11.7616 141.99 11.5553 141.99 11.2114C141.99 10.5924 141.921 10.1797 141.853 9.83579C141.784 9.4919 141.646 9.28556 141.44 9.14801C141.234 9.01045 141.027 8.94167 140.683 8.87289C140.408 8.87289 140.064 8.87289 139.583 8.87289H135.525V12.5182H139.377Z" fill="#19315B"></path><path d="M147.768 7.70343C147.768 6.05274 147.974 4.74593 148.318 3.78303C148.731 2.82013 149.212 2.06357 149.9 1.51334C150.588 0.963106 151.344 0.619212 152.169 0.481654C153.064 0.275318 154.027 0.206543 154.989 0.206543C155.952 0.206543 156.915 0.275318 157.809 0.481654C158.703 0.687991 159.46 1.03188 160.079 1.51334C160.767 2.06357 161.248 2.82013 161.661 3.78303C162.074 4.74593 162.211 6.05274 162.211 7.70343C162.211 9.35412 162.005 10.6609 161.661 11.6238C161.248 12.5867 160.767 13.3433 160.079 13.8935C159.391 14.4438 158.635 14.7877 157.809 14.9252C156.915 15.1315 155.952 15.2003 154.989 15.2003C154.027 15.2003 153.064 15.1315 152.169 14.9252C151.275 14.7189 150.519 14.375 149.9 13.8935C149.212 13.3433 148.731 12.5867 148.318 11.6238C147.974 10.5922 147.768 9.28535 147.768 7.70343ZM155.058 2.54502C154.508 2.54502 153.958 2.54502 153.408 2.6138C152.926 2.68258 152.445 2.88891 152.032 3.16402C151.619 3.50792 151.344 3.98938 151.138 4.67717C150.931 5.36496 150.794 6.32785 150.794 7.63465C150.794 8.94145 150.931 9.90436 151.138 10.5922C151.344 11.2799 151.688 11.7614 152.032 12.1053C152.445 12.4492 152.857 12.5867 153.408 12.6555C153.889 12.7243 154.439 12.7243 155.058 12.7243C155.608 12.7243 156.159 12.7243 156.64 12.6555C157.122 12.5867 157.603 12.4492 158.016 12.1053C158.428 11.7614 158.703 11.2799 158.979 10.5922C159.185 9.90436 159.322 8.94145 159.322 7.63465C159.322 6.32785 159.185 5.36496 158.979 4.67717C158.772 3.98938 158.428 3.50792 158.016 3.16402C157.603 2.82013 157.19 2.68258 156.64 2.6138C156.09 2.6138 155.608 2.54502 155.058 2.54502Z" fill="#19315B"></path><path d="M175.692 17.7449V14.925H166.957V17.1259L164.55 17.3323V12.5177H165.031C165.444 12.3802 165.788 12.0363 165.994 11.4861C166.201 10.9358 166.338 10.1105 166.407 8.94123L166.82 0.481445H176.793V12.5177H178.099V17.5386L175.692 17.7449ZM173.904 2.8887H169.639L169.433 8.80369C169.364 9.69781 169.296 10.4544 169.158 11.0734C169.02 11.6924 168.814 12.1051 168.47 12.449H173.904V2.8887Z" fill="#19315B"></path><path d="M106.156 29.1621H108.495C108.632 27.8553 108.907 26.8236 109.32 26.067C109.733 25.3104 110.283 24.6914 110.902 24.2788C111.521 23.8661 112.278 23.591 113.103 23.4534C113.928 23.3158 114.822 23.2471 115.716 23.2471C116.748 23.2471 117.642 23.3158 118.536 23.5222C119.431 23.7285 120.187 24.0724 120.806 24.5539C121.494 25.1041 121.975 25.8607 122.388 26.8236C122.801 27.7865 122.938 29.0933 122.938 30.744C122.938 32.3947 122.732 33.7015 122.388 34.6644C121.975 35.6273 121.494 36.3838 120.806 36.9341C120.118 37.4843 119.362 37.8282 118.536 37.9657C117.642 38.1721 116.679 38.2408 115.716 38.2408C114.754 38.2408 113.791 38.1721 112.965 38.0345C112.14 37.897 111.383 37.5531 110.696 37.0716C110.008 36.5902 109.526 35.9024 109.114 35.0083C108.701 34.1141 108.495 32.9449 108.426 31.4317H106.156V38.0345H103.199V23.5222H106.156V29.1621ZM115.785 35.8336C116.335 35.8336 116.886 35.8336 117.367 35.7648C117.849 35.696 118.33 35.5585 118.743 35.2146C119.155 34.8707 119.431 34.3892 119.706 33.7014C119.912 33.0137 120.05 32.0508 120.05 30.744C120.05 29.4372 119.912 28.4743 119.706 27.7865C119.499 27.0987 119.155 26.6172 118.743 26.2733C118.33 25.9294 117.917 25.7919 117.367 25.7231C116.886 25.6543 116.335 25.6543 115.785 25.6543C115.235 25.6543 114.685 25.6543 114.135 25.7231C113.653 25.7919 113.172 25.9982 112.759 26.2733C112.346 26.6172 112.071 27.0987 111.865 27.7865C111.659 28.4743 111.521 29.4372 111.521 30.744C111.521 32.0508 111.659 33.0137 111.865 33.7014C112.071 34.3892 112.415 34.8707 112.759 35.2146C113.172 35.5585 113.584 35.696 114.135 35.7648C114.685 35.8336 115.235 35.8336 115.785 35.8336Z" fill="#19315B"></path><path d="M126.24 37.9655V23.522H135.457L135.25 25.9292H128.991V37.9655H126.24Z" fill="#19315B"></path><path d="M137.246 37.9655V23.522H143.436C144.536 23.522 145.43 23.5908 146.118 23.6595C146.806 23.7283 147.425 23.9346 147.838 24.2098C148.25 24.4849 148.594 24.8288 148.732 25.3102C148.938 25.7917 149.007 26.4107 149.007 27.1672C149.007 27.7175 148.938 28.1989 148.869 28.6116C148.801 28.9555 148.663 29.2994 148.525 29.5745C148.388 29.8496 148.182 30.056 147.906 30.2623C147.7 30.4686 147.425 30.6062 147.081 30.7438C147.356 30.8813 147.631 31.0877 147.906 31.2252C148.182 31.4315 148.388 31.6379 148.525 31.913C148.732 32.1881 148.801 32.532 148.938 32.8759C149.007 33.2886 149.076 33.7012 149.076 34.3203C149.076 35.0768 149.007 35.6958 148.801 36.1773C148.594 36.6587 148.319 37.0714 147.838 37.3465C147.425 37.6216 146.806 37.828 146.118 37.8967C145.362 38.0343 144.467 38.0343 143.436 38.0343H137.246V37.9655ZM143.848 29.5057C144.261 29.5057 144.605 29.5057 144.88 29.437C145.155 29.3682 145.362 29.2994 145.568 29.1618C145.705 29.0243 145.843 28.818 145.912 28.4741C145.981 28.1989 146.049 27.7175 146.049 27.236C146.049 26.8921 145.981 26.6858 145.912 26.4795C145.843 26.2731 145.705 26.2044 145.499 26.0668C145.293 25.998 145.018 25.9292 144.743 25.9292C144.467 25.9292 143.986 25.9292 143.573 25.9292H139.859V29.5057H143.848ZM143.573 35.5583C144.055 35.5583 144.467 35.5583 144.743 35.5583C145.086 35.5583 145.362 35.4895 145.568 35.4207C145.774 35.3519 145.912 35.2144 146.049 35.008C146.187 34.8017 146.187 34.5954 146.187 34.2515C146.187 33.6325 146.118 33.2198 146.049 32.8759C145.981 32.532 145.843 32.3257 145.637 32.1881C145.43 32.0506 145.224 31.9818 144.949 31.913C144.674 31.8442 144.33 31.913 143.848 31.913H139.79V35.5583H143.573Z" fill="#19315B"></path><path d="M152.445 37.9655V23.522H163.312L163.106 25.9292H155.472V29.2994H161.387V31.7066H155.472V35.5583H163.312L163.106 37.9655H152.445Z" fill="#19315B"></path><path d="M174.454 37.9655V31.5003H168.608V37.9655H165.65V23.522H168.608V29.0931H174.454V23.522H177.412V37.9655H174.454Z" fill="#19315B"></path><path d="M183.809 37.966V25.8609H179.338L179.544 23.4536H191.512L191.305 25.8609H186.766V37.966H183.809Z" fill="#19315B"></path><path d="M197.495 31.9818H196.188V38.0343H193.231V23.522H196.188V29.5745H197.495L201.965 23.522H205.473C204.579 24.76 203.616 25.9292 202.722 27.1672C201.828 28.4053 200.865 29.5745 199.902 30.8125C200.865 32.0506 201.759 33.2198 202.722 34.4578C203.616 35.6958 204.579 36.8651 205.473 38.1031H201.965L197.495 31.9818Z" fill="#19315B"></path><path d="M206.642 30.744C206.642 29.0933 206.848 27.7865 207.192 26.8236C207.605 25.8607 208.087 25.1041 208.774 24.5539C209.462 24.0036 210.219 23.6597 211.044 23.5222C211.938 23.3158 212.901 23.2471 213.864 23.2471C214.896 23.2471 215.79 23.3158 216.684 23.5222C217.578 23.7285 218.335 24.0724 218.954 24.5539C219.641 25.1041 220.123 25.8607 220.535 26.8236C220.948 27.7865 221.086 29.0933 221.086 30.744C221.086 32.3947 220.879 33.7015 220.535 34.6644C220.123 35.6273 219.641 36.3838 218.954 36.9341C218.266 37.4843 217.509 37.8282 216.684 37.9657C215.79 38.1721 214.827 38.2408 213.864 38.2408C212.832 38.2408 211.938 38.1721 211.044 37.9657C210.15 37.7594 209.393 37.4155 208.774 36.9341C208.087 36.3838 207.605 35.6273 207.192 34.6644C206.848 33.6327 206.642 32.3259 206.642 30.744ZM213.864 25.5855C213.314 25.5855 212.763 25.5856 212.213 25.6543C211.732 25.7231 211.25 25.9294 210.838 26.2046C210.425 26.5484 210.15 27.0299 209.944 27.7177C209.737 28.4055 209.6 29.3684 209.6 30.6752C209.6 31.982 209.737 32.9449 209.944 33.6327C210.15 34.3205 210.494 34.8019 210.838 35.1458C211.25 35.4897 211.663 35.6273 212.213 35.696C212.695 35.7648 213.245 35.7648 213.864 35.7648C214.414 35.7648 214.964 35.7648 215.446 35.696C215.927 35.6273 216.409 35.4897 216.821 35.1458C217.234 34.8019 217.509 34.3205 217.784 33.6327C217.991 32.9449 218.128 31.982 218.128 30.6752C218.128 29.3684 217.991 28.4055 217.784 27.7177C217.578 27.0299 217.234 26.5484 216.821 26.2046C216.409 25.8607 215.996 25.7231 215.446 25.6543C214.964 25.6543 214.414 25.5855 213.864 25.5855Z" fill="#19315B"></path><path d="M237.043 37.9655V29.0931H236.974L233.604 37.9655H230.509L227.139 29.0931H227.07V37.9655H224.181V23.522H227.551L231.128 32.1193L232.091 35.9709L233.054 32.1193L236.63 23.522H240V37.9655H237.043Z" fill="#19315B"></path><path fill-rule="evenodd" clip-rule="evenodd" d="M36.3152 37.0031L53.5787 7.01551H37.3469L20.7024 35.9026L0 0.0688477H8.04712H25.2418L21.2527 7.01551H12.1051L20.7024 21.9405L33.3577 0.0688477H41.4049H57.6367H65.6838L36.8655 50.0023L35.6962 51.9969L32.8075 57.0177L30.0563 52.2032L28.8183 50.0023L36.3152 37.0031ZM35.2835 15.3378C34.527 16.7133 34.9396 18.4328 36.3152 19.1894C37.6908 19.9459 39.4103 19.5333 40.1668 18.1577L42.2302 14.5812L42.299 14.4436L43.2619 12.7929C43.537 12.3803 44.0872 12.1739 44.5687 12.449C44.9814 12.7242 45.1877 13.2744 44.9126 13.7558L39.4103 23.2473L40.5107 25.1731L46.5633 14.7188C47.3198 13.3432 46.9072 11.6237 45.5316 10.8671C44.156 10.1106 42.4365 10.5232 41.68 11.8988L39.5478 15.6129L38.5849 17.2636C38.3098 17.6762 37.7596 17.8826 37.2781 17.6074C36.8655 17.3323 36.6591 16.7821 36.9342 16.3007L40.9234 9.35399L40.0293 7.0843L35.2835 15.3378ZM22.2843 37.8972C21.5278 39.2728 21.9404 40.9923 23.316 41.7488C24.6916 42.5054 26.4111 42.0927 27.1676 40.7171L29.231 37.1406L29.2998 37.0031L30.2627 35.3524C30.5378 34.9397 31.088 34.7334 31.5695 35.0085C31.9822 35.2836 32.1885 35.8338 31.9134 36.3153L26.4111 45.8068L27.5115 47.7326L33.5641 37.2782C34.3206 35.9026 33.908 34.1831 32.5324 33.4266C31.1568 32.67 29.4373 33.0827 28.6808 34.4583L26.5486 38.1723L25.5857 39.823C25.3106 40.2357 24.7604 40.442 24.2789 40.1669C23.8663 39.8918 23.6599 39.3416 23.935 38.8601L27.9242 31.9135L27.0301 29.6437L22.2843 37.8972ZM33.0138 19.3269L37.3469 27.0989L28.4744 27.2365L27.374 29.1623L38.3786 28.956L39.479 27.0302L34.1143 17.4011L33.0138 19.3269Z" fill="#2BABE2"></path><path d="M82.0372 0H81.0117V57.4256H82.0372V0Z" fill="#2CABE1"></path><path d="M107.945 56.4682C107.945 56.4682 107.876 56.4682 107.808 56.4682H107.326C107.257 56.4682 107.257 56.4682 107.189 56.4682C107.189 56.4682 107.189 56.3994 107.189 56.3306V51.7912H104.644V56.3306C104.644 56.3994 104.644 56.3994 104.644 56.4682C104.644 56.4682 104.575 56.4682 104.506 56.4682H103.956C103.887 56.4682 103.887 56.4682 103.818 56.4682C103.818 56.4682 103.818 56.3994 103.818 56.3306V51.5849C103.818 51.3786 103.887 51.241 103.956 51.1722C104.025 51.1035 104.162 51.0347 104.3 51.0347H107.464C107.601 51.0347 107.739 51.1035 107.808 51.1722C107.876 51.241 107.945 51.3786 107.945 51.5849V56.3306C107.945 56.4682 107.945 56.4682 107.945 56.4682Z" fill="#2BABE2"></path><path d="M112.691 56.4679C112.691 56.4679 112.622 56.5367 112.554 56.5367H110.422C110.146 56.5367 109.94 56.4679 109.803 56.3991C109.665 56.3304 109.527 56.1928 109.39 56.124C109.321 55.9865 109.184 55.8489 109.184 55.7113C109.115 55.5738 109.115 55.3675 109.115 55.2299V52.5475C109.115 52.3412 109.115 52.2036 109.184 52.0661C109.252 51.9285 109.321 51.791 109.39 51.6534C109.527 51.5158 109.665 51.4471 109.803 51.3783C109.94 51.3095 110.146 51.2407 110.422 51.2407H112.554C112.622 51.2407 112.691 51.2407 112.691 51.3095C112.691 51.3095 112.691 51.3783 112.691 51.4471V51.791C112.691 51.8597 112.691 51.9285 112.691 51.9285C112.691 51.9285 112.622 51.9973 112.554 51.9973H110.422C110.215 51.9973 110.078 52.0661 110.009 52.1349C109.94 52.2036 109.871 52.3412 109.871 52.5475V53.5104H112.279C112.347 53.5104 112.416 53.5104 112.416 53.5792C112.416 53.5792 112.416 53.648 112.416 53.7168V54.0607C112.416 54.1294 112.416 54.1294 112.416 54.1982C112.416 54.1982 112.347 54.267 112.279 54.267H109.871V55.505C109.871 55.6426 109.94 55.7801 110.009 55.8489C110.078 55.9177 110.215 55.9865 110.422 55.9865H112.554C112.622 55.9865 112.691 55.9865 112.691 56.0552C112.691 56.0552 112.691 56.124 112.691 56.1928V56.5367C112.76 56.3991 112.691 56.3991 112.691 56.4679Z" fill="#2BABE2"></path><path d="M113.584 51.5157C113.584 51.3781 113.584 51.2406 113.653 51.1718C113.722 51.103 113.791 51.103 113.997 51.103H115.785C116.06 51.103 116.267 51.1718 116.473 51.2406C116.679 51.3094 116.886 51.4469 117.023 51.5845C117.161 51.722 117.298 51.9284 117.367 52.0659C117.436 52.2035 117.505 52.4786 117.505 52.7537C117.505 52.8913 117.505 53.0288 117.436 53.2352C117.367 53.4415 117.298 53.5791 117.161 53.7854C117.023 53.9917 116.886 54.1293 116.611 54.1981C116.404 54.3356 116.129 54.4044 115.717 54.4044H114.341V56.3302C114.341 56.399 114.341 56.4678 114.272 56.4678C114.272 56.4678 114.203 56.4678 114.135 56.4678H113.722C113.653 56.4678 113.653 56.4678 113.584 56.4678C113.584 56.4678 113.516 56.399 113.516 56.3302V51.5157H113.584ZM116.679 52.8225C116.679 52.7537 116.679 52.6162 116.611 52.4786C116.611 52.341 116.542 52.2723 116.473 52.2035C116.404 52.1347 116.267 52.0659 116.129 51.9971C115.992 51.9284 115.785 51.9284 115.579 51.9284H114.41V53.7854H115.648C115.992 53.7854 116.267 53.7166 116.404 53.5103C116.611 53.3039 116.679 53.0288 116.679 52.8225Z" fill="#2BABE2"></path><path d="M121.908 56.4679C121.908 56.4679 121.839 56.5367 121.77 56.5367H119.638C119.363 56.5367 119.156 56.4679 119.019 56.3991C118.881 56.3304 118.744 56.1928 118.606 56.124C118.469 55.9865 118.4 55.8489 118.4 55.7113C118.331 55.5738 118.331 55.3675 118.331 55.2299V52.5475C118.331 52.3412 118.331 52.2036 118.4 52.0661C118.469 51.9285 118.537 51.791 118.606 51.6534C118.744 51.5158 118.881 51.4471 119.019 51.3783C119.156 51.3095 119.363 51.2407 119.638 51.2407H121.77C121.839 51.2407 121.908 51.2407 121.908 51.3095C121.908 51.3095 121.908 51.3783 121.908 51.4471V51.791C121.908 51.8597 121.908 51.9285 121.908 51.9285C121.908 51.9285 121.839 51.9973 121.77 51.9973H119.638C119.432 51.9973 119.294 52.0661 119.225 52.1349C119.156 52.2036 119.088 52.3412 119.088 52.5475V53.5104H121.495C121.564 53.5104 121.632 53.5104 121.632 53.5792C121.632 53.5792 121.632 53.648 121.632 53.7168V54.0607C121.632 54.1294 121.632 54.1294 121.632 54.1982C121.632 54.1982 121.564 54.267 121.495 54.267H119.088V55.505C119.088 55.6426 119.156 55.7801 119.225 55.8489C119.294 55.9177 119.432 55.9865 119.638 55.9865H121.77C121.839 55.9865 121.908 55.9865 121.908 56.0552C121.908 56.0552 121.908 56.124 121.908 56.1928V56.5367C121.908 56.3991 121.908 56.3991 121.908 56.4679Z" fill="#2BABE2"></path><path d="M123.145 56.5365L123.076 57.7057C123.076 57.7745 123.007 57.8433 123.007 57.8433H122.594H122.526C122.526 57.8433 122.526 57.7745 122.457 57.7057L122.319 56.1926C122.319 56.1238 122.319 55.9863 122.388 55.9175C122.457 55.8487 122.526 55.7799 122.594 55.7799H122.87C122.938 55.7111 123.007 55.5736 123.076 55.436C123.145 55.2985 123.145 55.2297 123.213 55.0921C123.282 54.9546 123.282 54.817 123.282 54.6107C123.282 54.4731 123.351 54.2668 123.351 53.9917L123.695 51.5844C123.695 51.3781 123.764 51.2405 123.832 51.1717C123.901 51.103 124.039 51.0342 124.245 51.0342H126.515C126.721 51.0342 126.79 51.103 126.928 51.1717C126.996 51.2405 127.065 51.3781 127.065 51.5844V55.7111H127.34C127.409 55.7111 127.478 55.7111 127.478 55.7799C127.547 55.7799 127.547 55.8487 127.547 55.8487C127.547 55.8487 127.547 55.9175 127.547 55.9863C127.547 56.055 127.547 56.055 127.547 56.055L127.478 57.5682C127.478 57.6369 127.478 57.637 127.409 57.7057H127.34H126.928C126.859 57.7057 126.859 57.6369 126.859 57.5682L126.79 56.5365H123.145ZM126.24 51.8595H124.383L124.176 53.3727C124.108 53.8541 124.039 54.198 124.039 54.4731C123.97 54.7482 123.97 54.9546 123.901 55.1609C123.832 55.2985 123.832 55.436 123.764 55.5048C123.695 55.5736 123.695 55.7111 123.626 55.7799H126.171V51.8595H126.24Z" fill="#2BABE2"></path><path d="M132.842 53.7853C132.842 54.6794 132.635 55.3672 132.223 55.8486C131.81 56.3301 131.26 56.5364 130.503 56.5364C129.747 56.5364 129.196 56.3301 128.784 55.8486C128.371 55.3672 128.233 54.6794 128.233 53.7853C128.233 53.3726 128.302 52.9599 128.44 52.616C128.577 52.2721 128.715 51.997 128.921 51.7219C129.128 51.5156 129.403 51.3092 129.678 51.1717C129.953 51.0341 130.228 50.9653 130.572 50.9653C130.916 50.9653 131.26 51.0341 131.535 51.1717C131.81 51.3092 132.085 51.4468 132.223 51.7219C132.429 51.9282 132.567 52.2721 132.635 52.616C132.773 52.9599 132.842 53.3726 132.842 53.7853ZM132.016 53.8541C132.016 53.5789 132.016 53.3038 131.948 53.0975C131.879 52.8224 131.81 52.616 131.741 52.4097C131.604 52.2034 131.466 52.0658 131.26 51.9282C131.053 51.7907 130.847 51.7907 130.503 51.7907C130.228 51.7907 130.022 51.8595 129.815 51.9282C129.609 52.0658 129.471 52.2034 129.334 52.3409C129.196 52.5472 129.128 52.7536 129.059 52.9599C128.99 53.235 128.99 53.4414 128.99 53.7165C128.99 54.0604 128.99 54.3355 129.059 54.5418C129.128 54.817 129.196 55.0233 129.334 55.2296C129.471 55.436 129.609 55.5735 129.815 55.6423C130.022 55.7111 130.228 55.7799 130.503 55.7799C130.778 55.7799 131.053 55.7111 131.26 55.5735C131.466 55.436 131.604 55.2984 131.741 55.0921C131.879 54.8857 131.948 54.6794 132.016 54.4731C132.016 54.3355 132.016 54.1292 132.016 53.8541Z" fill="#2BABE2"></path><path d="M136.969 53.5792C137.245 53.7168 137.451 53.8543 137.588 54.1294C137.726 54.4046 137.795 54.6797 137.795 54.9548C137.795 55.1611 137.726 55.4362 137.657 55.6426C137.588 55.8489 137.451 55.9865 137.245 56.124C137.107 56.2616 136.901 56.3991 136.694 56.4679C136.488 56.5367 136.282 56.6055 136.007 56.6055H134.15C134.012 56.6055 133.874 56.6055 133.806 56.5367C133.737 56.4679 133.737 56.3991 133.737 56.1928V51.6534C133.737 51.5158 133.737 51.3783 133.806 51.3095C133.874 51.2407 133.943 51.2407 134.15 51.2407H135.869C136.075 51.2407 136.35 51.2407 136.557 51.3095C136.763 51.3783 136.969 51.4471 137.107 51.5159C137.245 51.6534 137.382 51.791 137.451 51.9285C137.52 52.0661 137.588 52.2724 137.588 52.5475C137.588 52.8227 137.52 52.9602 137.382 53.1665C137.313 53.2353 137.176 53.3729 136.969 53.5792ZM134.631 53.2353H136.007C136.075 53.2353 136.144 53.2353 136.282 53.2353C136.35 53.2353 136.488 53.1665 136.557 53.0978C136.626 53.029 136.694 52.9602 136.763 52.8914C136.832 52.8227 136.832 52.6851 136.832 52.5475C136.832 52.3412 136.763 52.2036 136.626 52.0661C136.488 51.9285 136.282 51.8597 136.075 51.8597H134.7V53.2353H134.631ZM137.038 54.8172C137.038 54.5421 136.969 54.3358 136.763 54.1294C136.557 53.9231 136.35 53.8543 136.007 53.8543H134.631V55.7113H136.007C136.213 55.7113 136.35 55.7114 136.488 55.6426C136.626 55.5738 136.694 55.505 136.832 55.4362C136.901 55.3675 136.969 55.2299 136.969 55.1611C136.969 55.0236 137.038 54.9548 137.038 54.8172Z" fill="#2BABE2"></path><path d="M139.24 56.5366C139.103 56.5366 138.965 56.5366 138.896 56.4678C138.828 56.3991 138.828 56.3303 138.828 56.1239V51.3094C138.828 51.2406 138.828 51.2407 138.896 51.1719C138.896 51.1719 138.965 51.1719 139.034 51.1719H139.584C139.653 51.1719 139.653 51.1719 139.722 51.1719C139.722 51.1719 139.722 51.2406 139.722 51.3094V53.2352H141.029C141.441 53.2352 141.785 53.304 142.06 53.4416C142.335 53.5791 142.473 53.7167 142.611 53.923C142.748 54.1294 142.817 54.2669 142.886 54.4733C142.954 54.6796 142.954 54.8172 142.954 54.9547C142.954 55.161 142.886 55.4362 142.817 55.6425C142.748 55.8488 142.611 55.9864 142.404 56.1927C142.267 56.3303 142.06 56.4678 141.854 56.5366C141.648 56.6054 141.373 56.6742 141.166 56.6742H139.24V56.5366ZM141.992 54.8171C141.992 54.6796 141.992 54.542 141.923 54.4045C141.854 54.2669 141.785 54.1981 141.716 54.1294C141.648 54.0606 141.51 53.9918 141.373 53.923C141.235 53.8542 141.097 53.8542 140.96 53.8542H139.584V55.78H140.891C141.097 55.78 141.235 55.78 141.373 55.7113C141.51 55.6425 141.648 55.5737 141.716 55.4361C141.785 55.3674 141.854 55.2298 141.854 55.0923C141.992 55.0235 141.992 54.8859 141.992 54.8171ZM144.124 56.399C144.124 56.4678 144.124 56.4678 144.124 56.5366C144.124 56.5366 144.055 56.5366 143.986 56.5366H143.436C143.367 56.5366 143.367 56.5366 143.298 56.5366C143.298 56.5366 143.298 56.4678 143.298 56.399V51.3094C143.298 51.2406 143.298 51.2407 143.298 51.1719C143.298 51.1719 143.367 51.1719 143.436 51.1719H143.986C144.055 51.1719 144.055 51.1719 144.124 51.1719C144.124 51.1719 144.124 51.2406 144.124 51.3094V56.399Z" fill="#2BABE2"></path><path d="M148.868 56.4679C148.868 56.4679 148.799 56.5367 148.731 56.5367H146.598C146.323 56.5367 146.117 56.4679 145.979 56.3991C145.842 56.3304 145.704 56.1928 145.567 56.124C145.498 55.9865 145.36 55.8489 145.36 55.7113C145.292 55.5738 145.292 55.3675 145.292 55.2299V52.5475C145.292 52.3412 145.292 52.2036 145.36 52.0661C145.429 51.9285 145.498 51.791 145.567 51.6534C145.704 51.5158 145.842 51.4471 145.979 51.3783C146.117 51.3095 146.323 51.2407 146.598 51.2407H148.731C148.799 51.2407 148.868 51.2407 148.868 51.3095C148.868 51.3095 148.868 51.3783 148.868 51.4471V51.791C148.868 51.8597 148.868 51.9285 148.868 51.9285C148.868 51.9285 148.799 51.9973 148.731 51.9973H146.598C146.392 51.9973 146.254 52.0661 146.186 52.1349C146.117 52.2036 146.048 52.3412 146.048 52.5475V53.5104H148.455C148.524 53.5104 148.593 53.5104 148.593 53.5792C148.593 53.5792 148.593 53.648 148.593 53.7168V54.0607C148.593 54.1294 148.593 54.1294 148.593 54.1982C148.593 54.1982 148.524 54.267 148.455 54.267H146.048V55.505C146.048 55.6426 146.117 55.7801 146.186 55.8489C146.254 55.9177 146.392 55.9865 146.598 55.9865H148.731C148.799 55.9865 148.868 55.9865 148.868 56.0552C148.868 56.0552 148.868 56.124 148.868 56.1928V56.5367C148.937 56.3991 148.937 56.3991 148.868 56.4679Z" fill="#2BABE2"></path><path d="M154.233 55.8488C154.439 55.8488 154.646 55.8488 154.852 55.78C155.058 55.7112 155.265 55.6424 155.402 55.5737C155.471 55.5737 155.54 55.5737 155.54 55.5737L155.608 55.6424L155.746 55.9863C155.815 56.0551 155.815 56.1239 155.746 56.1239L155.677 56.1927C155.402 56.3302 155.196 56.4678 154.852 56.4678C154.577 56.5365 154.302 56.5366 154.027 56.5366C153.683 56.5366 153.339 56.4678 153.064 56.399C152.789 56.2614 152.513 56.1239 152.307 55.9175C152.101 55.7112 151.963 55.4361 151.826 55.0922C151.688 54.7483 151.688 54.3356 151.688 53.923C151.688 53.5103 151.757 53.0976 151.894 52.7537C152.032 52.4098 152.17 52.1347 152.376 51.8596C152.582 51.5845 152.857 51.4469 153.132 51.3094C153.408 51.1718 153.751 51.103 154.095 51.103C154.302 51.103 154.508 51.103 154.783 51.1718C154.989 51.2406 155.265 51.3094 155.54 51.4469L155.608 51.5157C155.608 51.5157 155.608 51.5845 155.608 51.6532L155.402 52.0659C155.402 52.1347 155.333 52.1347 155.333 52.1347H155.265C155.127 52.0659 154.921 51.9971 154.783 51.9971C154.646 51.9971 154.439 51.9284 154.233 51.9284C153.958 51.9284 153.683 51.9972 153.476 52.1347C153.27 52.2723 153.132 52.4098 152.995 52.6161C152.857 52.8225 152.789 53.0288 152.72 53.3039C152.651 53.5791 152.651 53.7854 152.651 54.0605C152.651 54.3356 152.651 54.542 152.72 54.8171C152.789 55.0234 152.857 55.2297 152.995 55.4361C153.132 55.6424 153.27 55.78 153.476 55.8488C153.614 55.78 153.889 55.8488 154.233 55.8488Z" fill="#2BABE2"></path><path d="M160.011 52.2034L159.323 53.3727L157.672 56.1926C157.603 56.3301 157.535 56.3989 157.466 56.4677C157.397 56.5365 157.328 56.5365 157.191 56.5365H156.916C156.778 56.5365 156.641 56.4677 156.572 56.3989C156.503 56.3301 156.503 56.1926 156.503 56.055V51.2405C156.503 51.1717 156.503 51.1717 156.572 51.103C156.572 51.103 156.641 51.103 156.709 51.103H157.191C157.26 51.103 157.26 51.103 157.328 51.103C157.328 51.103 157.328 51.1717 157.328 51.2405V55.3672L157.947 54.2668L159.667 51.3781C159.736 51.2405 159.804 51.1717 159.873 51.103C159.942 51.0342 160.011 51.0342 160.148 51.0342H160.423C160.561 51.0342 160.698 51.103 160.767 51.1717C160.836 51.2405 160.836 51.3781 160.836 51.5156V56.3302C160.836 56.3989 160.836 56.3989 160.767 56.4677C160.767 56.4677 160.698 56.4677 160.63 56.4677H160.148C160.079 56.4677 160.079 56.4677 160.011 56.4677C160.011 56.4677 160.011 56.3989 160.011 56.3302V52.2034Z" fill="#2BABE2"></path><path d="M164.206 55.8488C164.412 55.8488 164.619 55.8488 164.825 55.78C165.031 55.7112 165.238 55.6424 165.375 55.5737C165.444 55.5737 165.513 55.5737 165.513 55.5737L165.582 55.6424L165.719 55.9863C165.788 56.0551 165.788 56.1239 165.719 56.1239L165.65 56.1927C165.375 56.3302 165.169 56.4678 164.825 56.4678C164.55 56.5365 164.275 56.5366 164 56.5366C163.656 56.5366 163.312 56.4678 163.037 56.399C162.762 56.2614 162.487 56.1239 162.28 55.9175C162.074 55.7112 161.936 55.4361 161.799 55.0922C161.661 54.7483 161.661 54.3356 161.661 53.923C161.661 53.5103 161.73 53.0976 161.868 52.7537C162.005 52.4098 162.143 52.1347 162.349 51.8596C162.555 51.5845 162.83 51.4469 163.106 51.3094C163.381 51.1718 163.725 51.103 164.068 51.103C164.275 51.103 164.481 51.103 164.756 51.1718C164.963 51.2406 165.238 51.3094 165.513 51.4469L165.582 51.5157C165.582 51.5157 165.582 51.5845 165.582 51.6532L165.375 52.0659C165.375 52.1347 165.306 52.1347 165.306 52.1347H165.238C165.1 52.0659 164.894 51.9971 164.756 51.9971C164.55 51.9284 164.412 51.9284 164.206 51.9284C163.931 51.9284 163.656 51.9972 163.449 52.1347C163.243 52.2723 163.106 52.4098 162.968 52.6161C162.83 52.8225 162.762 53.0288 162.693 53.3039C162.624 53.5791 162.624 53.7854 162.624 54.0605C162.624 54.3356 162.624 54.542 162.693 54.8171C162.762 55.0234 162.83 55.2297 162.968 55.4361C163.106 55.6424 163.243 55.78 163.449 55.8488C163.656 55.78 163.931 55.8488 164.206 55.8488Z" fill="#2BABE2"></path><path d="M167.714 51.8597H166.27C166.201 51.8597 166.201 51.8597 166.132 51.8597V51.7909V51.3782C166.132 51.3094 166.132 51.3094 166.132 51.2406C166.132 51.2406 166.201 51.1719 166.27 51.1719H170.053C170.122 51.1719 170.122 51.1719 170.19 51.2406C170.19 51.2406 170.19 51.3094 170.19 51.3782V51.7909C170.19 51.8597 170.19 51.8597 170.19 51.8597C170.19 51.8597 170.122 51.8597 170.053 51.8597H168.54V56.3303C168.54 56.3991 168.54 56.4678 168.471 56.4678C168.471 56.4678 168.402 56.4678 168.333 56.4678H167.852C167.783 56.4678 167.783 56.4678 167.714 56.4678C167.714 56.4678 167.646 56.3991 167.646 56.3303V51.8597H167.714Z" fill="#2BABE2"></path><path d="M174.454 56.4679C174.454 56.4679 174.385 56.5367 174.316 56.5367H172.184C171.909 56.5367 171.703 56.4679 171.565 56.3991C171.428 56.3304 171.29 56.1928 171.153 56.124C171.084 55.9865 170.946 55.8489 170.946 55.7113C170.878 55.5738 170.878 55.3675 170.878 55.2299V52.5475C170.878 52.3412 170.878 52.2036 170.946 52.0661C171.015 51.9285 171.084 51.791 171.153 51.6534C171.29 51.5158 171.428 51.4471 171.565 51.3783C171.703 51.3095 171.909 51.2407 172.184 51.2407H174.316C174.385 51.2407 174.454 51.2407 174.454 51.3095C174.454 51.3095 174.454 51.3783 174.454 51.4471V51.791C174.454 51.8597 174.454 51.9285 174.454 51.9285C174.454 51.9285 174.385 51.9973 174.316 51.9973H172.184C171.978 51.9973 171.84 52.0661 171.772 52.1349C171.703 52.2036 171.634 52.3412 171.634 52.5475V53.5104H174.041C174.11 53.5104 174.179 53.5104 174.179 53.5792C174.179 53.5792 174.179 53.648 174.179 53.7168V54.0607C174.179 54.1294 174.179 54.1294 174.179 54.1982C174.179 54.1982 174.11 54.267 174.041 54.267H171.634V55.505C171.634 55.6426 171.703 55.7801 171.772 55.8489C171.84 55.9177 171.978 55.9865 172.184 55.9865H174.316C174.385 55.9865 174.454 55.9865 174.454 56.0552C174.454 56.0552 174.454 56.124 174.454 56.1928V56.5367C174.454 56.3991 174.454 56.3991 174.454 56.4679Z" fill="#2BABE2"></path><path d="M179.682 52.5473L179.2 53.7165L178.444 55.5736C178.375 55.7111 178.306 55.7799 178.306 55.8487C178.237 55.9175 178.169 55.9175 178.031 55.9175H177.756C177.618 55.9175 177.55 55.9175 177.481 55.8487C177.412 55.7799 177.343 55.7111 177.343 55.5736L176.587 53.7853L176.174 52.6849H176.105V56.3989C176.105 56.4677 176.105 56.5365 176.036 56.5365C176.036 56.5365 175.968 56.5365 175.899 56.5365H175.486C175.417 56.5365 175.417 56.5365 175.349 56.5365C175.349 56.5365 175.28 56.4677 175.28 56.3989V51.5844C175.28 51.4468 175.28 51.3781 175.349 51.2405C175.417 51.1717 175.486 51.103 175.693 51.103H175.899C176.036 51.103 176.105 51.103 176.174 51.1717C176.243 51.2405 176.312 51.3093 176.38 51.4469L177.343 53.9229L177.756 55.0921L178.169 53.9229L179.131 51.3781C179.2 51.2405 179.269 51.1717 179.338 51.103C179.407 51.0342 179.475 51.0342 179.613 51.0342H179.819C179.957 51.0342 180.094 51.103 180.163 51.1717C180.232 51.2405 180.232 51.3781 180.232 51.5156V56.3302C180.232 56.3989 180.232 56.4677 180.163 56.4677C180.163 56.4677 180.094 56.4677 180.026 56.4677H179.613C179.544 56.4677 179.544 56.4677 179.475 56.4677C179.475 56.4677 179.407 56.3989 179.407 56.3302V52.5473H179.682Z" fill="#2BABE2"></path><path d="M182.02 56.5366C181.883 56.5366 181.745 56.5366 181.676 56.4678C181.607 56.3991 181.607 56.3303 181.607 56.1239V51.3094C181.607 51.2406 181.607 51.2407 181.676 51.1719C181.676 51.1719 181.745 51.1719 181.814 51.1719H182.364C182.433 51.1719 182.433 51.1719 182.502 51.1719C182.502 51.1719 182.502 51.2406 182.502 51.3094V53.2352H183.808C184.221 53.2352 184.565 53.304 184.84 53.4416C185.115 53.5791 185.253 53.7167 185.39 53.923C185.528 54.1294 185.597 54.2669 185.665 54.4733C185.734 54.6796 185.734 54.8172 185.734 54.9547C185.734 55.161 185.665 55.4362 185.597 55.6425C185.528 55.8488 185.39 55.9864 185.184 56.1927C184.978 56.3991 184.84 56.4678 184.634 56.5366C184.427 56.6054 184.152 56.6742 183.946 56.6742H182.02V56.5366ZM184.771 54.8171C184.771 54.6796 184.771 54.542 184.703 54.4045C184.634 54.2669 184.565 54.1981 184.496 54.1294C184.427 54.0606 184.29 53.9918 184.152 53.923C184.015 53.8542 183.877 53.8542 183.74 53.8542H182.364V55.78H183.671C183.877 55.78 184.015 55.78 184.152 55.7113C184.29 55.6425 184.427 55.5737 184.496 55.4361C184.565 55.3674 184.634 55.2298 184.634 55.0923C184.771 55.0235 184.771 54.8859 184.771 54.8171ZM186.903 56.399C186.903 56.4678 186.903 56.4678 186.903 56.5366C186.903 56.5366 186.835 56.5366 186.766 56.5366H186.216C186.147 56.5366 186.147 56.5366 186.078 56.5366C186.078 56.5366 186.009 56.4678 186.009 56.399V51.3094C186.009 51.2406 186.009 51.2407 186.078 51.1719C186.078 51.1719 186.147 51.1719 186.216 51.1719H186.766C186.835 51.1719 186.835 51.1719 186.903 51.1719C186.903 51.1719 186.903 51.2406 186.903 51.3094V56.399Z" fill="#2BABE2"></path><path d="M193.369 53.5792C193.644 53.7168 193.85 53.8543 193.988 54.1294C194.125 54.4046 194.194 54.6797 194.194 54.9548C194.194 55.1611 194.125 55.4362 194.057 55.6426C193.988 55.8489 193.85 55.9865 193.644 56.124C193.506 56.2616 193.3 56.3991 193.094 56.4679C192.887 56.5367 192.681 56.6055 192.406 56.6055H190.549C190.411 56.6055 190.274 56.6055 190.205 56.5367C190.136 56.4679 190.136 56.3991 190.136 56.1928V51.6534C190.136 51.5158 190.136 51.3783 190.205 51.3095C190.274 51.2407 190.343 51.2407 190.549 51.2407H192.268C192.475 51.2407 192.75 51.2407 192.956 51.3095C193.163 51.3783 193.369 51.4471 193.506 51.5159C193.644 51.6534 193.782 51.791 193.85 51.9285C193.919 52.0661 193.988 52.2724 193.988 52.5475C193.988 52.8227 193.919 52.9602 193.782 53.1665C193.644 53.2353 193.506 53.3729 193.369 53.5792ZM190.962 53.2353H192.337C192.406 53.2353 192.475 53.2353 192.612 53.2353C192.681 53.2353 192.819 53.1665 192.887 53.0978C192.956 53.029 193.025 52.9602 193.094 52.8914C193.163 52.8227 193.163 52.6851 193.163 52.5475C193.163 52.3412 193.094 52.2036 192.956 52.0661C192.819 51.9285 192.612 51.8597 192.406 51.8597H190.962V53.2353ZM193.369 54.8172C193.369 54.5421 193.3 54.3358 193.094 54.1294C192.887 53.9231 192.681 53.8543 192.337 53.8543H190.962V55.7113H192.337C192.544 55.7113 192.681 55.7114 192.819 55.6426C192.956 55.5738 193.025 55.505 193.163 55.4362C193.231 55.3675 193.3 55.2299 193.3 55.1611C193.369 55.0236 193.369 54.9548 193.369 54.8172Z" fill="#2BABE2"></path><path d="M198.802 56.4679C198.802 56.4679 198.733 56.5367 198.665 56.5367H196.532C196.257 56.5367 196.051 56.4679 195.913 56.3991C195.776 56.3304 195.638 56.1928 195.501 56.124C195.432 55.9865 195.294 55.8489 195.294 55.7113C195.226 55.5738 195.226 55.3675 195.226 55.2299V52.5475C195.226 52.3412 195.226 52.2036 195.294 52.0661C195.363 51.9285 195.432 51.791 195.501 51.6534C195.638 51.5158 195.776 51.4471 195.913 51.3783C196.051 51.3095 196.257 51.2407 196.532 51.2407H198.665C198.733 51.2407 198.802 51.2407 198.802 51.3095C198.802 51.3095 198.802 51.3783 198.802 51.4471V51.791C198.802 51.8597 198.802 51.9285 198.802 51.9285C198.802 51.9285 198.733 51.9973 198.665 51.9973H196.532C196.326 51.9973 196.189 52.0661 196.12 52.1349C196.051 52.2036 195.982 52.3412 195.982 52.5475V53.5104H198.389C198.458 53.5104 198.527 53.5104 198.527 53.5792C198.527 53.5792 198.527 53.648 198.527 53.7168V54.0607C198.527 54.1294 198.527 54.1294 198.527 54.1982C198.527 54.1982 198.458 54.267 198.389 54.267H195.982V55.505C195.982 55.6426 196.051 55.7801 196.12 55.8489C196.189 55.9177 196.326 55.9865 196.532 55.9865H198.665C198.733 55.9865 198.802 55.9865 198.802 56.0552C198.802 56.0552 198.802 56.124 198.802 56.1928V56.5367C198.802 56.3991 198.802 56.3991 198.802 56.4679Z" fill="#2BABE2"></path><path d="M203.067 51.3094C203.067 51.2406 203.067 51.1719 203.135 51.1719C203.135 51.1719 203.204 51.1719 203.273 51.1719H203.686C203.754 51.1719 203.823 51.1719 203.823 51.1719C203.823 51.1719 203.892 51.2406 203.892 51.3094V56.3303C203.892 56.3991 203.892 56.4678 203.823 56.4678C203.823 56.4678 203.754 56.4678 203.686 56.4678H203.273C203.204 56.4678 203.204 56.4678 203.135 56.4678C203.135 56.4678 203.067 56.3991 203.067 56.3303V53.9918H200.522V56.3303C200.522 56.3991 200.522 56.4678 200.453 56.4678C200.453 56.4678 200.384 56.4678 200.315 56.4678H199.903C199.834 56.4678 199.834 56.4678 199.765 56.4678C199.765 56.4678 199.696 56.3991 199.696 56.3303V51.3094C199.696 51.2406 199.696 51.1719 199.765 51.1719C199.765 51.1719 199.834 51.1719 199.903 51.1719H200.315C200.384 51.1719 200.453 51.1719 200.453 51.1719C200.453 51.1719 200.522 51.2406 200.522 51.3094V53.3728H203.067V51.3094Z" fill="#2BABE2"></path><path d="M206.161 51.8597H204.716C204.647 51.8597 204.647 51.8597 204.579 51.8597V51.7909V51.3782C204.579 51.3094 204.579 51.3094 204.579 51.2406C204.579 51.2406 204.647 51.1719 204.716 51.1719H208.499C208.568 51.1719 208.568 51.1719 208.637 51.2406C208.637 51.2406 208.637 51.3094 208.637 51.3782V51.7909C208.637 51.8597 208.637 51.8597 208.637 51.8597C208.637 51.8597 208.568 51.8597 208.499 51.8597H206.986V56.3303C206.986 56.3991 206.986 56.4678 206.917 56.4678C206.917 56.4678 206.848 56.4678 206.78 56.4678H206.298C206.229 56.4678 206.229 56.4678 206.161 56.4678C206.161 56.4678 206.092 56.3991 206.092 56.3303V51.8597H206.161Z" fill="#2BABE2"></path><path d="M212.695 52.2034L212.007 53.3727L210.357 56.1926C210.288 56.3301 210.219 56.3989 210.15 56.4677C210.082 56.5365 210.013 56.5365 209.875 56.5365H209.6C209.463 56.5365 209.325 56.4677 209.256 56.3989C209.188 56.3301 209.188 56.1926 209.188 56.055V51.2405C209.188 51.1717 209.188 51.1717 209.256 51.103C209.256 51.103 209.325 51.103 209.394 51.103H209.875C209.944 51.103 209.944 51.103 210.013 51.103C210.013 51.103 210.013 51.1717 210.013 51.2405V55.3672L210.632 54.2668L212.351 51.3781C212.42 51.2405 212.489 51.1717 212.558 51.103C212.627 51.0342 212.695 51.0342 212.833 51.0342H213.108C213.246 51.0342 213.383 51.103 213.452 51.1717C213.521 51.2405 213.521 51.3781 213.521 51.5156V56.3302C213.521 56.3989 213.521 56.3989 213.452 56.4677C213.452 56.4677 213.383 56.4677 213.314 56.4677H212.833C212.764 56.4677 212.764 56.4677 212.695 56.4677C212.695 56.4677 212.695 56.3989 212.695 56.3302V52.2034Z" fill="#2BABE2"></path><path d="M215.377 51.6532C215.377 51.4469 215.446 51.3094 215.515 51.2406C215.584 51.1718 215.721 51.103 215.859 51.103H218.197C218.335 51.103 218.472 51.1718 218.541 51.2406C218.61 51.3094 218.679 51.4469 218.679 51.6532V56.399C218.679 56.4678 218.679 56.4678 218.679 56.5366C218.679 56.5366 218.61 56.5366 218.541 56.5366H217.991C217.922 56.5366 217.922 56.5366 217.853 56.5366C217.853 56.5366 217.853 56.4678 217.853 56.399V51.8596H216.065L215.996 52.6161C215.927 53.1664 215.927 53.7166 215.859 54.1981C215.79 54.6795 215.721 55.0234 215.652 55.3673C215.515 55.7112 215.377 55.9863 215.171 56.1927C214.965 56.399 214.689 56.5366 214.345 56.6741C214.277 56.6741 214.277 56.6741 214.208 56.6741C214.208 56.6741 214.139 56.6053 214.139 56.5366L214.07 56.1927C214.07 56.1239 214.07 56.0551 214.07 56.0551L214.139 55.9863C214.345 55.9176 214.552 55.78 214.621 55.6424C214.758 55.5049 214.827 55.2985 214.896 55.0234C214.965 54.7483 215.033 54.4732 215.033 54.0605C215.033 53.7166 215.102 53.2352 215.171 52.6849L215.377 51.6532Z" fill="#2BABE2"></path><path d="M222.806 54.1979H221.774C221.499 54.1979 221.293 54.2667 221.155 54.3355C220.949 54.4043 220.88 54.6106 220.742 54.8857L220.33 56.3301C220.33 56.3989 220.261 56.3989 220.261 56.3989H220.192H219.642C219.573 56.3989 219.504 56.3989 219.504 56.3301C219.504 56.2613 219.504 56.2613 219.504 56.2613L219.917 54.7482C219.986 54.5418 220.055 54.4043 220.123 54.2667C220.192 54.1292 220.399 54.0604 220.605 53.9228C220.33 53.7853 220.123 53.6477 219.986 53.3726C219.848 53.1663 219.78 52.8912 219.78 52.5473C219.78 52.3409 219.848 52.1346 219.917 51.9282C219.986 51.7219 220.123 51.5843 220.261 51.4468C220.399 51.3092 220.605 51.1717 220.811 51.1029C221.018 51.0341 221.224 50.9653 221.499 50.9653H223.287C223.425 50.9653 223.562 50.9653 223.631 51.0341C223.7 51.1029 223.7 51.1717 223.7 51.378V56.1925C223.7 56.2613 223.7 56.2613 223.631 56.3301C223.631 56.3301 223.562 56.3301 223.494 56.3301H222.943C222.875 56.3301 222.875 56.3301 222.806 56.3301C222.806 56.3301 222.806 56.2613 222.806 56.1925V54.1979ZM220.605 52.6848C220.605 52.8224 220.605 52.8911 220.674 53.0287C220.742 53.0975 220.742 53.235 220.88 53.3038C220.949 53.3726 221.086 53.4414 221.224 53.5102C221.361 53.5789 221.499 53.5789 221.705 53.5789H222.943V51.8595H221.705C221.499 51.8595 221.361 51.8595 221.224 51.9282C221.086 51.997 221.018 52.0658 220.949 52.1346C220.88 52.2034 220.811 52.3409 220.811 52.4097C220.605 52.5472 220.605 52.616 220.605 52.6848Z" fill="#2BABE2"></path><path d="M229.203 55.7799C229.272 55.7799 229.341 55.7799 229.341 55.8486C229.41 55.8486 229.41 55.9174 229.41 55.9174V55.9862C229.41 56.055 229.41 56.055 229.41 56.055L229.341 57.5681C229.341 57.6369 229.341 57.6369 229.272 57.7057H229.203H228.79C228.722 57.7057 228.722 57.6369 228.722 57.5681L228.653 56.3989H225.283C225.145 56.3989 225.008 56.3301 224.939 56.2613C224.87 56.1925 224.801 56.055 224.801 55.8486V51.1029C224.801 51.0341 224.801 51.0341 224.87 50.9653C224.87 50.9653 224.939 50.9653 225.008 50.9653H225.558C225.627 50.9653 225.627 50.9653 225.695 50.9653C225.695 50.9653 225.695 51.0341 225.695 51.1029V55.6423H228.24V51.1029C228.24 51.0341 228.24 51.0341 228.309 50.9653C228.309 50.9653 228.378 50.9653 228.447 50.9653H228.928C228.997 50.9653 228.997 50.9653 229.066 50.9653C229.066 50.9653 229.066 51.0341 229.066 51.1029V55.6423L229.203 55.7799Z" fill="#2BABE2"></path><path d="M233.672 52.2034L232.985 53.3727L231.334 56.1926C231.265 56.3301 231.196 56.3989 231.128 56.4677C231.059 56.5365 230.99 56.5365 230.852 56.5365H230.646C230.509 56.5365 230.371 56.4677 230.302 56.3989C230.233 56.3301 230.233 56.1926 230.233 56.055V51.2405C230.233 51.1717 230.233 51.1717 230.302 51.103C230.302 51.103 230.371 51.103 230.44 51.103H230.921C230.99 51.103 230.99 51.103 231.059 51.103C231.059 51.103 231.059 51.1717 231.059 51.2405V55.3672L231.678 54.2668L233.397 51.3781C233.466 51.2405 233.535 51.1717 233.604 51.103C233.672 51.0342 233.741 51.0342 233.879 51.0342H234.154C234.291 51.0342 234.429 51.103 234.498 51.1717C234.567 51.2405 234.567 51.3781 234.567 51.5156V56.3302C234.567 56.3989 234.567 56.3989 234.567 56.4677C234.567 56.4677 234.498 56.4677 234.429 56.4677H233.948C233.879 56.4677 233.879 56.4677 233.81 56.4677C233.81 56.4677 233.81 56.3989 233.81 56.3302L233.672 52.2034Z" fill="#2BABE2"></path><path d="M239.038 52.2034L238.35 53.3727L236.699 56.1926C236.63 56.3301 236.562 56.3989 236.493 56.4677C236.424 56.5365 236.355 56.5365 236.218 56.5365H235.943C235.805 56.5365 235.667 56.4677 235.599 56.3989C235.53 56.3301 235.53 56.1926 235.53 56.055V51.2405C235.53 51.1717 235.53 51.1717 235.599 51.103C235.599 51.103 235.667 51.103 235.736 51.103H236.218C236.286 51.103 236.286 51.103 236.355 51.103C236.355 51.103 236.355 51.1717 236.355 51.2405V55.3672L236.974 54.2668L238.694 51.3781C238.762 51.2405 238.831 51.1717 238.9 51.103C238.969 51.0342 239.038 51.0342 239.175 51.0342H239.45C239.588 51.0342 239.725 51.103 239.794 51.1717C239.863 51.2405 239.863 51.3781 239.863 51.5156V56.3302C239.863 56.3989 239.863 56.3989 239.794 56.4677C239.794 56.4677 239.725 56.4677 239.657 56.4677H239.175C239.106 56.4677 239.106 56.4677 239.038 56.4677C239.038 56.4677 239.038 56.3989 239.038 56.3302V52.2034Z" fill="#2BABE2"></path></svg> 