<svg width="347" height="53" viewBox="0 0 347 53" fill="none" xmlns="http://www.w3.org/2000/svg">
<path d="M76.91 28.9492H67V14.9492H76.91V17.5692H69.98V20.5292H76.76V23.1592H69.98V26.3292H76.91V28.9492Z" fill="#253558"/>
<path d="M89.0797 28.9505H85.7497L83.0597 25.0406L81.8397 26.3505V28.9505H79.1797V18.8105H81.8397V23.3205L85.6797 18.8105H88.9597L84.9497 23.4106L89.0797 28.9505Z" fill="#253558"/>
<path d="M94.349 27.3999C94.7527 27.437 95.1593 27.3753 95.5339 27.2203C95.9084 27.0652 96.2397 26.8214 96.499 26.5099V25.2599C96.2397 24.9483 95.9084 24.7045 95.5339 24.5495C95.1593 24.3944 94.7527 24.3328 94.349 24.3699C93.863 24.3539 93.3852 24.498 92.989 24.7799C92.8132 24.9101 92.6714 25.0808 92.5757 25.2775C92.4799 25.4743 92.433 25.6912 92.439 25.9099C92.4344 26.1227 92.4822 26.3334 92.5781 26.5235C92.674 26.7135 92.8151 26.8771 92.989 26.9999C93.3883 27.2743 93.8647 27.4145 94.349 27.3999ZM99.159 28.9499H96.529V27.8999C96.1245 28.3446 95.6249 28.6925 95.0674 28.9175C94.51 29.1426 93.9089 29.2391 93.309 29.1999C92.4156 29.2033 91.5504 28.8877 90.869 28.3099C90.5088 28.011 90.2235 27.6319 90.0359 27.203C89.8484 26.7741 89.7638 26.3073 89.789 25.8399C89.7549 25.3763 89.8334 24.9113 90.018 24.4847C90.2026 24.058 90.4877 23.6824 90.849 23.3899C91.5507 22.8425 92.4192 22.553 93.309 22.5699C93.9043 22.5231 94.5024 22.6102 95.0596 22.8248C95.6168 23.0394 96.1189 23.376 96.529 23.8099V22.4399C96.5334 22.1995 96.4803 21.9617 96.3742 21.746C96.2681 21.5303 96.112 21.3431 95.919 21.1999C95.4425 20.8765 94.8744 20.7152 94.299 20.7399C93.1798 20.7282 92.1014 21.1596 91.299 21.9399L90.299 20.1599C91.5207 19.0863 93.1033 18.5147 94.729 18.5599C95.8614 18.5097 96.9799 18.8253 97.919 19.4599C98.3518 19.8099 98.6915 20.2614 98.9078 20.7743C99.1241 21.2872 99.2104 21.8456 99.159 22.3999V28.9499Z" fill="#253558"/>
<path d="M106.36 28.9505H103.67V21.1405H100.84V18.8105H109.19V21.1405H106.36V28.9505Z" fill="#253558"/>
<path d="M117.97 22.9302C117.927 22.3481 117.687 21.7979 117.29 21.3702C117.054 21.1308 116.77 20.9452 116.455 20.8261C116.141 20.707 115.805 20.6572 115.47 20.6802C115.145 20.6627 114.82 20.7142 114.517 20.8314C114.214 20.9486 113.939 21.1289 113.71 21.3602C113.301 21.7908 113.042 22.3411 112.97 22.9302H117.97ZM115.64 29.2002C114.928 29.2248 114.218 29.1075 113.552 28.8551C112.886 28.6027 112.277 28.2203 111.76 27.7302C111.245 27.2321 110.842 26.6306 110.576 25.9653C110.311 25.2999 110.189 24.5859 110.22 23.8702C110.203 23.1735 110.326 22.4804 110.58 21.8314C110.834 21.1824 111.215 20.5905 111.7 20.0902C112.186 19.5852 112.773 19.188 113.422 18.9244C114.072 18.6608 114.769 18.5368 115.47 18.5602C116.157 18.5335 116.842 18.6575 117.476 18.9235C118.11 19.1896 118.678 19.5912 119.14 20.1002C120.101 21.2062 120.605 22.6362 120.55 24.1002V24.6902H113.02C113.092 25.3455 113.414 25.9476 113.92 26.3702C114.484 26.8283 115.194 27.0663 115.92 27.0402C116.418 27.0318 116.912 26.9406 117.38 26.7702C117.848 26.6236 118.276 26.3703 118.63 26.0302L119.81 27.7602C118.653 28.7523 117.162 29.2672 115.64 29.2002Z" fill="#253558"/>
<path d="M127.441 26.8298C127.791 26.844 128.141 26.7774 128.461 26.6352C128.782 26.493 129.066 26.2791 129.291 26.0098C129.752 25.3953 130.001 24.6479 130.001 23.8798C130.001 23.1117 129.752 22.3643 129.291 21.7498C129.066 21.4805 128.782 21.2665 128.461 21.1244C128.141 20.9822 127.791 20.9156 127.441 20.9298C126.983 20.9335 126.533 21.0503 126.131 21.2698C125.732 21.4515 125.387 21.7341 125.131 22.0898V25.6798C125.388 26.0321 125.733 26.3113 126.131 26.4898C126.527 26.7065 126.97 26.8233 127.421 26.8298M128.261 29.1998C127.653 29.2097 127.052 29.0742 126.508 28.8046C125.963 28.535 125.491 28.139 125.131 27.6498V32.8098H122.531V18.8098H125.201V20.0798C125.562 19.593 126.035 19.2001 126.58 18.9338C127.124 18.6676 127.725 18.5359 128.331 18.5498C128.937 18.5368 129.538 18.6583 130.091 18.9056C130.645 19.1529 131.136 19.5197 131.531 19.9798C132.344 21.1157 132.782 22.4777 132.782 23.8748C132.782 25.2719 132.344 26.6339 131.531 27.7698C131.132 28.2382 130.633 28.6102 130.07 28.8579C129.507 29.1056 128.895 29.2225 128.281 29.1998H128.261Z" fill="#253558"/>
<path d="M137.279 28.9505H134.719V18.8105H137.379V24.9406L141.559 18.8105H144.249V28.9505H141.579V22.5905L137.279 28.9505Z" fill="#253558"/>
<path d="M149.561 28.9505H146.891V18.8105H149.561V22.5705H153.761V18.8105H156.421V28.9505H153.761V24.9006H149.561V28.9505Z" fill="#253558"/>
<path d="M161.881 25.9801C162.107 26.2604 162.396 26.4834 162.724 26.6311C163.053 26.7788 163.411 26.847 163.771 26.8301C164.132 26.8454 164.492 26.7765 164.821 26.629C165.151 26.4815 165.442 26.2593 165.671 25.9801C166.149 25.383 166.397 24.6345 166.371 23.8701C166.396 23.112 166.148 22.3702 165.671 21.7801C165.442 21.5008 165.151 21.2787 164.821 21.1311C164.492 20.9836 164.132 20.9148 163.771 20.9301C163.411 20.9132 163.053 20.9814 162.724 21.1291C162.396 21.2767 162.107 21.4998 161.881 21.7801C161.412 22.3737 161.168 23.1139 161.191 23.8701C161.166 24.6326 161.411 25.3795 161.881 25.9801ZM167.681 27.6601C167.174 28.1772 166.564 28.5817 165.89 28.847C165.217 29.1124 164.494 29.2327 163.771 29.2001C163.051 29.2336 162.331 29.1137 161.661 28.8482C160.99 28.5827 160.383 28.1777 159.881 27.6601C158.942 26.623 158.422 25.274 158.422 23.8751C158.422 22.4762 158.942 21.1272 159.881 20.0901C160.385 19.5758 160.992 19.1736 161.663 18.91C162.333 18.6464 163.052 18.5271 163.771 18.5601C164.493 18.5281 165.215 18.6477 165.888 18.9112C166.561 19.1747 167.172 19.5763 167.681 20.0901C168.62 21.1272 169.14 22.4762 169.14 23.8751C169.14 25.274 168.62 26.623 167.681 27.6601Z" fill="#253558"/>
<path d="M174.772 21.1405L174.462 23.8905C174.408 24.9123 173.989 25.8809 173.282 26.6206H177.982V21.1405H174.772ZM170.172 31.5305V26.7206C170.438 26.6885 170.69 26.5847 170.902 26.4205C171.133 26.1764 171.304 25.882 171.402 25.5605C171.599 24.9633 171.73 24.3464 171.792 23.7206L172.442 18.8105H180.652V26.6206H181.762V31.5305H179.092V28.9505H172.862V31.5305H170.172Z" fill="#253558"/>
<path d="M187.389 27.4001C187.791 27.4364 188.196 27.3743 188.569 27.2193C188.942 27.0642 189.271 26.8208 189.529 26.5101V25.2601C189.271 24.9494 188.942 24.706 188.569 24.5509C188.196 24.3959 187.791 24.3338 187.389 24.3701C186.9 24.3542 186.419 24.4981 186.019 24.7801C185.844 24.9108 185.704 25.0819 185.61 25.2787C185.516 25.4755 185.471 25.6921 185.479 25.9101C185.472 26.1222 185.518 26.3326 185.612 26.5228C185.707 26.7129 185.846 26.8769 186.019 27.0001C186.422 27.2747 186.902 27.4147 187.389 27.4001ZM192.189 28.9501H189.529V27.9001C189.126 28.3435 188.628 28.6905 188.072 28.9155C187.516 29.1405 186.917 29.2378 186.319 29.2001C185.423 29.2042 184.554 28.8887 183.869 28.3101C183.509 28.0112 183.223 27.6321 183.036 27.2032C182.848 26.7744 182.764 26.3075 182.789 25.8401C182.755 25.3765 182.833 24.9115 183.018 24.4849C183.203 24.0583 183.488 23.6826 183.849 23.3901C184.555 22.8427 185.426 22.5534 186.319 22.5701C186.913 22.5249 187.509 22.6128 188.064 22.8273C188.619 23.0418 189.12 23.3776 189.529 23.8101V22.4401C189.533 22.1998 189.48 21.9619 189.374 21.7462C189.268 21.5306 189.112 21.3433 188.919 21.2001C188.442 20.8767 187.874 20.7154 187.299 20.7401C186.18 20.7306 185.103 21.1617 184.299 21.9401L183.299 20.1601C184.516 19.0845 186.096 18.5125 187.719 18.5601C188.852 18.5085 189.97 18.8242 190.909 19.4601C191.342 19.8102 191.681 20.2617 191.898 20.7746C192.114 21.2875 192.2 21.8459 192.149 22.4001L192.189 28.9501Z" fill="#253558"/>
<path d="M199.788 26.8309C200.14 26.8444 200.49 26.7775 200.813 26.6355C201.135 26.4934 201.421 26.2798 201.648 26.0109C202.103 25.3939 202.348 24.6474 202.348 23.8809C202.348 23.1144 202.103 22.368 201.648 21.7509C201.421 21.482 201.135 21.2684 200.813 21.1264C200.49 20.9843 200.14 20.9174 199.788 20.9309C199.333 20.9346 198.886 21.0514 198.488 21.2709C198.092 21.4568 197.748 21.7386 197.488 22.0909V25.6809C197.75 26.0287 198.093 26.3068 198.488 26.4909C198.884 26.7076 199.327 26.8244 199.778 26.8309M200.618 29.2009C200.011 29.2092 199.41 29.073 198.866 28.8035C198.322 28.534 197.85 28.1389 197.488 27.6509V32.8109H194.828V18.8109H197.528V20.0809C197.889 19.5942 198.362 19.2012 198.907 18.9349C199.452 18.6687 200.052 18.537 200.658 18.5509C201.271 18.5314 201.881 18.6487 202.443 18.8943C203.005 19.1399 203.506 19.5077 203.908 19.9709C204.714 21.1097 205.148 22.4706 205.148 23.8659C205.148 25.2612 204.714 26.6222 203.908 27.7609C203.506 28.2329 203.001 28.6077 202.433 28.8571C201.865 29.1065 201.248 29.224 200.628 29.2009H200.618Z" fill="#253558"/>
<path d="M215.382 28.9492H212.512V14.9492H215.492V23.9992L221.982 14.9492H225.042V28.9492H222.062V19.5692L215.382 28.9492Z" fill="#253558"/>
<path d="M230.41 28.9505H227.75V18.8105H230.41V22.5705H234.61V18.8105H237.28V28.9505H234.61V24.9006H230.41V28.9505Z" fill="#253558"/>
<path d="M245.89 26.771C246.168 26.7853 246.44 26.6921 246.65 26.511C246.748 26.4257 246.825 26.3192 246.875 26.1996C246.925 26.08 246.948 25.9505 246.94 25.821C246.941 25.6952 246.916 25.5706 246.866 25.4552C246.816 25.3398 246.743 25.2362 246.65 25.151C246.549 25.0557 246.429 24.9824 246.299 24.936C246.168 24.8895 246.029 24.8707 245.89 24.881H242.59V26.771H245.89ZM245.8 22.691C246.052 22.7008 246.299 22.6151 246.49 22.451C246.574 22.3753 246.64 22.2826 246.685 22.1792C246.73 22.0757 246.752 21.9637 246.75 21.851C246.752 21.7376 246.731 21.625 246.688 21.5201C246.645 21.4152 246.581 21.3202 246.5 21.241C246.308 21.0708 246.057 20.9813 245.8 20.991H242.59V22.691H245.8ZM246.54 28.951H239.93V18.811H246.35C247.183 18.759 248.004 19.0313 248.64 19.571C248.9 19.8012 249.108 20.0846 249.25 20.402C249.391 20.7194 249.463 21.0635 249.46 21.411C249.479 21.9501 249.305 22.4783 248.97 22.901C248.66 23.3046 248.223 23.5932 247.73 23.721C248.282 23.8422 248.774 24.1537 249.12 24.601C249.52 25.1267 249.712 25.781 249.661 26.4393C249.609 27.0977 249.317 27.714 248.84 28.171C248.201 28.7218 247.372 29.0017 246.53 28.951H246.54Z" fill="#253558"/>
<path d="M259.319 22.9301C259.276 22.3479 259.036 21.7978 258.639 21.3701C258.147 20.9288 257.51 20.6846 256.849 20.6846C256.188 20.6846 255.551 20.9288 255.059 21.3701C254.653 21.8012 254.397 22.3518 254.329 22.9401L259.319 22.9301ZM256.989 29.2001C256.277 29.2241 255.568 29.1065 254.902 28.8542C254.236 28.6018 253.626 28.2197 253.109 27.7301C252.598 27.23 252.197 26.6278 251.934 25.9628C251.67 25.2978 251.549 24.5848 251.579 23.8701C251.56 23.173 251.682 22.4793 251.936 21.83C252.19 21.1807 252.572 20.589 253.059 20.0901C253.544 19.5863 254.129 19.1899 254.777 18.9263C255.425 18.6628 256.12 18.538 256.819 18.5601C257.511 18.527 258.202 18.6459 258.843 18.9085C259.484 19.1711 260.059 19.571 260.529 20.0801C261.487 21.187 261.988 22.6173 261.929 24.0801V24.6701H254.399C254.471 25.3253 254.793 25.9274 255.299 26.3501C255.863 26.8081 256.573 27.0462 257.299 27.0201C257.794 27.0108 258.284 26.9196 258.749 26.7501C259.219 26.6059 259.647 26.3523 259.999 26.0101L261.179 27.7401C260.02 28.7443 258.521 29.2667 256.989 29.2001Z" fill="#253558"/>
<path d="M268.53 29.1992C267.819 29.2247 267.111 29.1058 266.447 28.8497C265.784 28.5936 265.179 28.2056 264.67 27.7092C263.695 26.6724 263.152 25.3026 263.152 23.8792C263.152 22.4558 263.695 21.086 264.67 20.0492C265.179 19.5528 265.784 19.1648 266.447 18.9087C267.111 18.6526 267.819 18.5337 268.53 18.5592C269.296 18.5077 270.063 18.6481 270.762 18.9676C271.46 19.2871 272.068 19.7757 272.53 20.3892L270.79 22.0192C270.556 21.6676 270.235 21.3825 269.858 21.1915C269.482 21.0005 269.062 20.9102 268.64 20.9292C268.268 20.9132 267.897 20.9772 267.552 21.1169C267.207 21.2567 266.896 21.4689 266.64 21.7392C266.142 22.339 265.869 23.0943 265.869 23.8742C265.869 24.6541 266.142 25.4094 266.64 26.0092C266.894 26.2829 267.204 26.4981 267.55 26.6397C267.895 26.7813 268.267 26.846 268.64 26.8292C269.061 26.8435 269.479 26.751 269.855 26.5604C270.231 26.3699 270.553 26.0874 270.79 25.7392L272.53 27.3492C272.072 27.9684 271.466 28.4624 270.767 28.7857C270.068 29.109 269.298 29.2512 268.53 29.1992Z" fill="#253558"/>
<path d="M278.86 28.9505H276.18V21.1405H273.34V18.8105H281.7V21.1405H278.86V28.9505Z" fill="#253558"/>
<path d="M295.591 29.2007C293.623 29.2654 291.709 28.5461 290.271 27.2007C288.906 25.8064 288.141 23.9324 288.141 21.9807C288.141 20.029 288.906 18.155 290.271 16.7607C291.709 15.4153 293.623 14.696 295.591 14.7607C296.792 14.7134 297.982 15.0102 299.02 15.6161C300.058 16.2219 300.902 17.1117 301.451 18.1807L298.891 19.4407C298.574 18.8461 298.109 18.3433 297.541 17.9807C296.961 17.6034 296.284 17.402 295.591 17.4007C295.006 17.3842 294.423 17.4914 293.882 17.7155C293.341 17.9395 292.854 18.2752 292.451 18.7007C291.65 19.6132 291.208 20.7862 291.208 22.0007C291.208 23.2153 291.65 24.3883 292.451 25.3007C292.854 25.7262 293.341 26.062 293.882 26.286C294.423 26.51 295.006 26.6172 295.591 26.6007C296.283 26.603 296.96 26.405 297.541 26.0307C298.114 25.6694 298.58 25.162 298.891 24.5607L301.451 25.8007C300.897 26.8672 300.053 27.7557 299.016 28.3642C297.98 28.9727 296.793 29.2765 295.591 29.2407" fill="#253558"/>
<path d="M307.719 28.9505H305.039V21.1405H302.199V18.8105H310.559V21.1405H307.719V28.9505Z" fill="#253558"/>
<path d="M317.19 26.8309C317.542 26.8444 317.892 26.7775 318.215 26.6355C318.537 26.4934 318.823 26.2798 319.05 26.0109C319.511 25.3964 319.76 24.649 319.76 23.8809C319.76 23.1128 319.511 22.3654 319.05 21.7509C318.823 21.482 318.537 21.2684 318.215 21.1264C317.892 20.9843 317.542 20.9174 317.19 20.9309C316.735 20.9358 316.289 21.0526 315.89 21.2709C315.491 21.4526 315.146 21.7353 314.89 22.0909V25.6809C315.149 26.032 315.493 26.3108 315.89 26.4909C316.286 26.7076 316.729 26.8244 317.18 26.8309M318.02 29.2009C317.414 29.2101 316.815 29.0741 316.272 28.8045C315.729 28.5349 315.259 28.1394 314.9 27.6509V32.8109H312.23V18.8109H314.9V20.0809C315.259 19.5943 315.73 19.2013 316.273 18.935C316.816 18.6687 317.415 18.537 318.02 18.5509C318.633 18.5314 319.243 18.6487 319.805 18.8943C320.367 19.1399 320.868 19.5077 321.27 19.9709C322.083 21.1068 322.521 22.4688 322.521 23.8659C322.521 25.263 322.083 26.625 321.27 27.7609C320.872 28.2275 320.374 28.5991 319.813 28.8482C319.253 29.0974 318.643 29.2179 318.03 29.2009H318.02Z" fill="#253558"/>
<path d="M327.291 25.9796C327.517 26.2599 327.806 26.4829 328.134 26.6306C328.463 26.7783 328.821 26.8465 329.181 26.8296C329.542 26.8449 329.901 26.7761 330.231 26.6285C330.561 26.481 330.852 26.2589 331.081 25.9796C331.559 25.3825 331.807 24.634 331.781 23.8696C331.806 23.1115 331.557 22.3697 331.081 21.7796C330.852 21.5003 330.561 21.2782 330.231 21.1306C329.901 20.9831 329.542 20.9143 329.181 20.9296C328.821 20.9127 328.463 20.9809 328.134 21.1286C327.806 21.2763 327.517 21.4993 327.291 21.7796C326.822 22.3732 326.577 23.1134 326.601 23.8696C326.576 24.6321 326.82 25.379 327.291 25.9796ZM333.081 27.6596C332.025 28.648 330.632 29.198 329.186 29.198C327.739 29.198 326.347 28.648 325.291 27.6596C324.352 26.6225 323.832 25.2735 323.832 23.8746C323.832 22.4757 324.352 21.1267 325.291 20.0896C326.349 19.1055 327.741 18.5586 329.186 18.5586C330.631 18.5586 332.022 19.1055 333.081 20.0896C334.026 21.1236 334.55 22.4737 334.55 23.8746C334.55 25.2755 334.026 26.6256 333.081 27.6596Z" fill="#253558"/>
<path d="M344.971 15.9609C344.557 16.5481 344.005 17.0236 343.363 17.3447C342.72 17.6658 342.009 17.8226 341.291 17.8009C340.572 17.8181 339.861 17.6594 339.217 17.3387C338.574 17.018 338.019 16.5451 337.601 15.9609L338.771 14.9609C339.055 15.3593 339.43 15.6841 339.865 15.9081C340.299 16.1322 340.782 16.2491 341.271 16.2491C341.76 16.2491 342.242 16.1322 342.677 15.9081C343.112 15.6841 343.487 15.3593 343.771 14.9609L344.971 15.9609ZM339.091 28.9609H336.531V18.8109H339.191V24.9409L343.371 18.8109H346.061V28.9509H343.391V22.5909L339.091 28.9609Z" fill="#253558"/>
<path d="M69.959 47.0792C69.556 47.0942 69.155 47.0202 68.785 46.8612C68.415 46.7012 68.085 46.4622 67.819 46.1592C67.29 45.5192 67 44.7142 67 43.8842C67 43.0532 67.29 42.2492 67.819 41.6092C68.087 41.3102 68.418 41.0732 68.788 40.9162C69.158 40.7582 69.557 40.6842 69.959 40.6992C70.372 40.6842 70.783 40.7672 71.159 40.9412C71.534 41.1142 71.863 41.3742 72.119 41.6992L71.659 42.0992C71.471 41.8352 71.222 41.6212 70.933 41.4742C70.644 41.3282 70.323 41.2542 69.999 41.2592C69.683 41.2482 69.368 41.3092 69.079 41.4372C68.79 41.5652 68.533 41.7572 68.329 41.9992C67.907 42.5212 67.686 43.1782 67.709 43.8492C67.687 44.5262 67.907 45.1892 68.329 45.7192C68.533 45.9612 68.79 46.1532 69.079 46.2812C69.368 46.4092 69.683 46.4702 69.999 46.4592C70.326 46.4672 70.649 46.3922 70.94 46.2422C71.23 46.0922 71.477 45.8712 71.659 45.5992L72.119 46.0092C71.863 46.3342 71.534 46.5942 71.159 46.7672C70.783 46.9412 70.372 47.0242 69.959 47.0092" fill="#253558"/>
<path d="M75.3406 46.8808H74.6806V41.3808H72.8906V40.8008H77.1406V41.3808H75.3406V46.8808Z" fill="#253558"/>
<path d="M81.1717 46.4403C81.4717 46.4533 81.7697 46.3943 82.0417 46.2663C82.3127 46.1393 82.5497 45.9483 82.7317 45.7103C83.1037 45.1573 83.3027 44.5063 83.3027 43.8403C83.3027 43.1743 83.1037 42.5233 82.7317 41.9703C82.5497 41.7323 82.3127 41.5413 82.0417 41.4143C81.7697 41.2863 81.4717 41.2273 81.1717 41.2403C80.7607 41.2423 80.3567 41.3523 80.0017 41.5603C79.6637 41.7373 79.3777 41.9993 79.1717 42.3203V45.3203C79.3737 45.6503 79.6607 45.9193 80.0017 46.1003C80.3557 46.3123 80.7597 46.4263 81.1717 46.4303M81.2817 47.0203C80.8627 47.0283 80.4487 46.9283 80.0797 46.7303C79.7097 46.5323 79.3977 46.2433 79.1717 45.8903V49.1903H78.5117V40.7903H79.1717V41.7903C79.4097 41.4503 79.7247 41.1723 80.0917 40.9793C80.4587 40.7863 80.8667 40.6833 81.2817 40.6803C81.6587 40.6633 82.0347 40.7313 82.3807 40.8803C82.7277 41.0293 83.0357 41.2553 83.2817 41.5403C83.8087 42.1953 84.0757 43.0213 84.0317 43.8603C84.0727 44.7023 83.8067 45.5303 83.2817 46.1903C83.0387 46.4833 82.7297 46.7163 82.3817 46.8713C82.0327 47.0253 81.6527 47.0973 81.2717 47.0803L81.2817 47.0203Z" fill="#253558"/>
<path d="M88.17 46.4406C88.482 46.4496 88.792 46.3866 89.075 46.2546C89.358 46.1226 89.606 45.9256 89.8 45.6806C90.19 45.1466 90.4 44.5016 90.4 43.8406C90.4 43.1796 90.19 42.5346 89.8 42.0006C89.601 41.7636 89.352 41.5726 89.071 41.4406C88.791 41.3096 88.485 41.2426 88.175 41.2426C87.865 41.2426 87.559 41.3096 87.278 41.4406C86.997 41.5726 86.749 41.7636 86.55 42.0006C86.166 42.5356 85.96 43.1776 85.96 43.8356C85.96 44.4936 86.166 45.1356 86.55 45.6706C86.737 45.9206 86.983 46.1206 87.265 46.2556C87.547 46.3896 87.858 46.4526 88.17 46.4406ZM88.17 47.0306C87.771 47.0466 87.375 46.9716 87.009 46.8126C86.644 46.6536 86.319 46.4136 86.06 46.1106C85.536 45.4686 85.25 44.6646 85.25 43.8356C85.25 43.0066 85.536 42.2026 86.06 41.5606C86.321 41.2606 86.646 41.0236 87.011 40.8656C87.377 40.7086 87.772 40.6346 88.17 40.6506C88.57 40.6346 88.969 40.7086 89.337 40.8656C89.706 41.0226 90.035 41.2606 90.3 41.5606C90.824 42.2026 91.11 43.0066 91.11 43.8356C91.11 44.6646 90.824 45.4686 90.3 46.1106C90.041 46.4226 89.715 46.6726 89.346 46.8406C88.977 47.0086 88.575 47.0906 88.17 47.0806V47.0306Z" fill="#253558"/>
<path d="M93.462 46.8808H92.832V40.8008H93.492V45.8608L96.952 40.8008H97.592V46.8808H96.942V41.7408L93.462 46.8808Z" fill="#253558"/>
<path d="M101.399 46.8808H100.739V41.3808H98.9492V40.8008H103.199V41.3808H101.399V46.8808Z" fill="#253558"/>
<path d="M109.35 43.5308C109.34 42.9458 109.132 42.3818 108.76 41.9308C108.562 41.6948 108.311 41.5078 108.028 41.3848C107.746 41.2618 107.438 41.2058 107.13 41.2208C106.83 41.2078 106.53 41.2658 106.256 41.3888C105.982 41.5118 105.74 41.6978 105.55 41.9308C105.168 42.3788 104.95 42.9428 104.93 43.5308H109.35ZM107.26 47.0308C106.851 47.0458 106.444 46.9748 106.065 46.8208C105.686 46.6678 105.343 46.4358 105.06 46.1408C104.773 45.8308 104.55 45.4668 104.404 45.0708C104.258 44.6748 104.192 44.2528 104.21 43.8308C104.19 42.9998 104.487 42.1918 105.04 41.5708C105.303 41.2748 105.627 41.0398 105.989 40.8808C106.352 40.7218 106.745 40.6438 107.14 40.6508C107.539 40.6338 107.936 40.7088 108.301 40.8678C108.667 41.0268 108.991 41.2678 109.25 41.5708C109.769 42.2228 110.039 43.0378 110.01 43.8708V44.0808H104.93C104.94 44.7198 105.186 45.3318 105.62 45.8008C105.834 46.0338 106.096 46.2168 106.388 46.3378C106.68 46.4588 106.995 46.5138 107.31 46.5008C107.685 46.5128 108.059 46.4438 108.404 46.2968C108.75 46.1498 109.059 45.9298 109.31 45.6508L109.65 46.0808C109.346 46.4078 108.975 46.6658 108.563 46.8378C108.151 47.0098 107.707 47.0928 107.26 47.0808V47.0308Z" fill="#253558"/>
<path d="M110.91 47.0802V46.5201C111.22 46.5201 111.48 46.3202 111.68 45.9102C111.948 45.2732 112.116 44.5982 112.18 43.9102L112.58 40.9102H116.46V46.9902H115.81V41.4902H113.17L112.83 44.0201C112.771 44.8621 112.54 45.6822 112.15 46.4302C112.028 46.6502 111.848 46.8332 111.629 46.9582C111.41 47.0832 111.162 47.1462 110.91 47.1402" fill="#253558"/>
<path d="M121.47 43.8608H119.17V46.2908H121.48C121.645 46.3008 121.81 46.2768 121.965 46.2208C122.119 46.1638 122.261 46.0748 122.38 45.9608C122.58 45.7098 122.689 45.3978 122.689 45.0758C122.689 44.7538 122.58 44.4418 122.38 44.1908C122.261 44.0768 122.119 43.9878 121.965 43.9308C121.81 43.8748 121.645 43.8508 121.48 43.8608M118.48 40.8008H119.17V43.2808H121.53C121.773 43.2658 122.017 43.3008 122.245 43.3848C122.474 43.4688 122.683 43.5998 122.858 43.7698C123.033 43.9388 123.171 44.1428 123.262 44.3688C123.354 44.5948 123.397 44.8368 123.39 45.0808C123.401 45.5598 123.221 46.0238 122.89 46.3708C122.711 46.5458 122.498 46.6818 122.264 46.7698C122.03 46.8578 121.78 46.8958 121.53 46.8808H118.53L118.48 40.8008Z" fill="#253558"/>
<path d="M125.56 46.8808H124.91V40.8008H125.56V43.4408H129.02V40.8008H129.67V46.8808H129.02V44.0208H125.56V46.8808Z" fill="#253558"/>
<path d="M133.739 46.5209C134.09 46.5399 134.44 46.4739 134.76 46.3289C135.08 46.1849 135.361 45.9659 135.579 45.6909V44.3509C135.362 44.0739 135.081 43.8529 134.761 43.7069C134.441 43.5609 134.091 43.4939 133.739 43.5109C133.298 43.4899 132.866 43.6449 132.539 43.9409C132.388 44.0769 132.269 44.2429 132.189 44.4299C132.11 44.6169 132.072 44.8179 132.079 45.0209C132.074 45.2229 132.112 45.4249 132.191 45.6109C132.271 45.7969 132.389 45.9649 132.539 46.1009C132.87 46.3909 133.3 46.5409 133.739 46.5209ZM136.239 46.8809H135.579V46.1609C135.318 46.4479 134.997 46.6739 134.64 46.8239C134.282 46.9739 133.897 47.0449 133.509 47.0309C132.966 47.0369 132.44 46.8449 132.029 46.4909C131.816 46.3029 131.646 46.0719 131.529 45.8139C131.412 45.5549 131.352 45.2749 131.352 44.9909C131.352 44.7069 131.412 44.4269 131.529 44.1679C131.646 43.9089 131.816 43.6789 132.029 43.4909C132.443 43.1349 132.973 42.9429 133.519 42.9509C133.907 42.9349 134.293 43.0049 134.651 43.1549C135.009 43.3049 135.329 43.5329 135.589 43.8209V42.5909C135.593 42.3989 135.552 42.2099 135.471 42.0359C135.389 41.8629 135.269 41.7109 135.119 41.5909C134.784 41.3339 134.37 41.2029 133.949 41.2209C133.586 41.2189 133.228 41.2979 132.899 41.4519C132.57 41.6059 132.28 41.8309 132.049 42.1109L131.689 41.6609C131.984 41.3359 132.346 41.0789 132.75 40.9059C133.154 40.7339 133.59 40.6499 134.029 40.6609C134.603 40.6339 135.169 40.8069 135.629 41.1509C135.839 41.3289 136.005 41.5539 136.113 41.8069C136.221 42.0609 136.267 42.3359 136.249 42.6109L136.239 46.8809Z" fill="#253558"/>
<path d="M140.04 43.8209H142.34V41.3809H140.04C139.875 41.3709 139.71 41.3949 139.555 41.4509C139.401 41.5079 139.259 41.5969 139.14 41.7109C139.03 41.8309 138.945 41.9709 138.89 42.1239C138.835 42.2769 138.812 42.4389 138.82 42.6009C138.802 42.9269 138.914 43.2469 139.13 43.4909C139.25 43.6069 139.393 43.6959 139.55 43.7529C139.707 43.8099 139.874 43.8329 140.04 43.8209ZM138.87 46.8809H138.09L139.79 44.3909C139.564 44.3859 139.342 44.3349 139.135 44.2429C138.929 44.1499 138.744 44.0169 138.59 43.8509C138.296 43.4929 138.135 43.0439 138.135 42.5809C138.135 42.1179 138.296 41.6689 138.59 41.3109C138.77 41.1379 138.984 41.0029 139.217 40.9149C139.451 40.8279 139.701 40.789 139.95 40.801H142.95V46.8809H142.28V44.4009H140.43L138.87 46.8809Z" fill="#253558"/>
<path d="M153.401 46.8808H152.521L150.091 43.9808L148.951 45.0608V46.8808H148.301V40.8008H148.951V44.2708L152.541 40.8008H153.411L150.581 43.5408L153.401 46.8808Z" fill="#253558"/>
<path d="M157.231 46.4403C157.543 46.4493 157.853 46.3863 158.136 46.2543C158.419 46.1223 158.667 45.9253 158.861 45.6803C159.251 45.1463 159.461 44.5013 159.461 43.8403C159.461 43.1793 159.251 42.5343 158.861 42.0003C158.662 41.7633 158.413 41.5723 158.132 41.4403C157.852 41.3093 157.546 41.2423 157.236 41.2423C156.926 41.2423 156.62 41.3093 156.339 41.4403C156.058 41.5723 155.81 41.7633 155.611 42.0003C155.222 42.5333 155.012 43.1753 155.012 43.8353C155.012 44.4953 155.222 45.1373 155.611 45.6703C155.798 45.9203 156.044 46.1203 156.326 46.2553C156.608 46.3893 156.919 46.4523 157.231 46.4403ZM157.231 47.0303C156.831 47.0453 156.433 46.9703 156.066 46.8113C155.699 46.6523 155.373 46.4123 155.111 46.1103C154.592 45.4653 154.309 44.6623 154.309 43.8353C154.309 43.0073 154.592 42.2053 155.111 41.5603C155.385 41.2733 155.715 41.0443 156.08 40.8883C156.446 40.7323 156.839 40.6523 157.236 40.6523C157.633 40.6523 158.026 40.7323 158.391 40.8883C158.757 41.0443 159.086 41.2733 159.361 41.5603C159.879 42.2053 160.162 43.0073 160.162 43.8353C160.162 44.6623 159.879 45.4653 159.361 46.1103C159.102 46.4223 158.776 46.6723 158.407 46.8403C158.038 47.0083 157.636 47.0903 157.231 47.0803V47.0303Z" fill="#253558"/>
<path d="M167.592 46.8808H166.922V41.6908L164.852 46.8808H164.612L162.502 41.6908V46.8808H161.852V40.8008H162.732L164.722 45.7308L166.692 40.8008H167.592V46.8808Z" fill="#253558"/>
<path d="M174.389 46.8808H173.739V41.3808H170.289V46.8808H169.629V40.8008H174.389V46.8808Z" fill="#253558"/>
<path d="M178.462 46.5204C178.813 46.5404 179.163 46.4754 179.484 46.3314C179.804 46.1864 180.085 45.9664 180.302 45.6904V44.3504C180.085 44.0724 179.805 43.8514 179.485 43.7054C179.164 43.5594 178.814 43.4924 178.462 43.5104C178.021 43.4904 177.59 43.6454 177.262 43.9404C177.113 44.0774 176.994 44.2444 176.915 44.4304C176.836 44.6174 176.797 44.8184 176.802 45.0204C176.799 45.2224 176.838 45.4234 176.918 45.6094C176.997 45.7954 177.114 45.9624 177.262 46.1004C177.594 46.3884 178.023 46.5384 178.462 46.5204ZM180.962 46.8804H180.302V46.1604C180.043 46.4464 179.724 46.6734 179.368 46.8234C179.012 46.9734 178.628 47.0444 178.242 47.0304C177.696 47.0364 177.167 46.8444 176.752 46.4904C176.54 46.3084 176.373 46.0804 176.262 45.8234C176.151 45.5674 176.1 45.2894 176.112 45.0104C176.097 44.7314 176.147 44.4524 176.258 44.1954C176.369 43.9384 176.538 43.7104 176.752 43.5304C177.165 43.1734 177.696 42.9814 178.242 42.9904C178.628 42.9754 179.013 43.0464 179.369 43.1964C179.724 43.3464 180.043 43.5734 180.302 43.8604V42.6304C180.307 42.4394 180.269 42.2504 180.189 42.0764C180.109 41.9034 179.99 41.7504 179.842 41.6304C179.507 41.3734 179.093 41.2434 178.672 41.2604C178.307 41.2584 177.947 41.3364 177.617 41.4904C177.286 41.6444 176.994 41.8694 176.762 42.1504L176.402 41.7004C176.697 41.3754 177.059 41.1184 177.463 40.9454C177.867 40.7734 178.303 40.6894 178.742 40.7004C179.316 40.6714 179.882 40.8454 180.342 41.1904C180.552 41.3684 180.718 41.5934 180.826 41.8464C180.933 42.1004 180.98 42.3754 180.962 42.6504V46.8804Z" fill="#253558"/>
<path d="M183.652 46.8808H182.992V40.8008H183.652V43.4408H187.102V40.8008H187.762V46.8808H187.102V44.0208H183.652V46.8808Z" fill="#253558"/>
<path d="M190.431 46.8808H189.801V40.8008H190.451V45.8608L193.921 40.8008H194.561V46.8808H193.901V41.7408L190.431 46.8808Z" fill="#253558"/>
<path d="M198.361 43.8192H200.671V41.3792H198.361C198.196 41.3702 198.032 41.3952 197.877 41.4522C197.723 41.5092 197.581 41.5962 197.461 41.7092C197.243 41.9532 197.128 42.2722 197.141 42.5992C197.126 42.9262 197.241 43.2462 197.461 43.4892C197.58 43.6032 197.721 43.6922 197.876 43.7492C198.031 43.8052 198.196 43.8292 198.361 43.8192ZM197.171 46.8792H196.391L198.091 44.3892C197.867 44.3832 197.646 44.3322 197.441 44.2392C197.237 44.1472 197.053 44.0142 196.901 43.8492C196.745 43.6822 196.624 43.4852 196.545 43.2702C196.466 43.0562 196.431 42.8272 196.441 42.5992C196.431 42.3562 196.472 42.1132 196.562 41.8862C196.652 41.6602 196.788 41.4552 196.963 41.2852C197.138 41.1152 197.346 40.9842 197.575 40.9002C197.804 40.8162 198.048 40.7822 198.291 40.7992H201.291V46.8792H200.621V44.3992H198.771L197.171 46.8792Z" fill="#253558"/>
<path d="M25.6467 48.5036H17.2202C16.5661 48.5036 15.9388 48.2436 15.4763 47.7816C15.0137 47.3186 14.7539 46.6916 14.7539 46.0376V10.8047C14.7748 10.283 14.9344 9.77616 15.2164 9.33666C15.6757 8.59526 16.3523 8.01346 17.1541 7.67046L25.3751 4.00037C25.4045 3.98667 25.4368 3.98067 25.4691 3.98287C25.5014 3.98507 25.5326 3.99557 25.5598 4.01317C25.5869 4.03077 25.6092 4.05497 25.6244 4.08357C25.6396 4.11217 25.6473 4.14417 25.6467 4.17647V48.5036Z" fill="#253558"/>
<path d="M34.8346 48.504H26.8779C26.8204 48.505 26.7633 48.495 26.7099 48.473C26.6565 48.452 26.6079 48.42 26.5669 48.38C26.5259 48.34 26.4933 48.292 26.4711 48.239C26.4489 48.186 26.4374 48.129 26.4375 48.071V4.12559C26.4379 4.03899 26.4629 3.95439 26.5097 3.88159C26.5565 3.80879 26.6231 3.75079 26.7017 3.71449L34.7759 0.25729C35.2235 0.0624901 35.7108 -0.0237113 36.1981 0.00558871C36.6854 0.0348887 37.1588 0.17899 37.5798 0.42609C37.6459 0.46589 37.7007 0.52179 37.7392 0.58849C37.7777 0.65529 37.7987 0.730789 37.8 0.807789V45.568C37.8001 45.957 37.7229 46.342 37.5731 46.7C37.4232 47.059 37.2037 47.384 36.9271 47.657C36.6506 47.93 36.3226 48.146 35.9621 48.291C35.6017 48.437 35.2159 48.509 34.8273 48.504" fill="#253558"/>
<path d="M46.8688 52.4304H41.3122C41.2404 52.4394 41.1681 52.4194 41.1106 52.3754C41.0531 52.3314 41.0149 52.2674 41.0039 52.1954V29.3605C41.0075 29.31 41.0273 29.2619 41.0603 29.2236C41.0934 29.1852 41.138 29.1586 41.1874 29.1476L46.8247 26.3584C47.4672 26.1462 48.1656 26.1802 48.7845 26.4538C48.8274 26.4694 48.8648 26.4971 48.8922 26.5336C48.9196 26.5701 48.9357 26.6138 48.9387 26.6593V50.8304C48.9387 51.7184 48.0138 52.4304 46.8688 52.4304Z" fill="#253558"/>
<path d="M7.06324 52.4317H11.5334C11.5643 52.4297 11.5944 52.4207 11.6218 52.4057C11.6493 52.3917 11.6736 52.3717 11.6934 52.3477C11.7132 52.3237 11.7281 52.2967 11.7371 52.2667C11.7462 52.2367 11.7493 52.2057 11.7463 52.1747V28.6865C11.7463 28.6403 11.7323 28.5952 11.7061 28.5572C11.6799 28.5192 11.6427 28.4901 11.5995 28.4737L7.07059 26.3524C6.81753 26.2475 6.54393 26.2016 6.27052 26.2182C5.9971 26.2347 5.73104 26.3132 5.49246 26.4478C5.45644 26.4686 5.42658 26.4986 5.40595 26.5347C5.38532 26.5708 5.37464 26.6117 5.37501 26.6533V50.8247C5.37884 51.0387 5.42478 51.2497 5.51022 51.4457C5.59566 51.6417 5.71893 51.8197 5.87298 51.9687C6.02702 52.1167 6.20884 52.2337 6.40803 52.3117C6.60723 52.3907 6.81988 52.4287 7.03388 52.4247" fill="#253558"/>
<path d="M12.0472 52.4318H6.46875C6.46875 52.4318 7.79731 51.7858 9.74246 49.2028C12.2234 45.9138 12.7592 43.4548 12.7812 41.3848C12.862 34.1038 12.7812 12.2593 12.7812 12.2593C12.7812 12.0237 12.8749 11.7978 13.0415 11.6312C13.208 11.4647 13.4338 11.3711 13.6694 11.3711V50.8098C13.6694 51.2398 13.4985 51.6528 13.1943 51.9568C12.8901 52.2608 12.4775 52.4318 12.0472 52.4318Z" fill="#253558"/>
<path d="M39.0781 1.83594V50.8095C39.08 51.2405 39.2526 51.6535 39.558 51.9575C39.8633 52.2615 40.2767 52.4315 40.7076 52.4315H46.2861C46.2861 52.4315 44.5465 52.1965 42.183 49.9875C39.8195 47.7785 39.9809 43.4545 39.9809 41.3845C39.9149 34.6025 39.9809 6.88603 39.9809 3.14983C39.9837 3.01413 39.9591 2.87914 39.9087 2.75304C39.8583 2.62694 39.783 2.51223 39.6873 2.41583L39.0781 1.83594Z" fill="#253558"/>
<path d="M3.43519 52.4308H0C1.00436 52.3198 1.92714 51.8258 2.57641 51.0508C4.08848 49.5248 3.85358 46.9848 3.86826 45.7298C3.9123 41.3258 3.86826 28.069 3.86826 28.069C3.87019 27.9262 3.92827 27.79 4.02993 27.6897C4.13158 27.5894 4.26865 27.5332 4.41145 27.5332V51.4398C4.41049 51.5698 4.38389 51.6988 4.3332 51.8188C4.28252 51.9388 4.20873 52.0478 4.11603 52.1388C4.02333 52.2298 3.91355 52.3018 3.79295 52.3508C3.67236 52.3998 3.54331 52.4248 3.41317 52.4238" fill="#253558"/>
<path d="M50.8825 52.4308H54.3176C53.3133 52.3198 52.3905 51.8258 51.7412 51.0508C50.2291 49.5248 50.464 46.9848 50.4493 45.7298C50.4053 41.3258 50.4493 28.069 50.4493 28.069C50.4474 27.9262 50.3894 27.79 50.2878 27.6897C50.1861 27.5894 50.0491 27.5332 49.9062 27.5332V51.4398C49.9071 51.5698 49.9338 51.6988 49.9845 51.8188C50.0352 51.9388 50.1089 52.0478 50.2016 52.1388C50.2943 52.2298 50.4041 52.3018 50.5247 52.3508C50.6453 52.3998 50.7743 52.4248 50.9044 52.4238" fill="#253558"/>
</svg>
